<?xml version="1.0" encoding="utf-8"?>
<!-- Generator: Adobe Illustrator 19.1.0, SVG Export Plug-In . SVG Version: 6.00 Build 0)  -->
<svg version="1.1" id="Layer_1" xmlns="http://www.w3.org/2000/svg" xmlns:xlink="http://www.w3.org/1999/xlink" x="0px" y="0px"
	 viewBox="0 0 437.3 411" style="enable-background:new 0 0 437.3 411;" xml:space="preserve">
<style type="text/css">
	.st0{fill:#496AB2;}
	.st1{fill:#FFFFFF;}
</style>
<g>
	<path class="st0" d="M395.3,394.9H42.1c-6.6,0-12-5.4-12-12V29.8c0-6.6,5.4-12,12-12h353.2c6.6,0,12,5.4,12,12v353.2
		C407.3,389.5,401.9,394.9,395.3,394.9z"/>
</g>
<g>
	<path class="st1" d="M154.4,351.2c0,1.2,0.2,2.1,0.8,2.7s1.4,1,2.6,1.1v-6.4c-0.7-0.2-1.4-0.4-2.1-0.7s-1.4-0.6-1.9-1.1
		c-0.6-0.4-1-1-1.4-1.6s-0.5-1.5-0.5-2.4c0-0.8,0.2-1.6,0.5-2.2c0.3-0.6,0.8-1.2,1.3-1.6c0.6-0.4,1.2-0.8,1.9-1
		c0.7-0.2,1.5-0.3,2.3-0.3v-2.1h1.1v2.1c0.8,0,1.5,0.1,2.2,0.3c0.7,0.2,1.3,0.5,1.8,0.9s0.9,1,1.2,1.6s0.5,1.4,0.5,2.3h-3
		c0-0.9-0.3-1.6-0.7-2.1c-0.4-0.5-1.1-0.7-2.1-0.7v5.5c0.8,0.2,1.6,0.5,2.3,0.7c0.8,0.3,1.4,0.6,2,1.1s1,1,1.4,1.6
		c0.4,0.6,0.5,1.4,0.5,2.4c0,1-0.2,1.8-0.5,2.6c-0.3,0.7-0.8,1.3-1.3,1.8c-0.6,0.5-1.2,0.9-2,1.1c-0.8,0.3-1.6,0.4-2.4,0.4v2.1h-1.1
		v-2.1c-0.9,0-1.8-0.2-2.6-0.4s-1.5-0.7-2-1.2c-0.6-0.5-1-1.2-1.3-1.9c-0.3-0.8-0.5-1.6-0.4-2.6H154.4z M157.7,340.1
		c-0.9,0-1.7,0.2-2.2,0.6c-0.5,0.4-0.8,1.1-0.8,2c0,0.4,0.1,0.8,0.3,1.1s0.4,0.6,0.7,0.8c0.3,0.2,0.6,0.4,0.9,0.5
		c0.4,0.1,0.7,0.2,1.1,0.3V340.1z M158.9,355c0.9-0.1,1.7-0.3,2.3-0.8c0.6-0.5,0.9-1.2,0.9-2.3c0-0.5-0.1-0.9-0.3-1.2
		s-0.4-0.6-0.7-0.8c-0.3-0.2-0.7-0.4-1-0.6c-0.4-0.1-0.8-0.3-1.2-0.4V355z"/>
	<path class="st1" d="M167,341.6c0.6,0,1.2-0.1,1.8-0.2c0.6-0.1,1.1-0.3,1.6-0.5c0.5-0.2,0.9-0.6,1.2-0.9c0.3-0.4,0.6-0.9,0.7-1.4
		h2.4v18.4h-3.3v-13H167V341.6z"/>
	<path class="st1" d="M189.5,338.2h9c2.1,0,3.6,0.4,4.7,1.3c1,0.9,1.6,2.1,1.6,3.7c0,0.9-0.1,1.6-0.4,2.2c-0.3,0.6-0.6,1.1-0.9,1.4
		c-0.4,0.4-0.7,0.6-1,0.8c-0.3,0.2-0.6,0.3-0.8,0.3v0.1c0.3,0,0.6,0.1,0.9,0.3c0.3,0.1,0.6,0.4,0.9,0.7c0.3,0.3,0.5,0.7,0.7,1.2
		c0.2,0.5,0.3,1.1,0.3,1.8c0,1.1,0.1,2.1,0.2,3c0.2,0.9,0.4,1.5,0.8,1.9h-3.5c-0.2-0.4-0.4-0.9-0.4-1.3c0-0.5-0.1-1-0.1-1.4
		c0-0.9-0.1-1.6-0.2-2.2s-0.3-1.1-0.6-1.6c-0.3-0.4-0.7-0.7-1.1-0.9c-0.5-0.2-1.1-0.3-1.9-0.3h-4.8v7.7h-3.3V338.2z M192.8,346.7
		h5.4c1.1,0,1.8-0.2,2.4-0.8c0.5-0.5,0.8-1.2,0.8-2.2c0-0.6-0.1-1.1-0.3-1.5c-0.2-0.4-0.4-0.7-0.7-0.9c-0.3-0.2-0.7-0.4-1.1-0.4
		s-0.8-0.1-1.2-0.1h-5.3V346.7z"/>
	<path class="st1" d="M209.9,350.9c0,0.5,0.1,1,0.2,1.5c0.1,0.5,0.4,0.9,0.7,1.3c0.3,0.4,0.7,0.7,1.1,0.9c0.5,0.2,1,0.3,1.6,0.3
		c0.9,0,1.6-0.2,2.1-0.6c0.5-0.4,0.9-0.9,1.2-1.7h2.8c-0.2,0.7-0.4,1.4-0.8,2c-0.4,0.6-0.9,1.1-1.4,1.5c-0.5,0.4-1.2,0.7-1.8,0.9
		s-1.4,0.3-2.1,0.3c-1.1,0-2-0.2-2.8-0.5s-1.5-0.8-2.1-1.5s-1-1.4-1.3-2.3c-0.3-0.9-0.4-1.8-0.4-2.9c0-1,0.2-1.9,0.5-2.7
		c0.3-0.9,0.7-1.6,1.3-2.3s1.3-1.2,2.1-1.6c0.8-0.4,1.7-0.6,2.7-0.6c1.1,0,2,0.2,2.9,0.7s1.6,1,2.1,1.8c0.6,0.7,1,1.6,1.2,2.5
		c0.3,1,0.3,1.9,0.2,3H209.9z M216.9,348.9c0-0.5-0.1-0.9-0.3-1.4c-0.2-0.4-0.4-0.8-0.7-1.1s-0.6-0.6-1.1-0.8
		c-0.4-0.2-0.9-0.3-1.4-0.3c-0.5,0-1,0.1-1.4,0.3c-0.4,0.2-0.8,0.4-1.1,0.8c-0.3,0.3-0.6,0.7-0.7,1.1c-0.2,0.4-0.3,0.9-0.3,1.4
		H216.9z"/>
	<path class="st1" d="M224.5,352.6c0.1,0.9,0.4,1.5,1,1.8c0.6,0.4,1.3,0.5,2.1,0.5c0.3,0,0.6,0,1-0.1s0.7-0.1,1-0.2
		c0.3-0.1,0.6-0.3,0.8-0.5c0.2-0.2,0.3-0.5,0.3-0.9c0-0.4-0.2-0.7-0.4-0.9s-0.6-0.4-1-0.6c-0.4-0.1-0.9-0.3-1.4-0.4
		c-0.5-0.1-1.1-0.2-1.6-0.3c-0.6-0.1-1.1-0.3-1.6-0.4c-0.5-0.2-1-0.4-1.4-0.7c-0.4-0.3-0.7-0.7-1-1.1c-0.2-0.5-0.4-1-0.4-1.7
		c0-0.7,0.2-1.4,0.5-1.9s0.8-0.9,1.4-1.2c0.6-0.3,1.2-0.5,1.8-0.6c0.7-0.1,1.3-0.2,1.9-0.2c0.7,0,1.4,0.1,2,0.2
		c0.6,0.1,1.2,0.4,1.7,0.7c0.5,0.3,0.9,0.8,1.3,1.3c0.3,0.5,0.6,1.2,0.6,1.9H230c-0.1-0.7-0.5-1.2-1-1.4c-0.5-0.2-1.1-0.4-1.8-0.4
		c-0.2,0-0.5,0-0.8,0.1c-0.3,0-0.6,0.1-0.8,0.2c-0.3,0.1-0.5,0.2-0.6,0.4c-0.2,0.2-0.3,0.4-0.3,0.7c0,0.4,0.1,0.7,0.4,0.9
		c0.3,0.2,0.6,0.4,1,0.6c0.4,0.1,0.9,0.3,1.4,0.4c0.5,0.1,1.1,0.2,1.6,0.3c0.5,0.1,1.1,0.3,1.6,0.4c0.5,0.2,1,0.4,1.4,0.7
		c0.4,0.3,0.7,0.7,1,1.1c0.3,0.5,0.4,1,0.4,1.7c0,0.8-0.2,1.5-0.6,2.1c-0.4,0.6-0.8,1-1.4,1.4c-0.6,0.4-1.2,0.6-2,0.8
		c-0.7,0.2-1.4,0.2-2.1,0.2c-0.9,0-1.7-0.1-2.4-0.3c-0.7-0.2-1.4-0.5-1.9-0.9c-0.5-0.4-1-0.9-1.3-1.5c-0.3-0.6-0.5-1.3-0.5-2.1
		H224.5z"/>
	<path class="st1" d="M238.2,350.9c0,0.5,0.1,1,0.2,1.5c0.1,0.5,0.4,0.9,0.7,1.3c0.3,0.4,0.7,0.7,1.1,0.9c0.5,0.2,1,0.3,1.6,0.3
		c0.9,0,1.6-0.2,2.1-0.6c0.5-0.4,0.9-0.9,1.2-1.7h2.8c-0.2,0.7-0.4,1.4-0.8,2c-0.4,0.6-0.9,1.1-1.4,1.5c-0.5,0.4-1.2,0.7-1.8,0.9
		s-1.4,0.3-2.1,0.3c-1.1,0-2-0.2-2.8-0.5s-1.5-0.8-2.1-1.5s-1-1.4-1.3-2.3c-0.3-0.9-0.4-1.8-0.4-2.9c0-1,0.2-1.9,0.5-2.7
		c0.3-0.9,0.7-1.6,1.3-2.3s1.3-1.2,2.1-1.6c0.8-0.4,1.7-0.6,2.7-0.6c1.1,0,2,0.2,2.9,0.7s1.6,1,2.1,1.8c0.6,0.7,1,1.6,1.2,2.5
		c0.3,1,0.3,1.9,0.2,3H238.2z M245.2,348.9c0-0.5-0.1-0.9-0.3-1.4c-0.2-0.4-0.4-0.8-0.7-1.1s-0.6-0.6-1.1-0.8
		c-0.4-0.2-0.9-0.3-1.4-0.3c-0.5,0-1,0.1-1.4,0.3c-0.4,0.2-0.8,0.4-1.1,0.8c-0.3,0.3-0.6,0.7-0.7,1.1c-0.2,0.4-0.3,0.9-0.3,1.4
		H245.2z"/>
	<path class="st1" d="M250.5,343.3h2.8v2.6h0.1c0.1-0.4,0.3-0.7,0.5-1.1c0.3-0.4,0.6-0.7,0.9-1s0.8-0.5,1.2-0.7
		c0.4-0.2,0.9-0.3,1.3-0.3c0.4,0,0.6,0,0.7,0c0.1,0,0.3,0,0.4,0.1v2.9c-0.2,0-0.4-0.1-0.6-0.1c-0.2,0-0.4,0-0.6,0
		c-0.5,0-1,0.1-1.4,0.3c-0.4,0.2-0.8,0.5-1.2,0.9c-0.3,0.4-0.6,0.9-0.8,1.5c-0.2,0.6-0.3,1.2-0.3,2v6.5h-3V343.3z"/>
	<path class="st1" d="M258.4,343.3h3.3l3.4,10.4h0.1l3.3-10.4h3.1l-4.9,13.6h-3.4L258.4,343.3z"/>
	<path class="st1" d="M275.7,350.9c0,0.5,0.1,1,0.2,1.5c0.1,0.5,0.4,0.9,0.7,1.3c0.3,0.4,0.7,0.7,1.1,0.9c0.5,0.2,1,0.3,1.6,0.3
		c0.9,0,1.6-0.2,2.1-0.6c0.5-0.4,0.9-0.9,1.2-1.7h2.8c-0.2,0.7-0.4,1.4-0.8,2c-0.4,0.6-0.9,1.1-1.4,1.5c-0.5,0.4-1.2,0.7-1.8,0.9
		s-1.4,0.3-2.1,0.3c-1.1,0-2-0.2-2.8-0.5s-1.5-0.8-2.1-1.5s-1-1.4-1.3-2.3c-0.3-0.9-0.4-1.8-0.4-2.9c0-1,0.2-1.9,0.5-2.7
		c0.3-0.9,0.7-1.6,1.3-2.3s1.3-1.2,2.1-1.6c0.8-0.4,1.7-0.6,2.7-0.6c1.1,0,2,0.2,2.9,0.7s1.6,1,2.1,1.8c0.6,0.7,1,1.6,1.2,2.5
		c0.3,1,0.3,1.9,0.2,3H275.7z M282.7,348.9c0-0.5-0.1-0.9-0.3-1.4c-0.2-0.4-0.4-0.8-0.7-1.1s-0.6-0.6-1.1-0.8
		c-0.4-0.2-0.9-0.3-1.4-0.3c-0.5,0-1,0.1-1.4,0.3c-0.4,0.2-0.8,0.4-1.1,0.8c-0.3,0.3-0.6,0.7-0.7,1.1c-0.2,0.4-0.3,0.9-0.3,1.4
		H282.7z"/>
</g>
<g>
	<g>
		<path class="st1" d="M214.3,159.8c-1.4,6.6,4.4,13.8,11.6,14.5c0-7.5,0-15.1,0-23.1c-2,0.6-3.7,1-5.3,1.6
			C217.3,154,215,156.2,214.3,159.8z"/>
	</g>
	<g>
		<path class="st1" d="M246.6,196c-3.3-2.4-7.3-4-11.4-6.2c0,9.6,0,18.3,0,27.1c4-0.4,7.6-1.2,10.8-3.4
			C252.2,209.2,252.6,200.4,246.6,196z"/>
	</g>
	<g>
		<path class="st1" d="M230.4,79.3c-57.9,0-104.8,46.9-104.8,104.8s46.9,104.8,104.8,104.8S335.2,242,335.2,184.1
			S288.3,79.3,230.4,79.3z M262.6,205.9c-0.7,9.6-5.8,16.1-14.7,19.5c-4,1.5-8.4,2.2-12.9,3.4c0,6.2,0,12.8,0,19.3
			c0,2.8-1.3,4.6-3.5,5.1c-3.1,0.6-5.5-1.4-5.5-4.8c0-6,0-11.9,0-17.9c0-0.7-0.1-1.5-0.5-1.6c-5.4-2-11-3.6-16.1-6.1
			c-3.5-1.7-6.6-4.6-9.4-7.4c-2.5-2.4-2.2-5.5,0-7.6c2.2-2.1,5.3-2.1,7.9,0.4c5,4.9,10.9,7.7,18,8.6c0-9.9,0-19.6,0-29.6
			c-1.9-0.8-4-1.5-5.9-2.5c-3.1-1.6-6.2-3.1-9-5.1c-7.1-5.1-9.6-12.3-8.5-20.8c1.1-8.4,6.1-13.8,13.9-16.6c3-1.1,6.1-1.7,9.7-2.6
			c0-0.5,0-1.4,0-2.3c0-5.7,0-11.4,0-17.1c0-3.3,1.7-5.2,4.4-5.3c2.9,0,4.6,1.9,4.6,5.4c0,6.5,0,12.9,0,19.5
			c2.5,0.5,4.9,0.9,7.2,1.5c6.2,1.6,11.5,4.5,15.7,9.5c2.5,3,2.6,6.2,0.3,8.3c-2.2,2.1-5.2,1.9-8.1-0.7c-4.2-3.9-9-6.3-15-6.9
			c-0.1,0.8-0.1,1.5-0.1,2.2c0,7.4,0.1,14.8-0.1,22.2c0,1.9,0.6,2.5,2.3,3.2c4.7,1.9,9.6,3.7,14,6.2
			C259.3,189.6,263.3,196.6,262.6,205.9z"/>
	</g>
</g>
</svg>
