<?xml version="1.0" encoding="utf-8"?>
<!-- Generator: Adobe Illustrator 19.1.0, SVG Export Plug-In . SVG Version: 6.00 Build 0)  -->
<svg version="1.1" id="Layer_1" xmlns="http://www.w3.org/2000/svg" xmlns:xlink="http://www.w3.org/1999/xlink" x="0px" y="0px"
	 viewBox="0 0 437.3 411" style="enable-background:new 0 0 437.3 411;" xml:space="preserve">
<style type="text/css">
	.st0{fill:#496AB2;}
	.st1{fill:#FFFFFF;}
</style>
<g>
	<path class="st0" d="M395.3,394.7H42.1c-6.6,0-12-5.4-12-12V29.5c0-6.6,5.4-12,12-12h353.2c6.6,0,12,5.4,12,12v353.2
		C407.3,389.3,401.9,394.7,395.3,394.7z"/>
</g>
<g>
	<path class="st1" d="M206.6,79.6c3.3,0.5,6.6,0.8,9.9,1.4c24.3,4.8,43.3,17.6,55.6,39c16.6,29,15.6,58.2-1.8,86.8
		c-0.2,0.3-0.3,0.5-0.6,0.9c0.5,0.5,1,1,1.5,1.5c18.4,18.4,36.8,36.8,55.2,55.3c1.4,1.4,2.6,2.9,3.5,4.6c2.8,5,2.2,10.3-1.7,14.5
		c-3.7,4-7.6,7.9-11.6,11.6c-5.5,5.1-12.9,4.5-18.6-1.2c-5.3-5.3-10.6-10.6-15.9-15.9c-13.8-13.8-27.6-27.6-41.4-41.5
		c-1.3-1.3-2.2-1.6-4-0.7c-48.2,22.9-105.3-5.8-115.7-58.1c-8.9-44.5,20.2-88,64.5-96.7c3.6-0.7,7.3-1.1,11-1.6
		C199.8,79.6,203.2,79.6,206.6,79.6z M256.2,161.7c0-30.2-24.6-54.8-54.9-54.7c-30.2,0-54.7,24.5-54.7,54.7
		c0,30.2,24.5,54.8,54.8,54.8C231.7,216.6,256.3,192,256.2,161.7z"/>
</g>
<g>
	<path class="st1" d="M110.5,346.7c0,0.7,0.1,1.3,0.4,1.8c0.2,0.5,0.6,0.9,1,1.2c0.4,0.3,0.9,0.6,1.5,0.7c0.6,0.1,1.2,0.2,1.9,0.2
		c0.7,0,1.3-0.1,1.8-0.2c0.5-0.2,0.9-0.4,1.2-0.6c0.3-0.3,0.5-0.6,0.7-0.9s0.2-0.7,0.2-1c0-0.7-0.2-1.2-0.5-1.6
		c-0.3-0.3-0.7-0.6-1.1-0.7c-0.7-0.2-1.4-0.5-2.3-0.7c-0.9-0.2-2-0.5-3.3-0.9c-0.8-0.2-1.5-0.5-2-0.8c-0.5-0.3-1-0.7-1.3-1.1
		c-0.3-0.4-0.5-0.9-0.7-1.3c-0.1-0.5-0.2-1-0.2-1.4c0-0.9,0.2-1.8,0.6-2.5s0.9-1.3,1.6-1.7c0.6-0.5,1.4-0.8,2.2-1
		c0.8-0.2,1.7-0.3,2.5-0.3c1,0,1.9,0.1,2.8,0.4c0.9,0.3,1.6,0.6,2.3,1.1c0.7,0.5,1.2,1.1,1.6,1.9s0.6,1.6,0.6,2.6h-3.3
		c-0.1-1.2-0.5-2.1-1.2-2.6s-1.7-0.8-2.8-0.8c-0.4,0-0.8,0-1.2,0.1c-0.4,0.1-0.8,0.2-1.1,0.4c-0.3,0.2-0.6,0.4-0.8,0.7
		s-0.3,0.7-0.3,1.2c0,0.7,0.2,1.2,0.6,1.6c0.4,0.4,1,0.7,1.6,0.9c0.1,0,0.3,0.1,0.8,0.2c0.5,0.1,1,0.3,1.6,0.4
		c0.6,0.2,1.2,0.3,1.7,0.5c0.6,0.1,1,0.3,1.2,0.3c0.6,0.2,1.1,0.5,1.6,0.8s0.8,0.7,1.1,1.1c0.3,0.4,0.5,0.9,0.7,1.4
		c0.1,0.5,0.2,1,0.2,1.5c0,1.1-0.2,2-0.6,2.7c-0.4,0.7-1,1.4-1.7,1.8c-0.7,0.5-1.5,0.8-2.4,1s-1.8,0.3-2.7,0.3c-1.1,0-2.1-0.1-3-0.4
		s-1.8-0.7-2.5-1.2c-0.7-0.5-1.3-1.2-1.7-2.1c-0.4-0.8-0.6-1.9-0.7-3H110.5z"/>
	<path class="st1" d="M127.3,347c0,0.5,0.1,1,0.2,1.5c0.1,0.5,0.4,0.9,0.7,1.3c0.3,0.4,0.7,0.7,1.1,0.9c0.5,0.2,1,0.3,1.6,0.3
		c0.9,0,1.6-0.2,2.1-0.6c0.5-0.4,0.9-0.9,1.2-1.7h2.8c-0.2,0.7-0.4,1.4-0.8,2c-0.4,0.6-0.9,1.1-1.4,1.5c-0.5,0.4-1.2,0.7-1.8,0.9
		c-0.7,0.2-1.4,0.3-2.1,0.3c-1.1,0-2-0.2-2.8-0.5c-0.8-0.3-1.5-0.8-2.1-1.5c-0.6-0.6-1-1.4-1.3-2.3c-0.3-0.9-0.4-1.8-0.4-2.9
		c0-1,0.2-1.9,0.5-2.7c0.3-0.9,0.7-1.6,1.3-2.3s1.3-1.2,2.1-1.6c0.8-0.4,1.7-0.6,2.7-0.6c1.1,0,2,0.2,2.9,0.7c0.9,0.4,1.6,1,2.1,1.8
		s1,1.6,1.2,2.5c0.3,1,0.3,1.9,0.2,3H127.3z M134.3,345c0-0.5-0.1-0.9-0.3-1.4c-0.2-0.4-0.4-0.8-0.7-1.1c-0.3-0.3-0.6-0.6-1.1-0.8
		c-0.4-0.2-0.9-0.3-1.4-0.3c-0.5,0-1,0.1-1.4,0.3c-0.4,0.2-0.8,0.4-1.1,0.8c-0.3,0.3-0.6,0.7-0.7,1.1s-0.3,0.9-0.3,1.4H134.3z"/>
	<path class="st1" d="M139.7,334.2h3V353h-3V334.2z"/>
	<path class="st1" d="M148.3,347c0,0.5,0.1,1,0.2,1.5c0.1,0.5,0.4,0.9,0.7,1.3c0.3,0.4,0.7,0.7,1.1,0.9c0.5,0.2,1,0.3,1.6,0.3
		c0.9,0,1.6-0.2,2.1-0.6c0.5-0.4,0.9-0.9,1.2-1.7h2.8c-0.2,0.7-0.4,1.4-0.8,2c-0.4,0.6-0.9,1.1-1.4,1.5c-0.5,0.4-1.2,0.7-1.8,0.9
		c-0.7,0.2-1.4,0.3-2.1,0.3c-1.1,0-2-0.2-2.8-0.5c-0.8-0.3-1.5-0.8-2.1-1.5c-0.6-0.6-1-1.4-1.3-2.3c-0.3-0.9-0.4-1.8-0.4-2.9
		c0-1,0.2-1.9,0.5-2.7c0.3-0.9,0.7-1.6,1.3-2.3s1.3-1.2,2.1-1.6c0.8-0.4,1.7-0.6,2.7-0.6c1.1,0,2,0.2,2.9,0.7c0.9,0.4,1.6,1,2.1,1.8
		s1,1.6,1.2,2.5c0.3,1,0.3,1.9,0.2,3H148.3z M155.3,345c0-0.5-0.1-0.9-0.3-1.4c-0.2-0.4-0.4-0.8-0.7-1.1c-0.3-0.3-0.6-0.6-1.1-0.8
		c-0.4-0.2-0.9-0.3-1.4-0.3c-0.5,0-1,0.1-1.4,0.3c-0.4,0.2-0.8,0.4-1.1,0.8c-0.3,0.3-0.6,0.7-0.7,1.1s-0.3,0.9-0.3,1.4H155.3z"/>
	<path class="st1" d="M169.8,344c-0.1-0.8-0.5-1.5-1-1.9c-0.6-0.4-1.2-0.6-2.1-0.6c-0.4,0-0.8,0.1-1.2,0.2c-0.4,0.1-0.8,0.4-1.2,0.7
		s-0.7,0.9-0.9,1.5s-0.4,1.5-0.4,2.5c0,0.6,0.1,1.1,0.2,1.7c0.1,0.6,0.3,1.1,0.6,1.5c0.3,0.4,0.7,0.8,1.1,1.1c0.5,0.3,1,0.4,1.7,0.4
		c0.9,0,1.6-0.3,2.2-0.8c0.6-0.5,0.9-1.3,1.1-2.3h3c-0.3,1.8-1,3.1-2,4.1c-1.1,0.9-2.5,1.4-4.2,1.4c-1.1,0-2-0.2-2.8-0.5
		c-0.8-0.4-1.5-0.9-2.1-1.5c-0.6-0.6-1-1.4-1.3-2.2c-0.3-0.9-0.4-1.8-0.4-2.8c0-1,0.1-2,0.4-2.9c0.3-0.9,0.7-1.7,1.3-2.3
		c0.6-0.7,1.3-1.2,2.1-1.6c0.8-0.4,1.8-0.6,2.9-0.6c0.8,0,1.5,0.1,2.2,0.3c0.7,0.2,1.3,0.5,1.9,0.9s1,0.9,1.4,1.5
		c0.4,0.6,0.6,1.3,0.6,2.2H169.8z"/>
	<path class="st1" d="M173.8,339.4h2.3v-4.1h3v4.1h2.7v2.2h-2.7v7.3c0,0.3,0,0.6,0,0.8c0,0.2,0.1,0.4,0.2,0.6
		c0.1,0.2,0.2,0.3,0.4,0.4s0.5,0.1,0.8,0.1c0.2,0,0.4,0,0.6,0c0.2,0,0.4,0,0.6-0.1v2.3c-0.3,0-0.7,0.1-1,0.1c-0.3,0-0.6,0.1-1,0.1
		c-0.8,0-1.4-0.1-1.9-0.2c-0.5-0.1-0.9-0.4-1.1-0.7c-0.3-0.3-0.5-0.7-0.6-1.1c-0.1-0.4-0.2-0.9-0.2-1.5v-8h-2.3V339.4z"/>
	<path class="st1" d="M204.4,340.2c-0.1-0.5-0.3-1-0.6-1.5c-0.2-0.5-0.6-0.8-0.9-1.2s-0.8-0.6-1.4-0.8c-0.5-0.2-1.1-0.3-1.8-0.3
		c-1,0-1.9,0.2-2.6,0.6s-1.3,0.9-1.8,1.6c-0.5,0.7-0.8,1.4-1,2.3c-0.2,0.9-0.3,1.7-0.3,2.6c0,0.9,0.1,1.8,0.3,2.6
		c0.2,0.9,0.6,1.6,1,2.3c0.5,0.7,1,1.2,1.8,1.6s1.6,0.6,2.6,0.6c0.7,0,1.4-0.1,1.9-0.4s1-0.6,1.4-1.1c0.4-0.4,0.7-1,0.9-1.6
		c0.2-0.6,0.4-1.2,0.4-1.9h3.2c-0.1,1.1-0.3,2.1-0.7,3.1c-0.4,0.9-1,1.7-1.7,2.4s-1.5,1.2-2.5,1.6s-2,0.6-3.1,0.6
		c-1.4,0-2.7-0.3-3.8-0.8c-1.1-0.5-2.1-1.2-2.8-2.1c-0.8-0.9-1.4-1.9-1.8-3.1c-0.4-1.2-0.6-2.5-0.6-3.8c0-1.3,0.2-2.6,0.6-3.8
		c0.4-1.2,1-2.2,1.8-3.1c0.8-0.9,1.7-1.6,2.8-2.1c1.1-0.5,2.4-0.8,3.8-0.8c1.1,0,2,0.1,3,0.4c0.9,0.3,1.7,0.7,2.5,1.3
		c0.7,0.6,1.3,1.2,1.7,2c0.4,0.8,0.7,1.7,0.8,2.7H204.4z"/>
	<path class="st1" d="M221.6,350c0,0.4,0,0.6,0.1,0.8c0.1,0.2,0.3,0.2,0.6,0.2c0.1,0,0.2,0,0.3,0c0.1,0,0.3,0,0.4-0.1v2.1
		c-0.1,0-0.2,0.1-0.4,0.1c-0.2,0-0.3,0.1-0.5,0.1c-0.2,0-0.4,0.1-0.5,0.1c-0.2,0-0.3,0-0.4,0c-0.6,0-1.1-0.1-1.5-0.4
		s-0.7-0.7-0.8-1.3c-0.6,0.6-1.3,1-2.2,1.3c-0.9,0.3-1.7,0.4-2.5,0.4c-0.6,0-1.2-0.1-1.8-0.2c-0.6-0.2-1.1-0.4-1.5-0.7
		c-0.4-0.3-0.8-0.7-1-1.2c-0.3-0.5-0.4-1.1-0.4-1.7c0-0.8,0.2-1.5,0.5-2.1c0.3-0.5,0.7-0.9,1.2-1.2c0.5-0.3,1.1-0.5,1.7-0.6
		c0.6-0.1,1.2-0.2,1.9-0.3c0.5-0.1,1.1-0.2,1.6-0.2c0.5,0,0.9-0.1,1.3-0.2c0.4-0.1,0.7-0.3,0.9-0.5c0.2-0.2,0.3-0.5,0.3-1
		c0-0.4-0.1-0.7-0.3-0.9c-0.2-0.2-0.4-0.4-0.7-0.6c-0.3-0.1-0.6-0.2-0.9-0.3c-0.3,0-0.6-0.1-0.9-0.1c-0.8,0-1.5,0.2-2.1,0.5
		c-0.5,0.4-0.9,0.9-0.9,1.6h-3c0.1-0.9,0.3-1.6,0.6-2.2s0.8-1,1.4-1.4s1.2-0.6,1.9-0.7s1.5-0.2,2.2-0.2c0.7,0,1.3,0.1,2,0.2
		s1.2,0.4,1.7,0.7c0.5,0.3,0.9,0.7,1.2,1.2s0.5,1.1,0.5,1.8V350z M218.6,346.2c-0.5,0.3-1,0.5-1.7,0.5s-1.3,0.2-2,0.3
		c-0.3,0.1-0.6,0.1-0.9,0.2c-0.3,0.1-0.6,0.2-0.8,0.4c-0.2,0.2-0.4,0.4-0.5,0.7c-0.1,0.3-0.2,0.6-0.2,1c0,0.3,0.1,0.6,0.3,0.8
		c0.2,0.2,0.4,0.4,0.7,0.5s0.6,0.2,0.9,0.3c0.3,0.1,0.6,0.1,0.9,0.1c0.3,0,0.7,0,1.1-0.1s0.7-0.2,1.1-0.4c0.3-0.2,0.6-0.5,0.9-0.8
		c0.2-0.3,0.3-0.7,0.3-1.2V346.2z"/>
	<path class="st1" d="M223.5,339.4h2.3v-4.1h3v4.1h2.7v2.2h-2.7v7.3c0,0.3,0,0.6,0,0.8c0,0.2,0.1,0.4,0.2,0.6
		c0.1,0.2,0.2,0.3,0.4,0.4s0.5,0.1,0.8,0.1c0.2,0,0.4,0,0.6,0c0.2,0,0.4,0,0.6-0.1v2.3c-0.3,0-0.7,0.1-1,0.1s-0.6,0.1-1,0.1
		c-0.8,0-1.4-0.1-1.9-0.2c-0.5-0.1-0.9-0.4-1.1-0.7c-0.3-0.3-0.5-0.7-0.6-1.1c-0.1-0.4-0.2-0.9-0.2-1.5v-8h-2.3V339.4z"/>
	<path class="st1" d="M236,347c0,0.5,0.1,1,0.2,1.5c0.1,0.5,0.4,0.9,0.7,1.3c0.3,0.4,0.7,0.7,1.1,0.9c0.5,0.2,1,0.3,1.6,0.3
		c0.9,0,1.6-0.2,2.1-0.6c0.5-0.4,0.9-0.9,1.2-1.7h2.8c-0.2,0.7-0.4,1.4-0.8,2c-0.4,0.6-0.9,1.1-1.4,1.5c-0.5,0.4-1.2,0.7-1.8,0.9
		s-1.4,0.3-2.1,0.3c-1.1,0-2-0.2-2.8-0.5c-0.8-0.3-1.5-0.8-2.1-1.5c-0.6-0.6-1-1.4-1.3-2.3s-0.4-1.8-0.4-2.9c0-1,0.2-1.9,0.5-2.7
		c0.3-0.9,0.7-1.6,1.3-2.3s1.3-1.2,2.1-1.6c0.8-0.4,1.7-0.6,2.7-0.6c1.1,0,2,0.2,2.9,0.7s1.6,1,2.1,1.8c0.6,0.7,1,1.6,1.2,2.5
		c0.3,1,0.3,1.9,0.2,3H236z M243,345c0-0.5-0.1-0.9-0.3-1.4c-0.2-0.4-0.4-0.8-0.7-1.1c-0.3-0.3-0.6-0.6-1.1-0.8
		c-0.4-0.2-0.9-0.3-1.4-0.3c-0.5,0-1,0.1-1.4,0.3c-0.4,0.2-0.8,0.4-1.1,0.8s-0.6,0.7-0.7,1.1c-0.2,0.4-0.3,0.9-0.3,1.4H243z"/>
	<path class="st1" d="M248.2,339.4h2.8v2.6h0.1c0.1-0.4,0.3-0.7,0.5-1.1c0.3-0.4,0.6-0.7,0.9-1s0.8-0.5,1.2-0.7
		c0.4-0.2,0.9-0.3,1.3-0.3c0.4,0,0.6,0,0.7,0c0.1,0,0.3,0,0.4,0.1v2.9c-0.2,0-0.4-0.1-0.6-0.1c-0.2,0-0.4,0-0.6,0
		c-0.5,0-1,0.1-1.4,0.3c-0.4,0.2-0.8,0.5-1.2,0.9s-0.6,0.9-0.8,1.5c-0.2,0.6-0.3,1.2-0.3,2v6.5h-3V339.4z"/>
	<path class="st1" d="M270.1,352.3c0,2.1-0.6,3.6-1.7,4.6c-1.1,1-2.8,1.5-5,1.5c-0.7,0-1.4-0.1-2.1-0.2c-0.7-0.1-1.3-0.4-1.9-0.7
		c-0.6-0.3-1-0.8-1.4-1.3c-0.4-0.5-0.6-1.2-0.7-2h3c0.1,0.4,0.2,0.8,0.4,1c0.2,0.3,0.5,0.5,0.7,0.6c0.3,0.1,0.6,0.2,1,0.3
		s0.7,0.1,1.1,0.1c1.2,0,2.1-0.3,2.7-0.9c0.6-0.6,0.8-1.5,0.8-2.6v-2.1H267c-0.4,0.8-1,1.3-1.7,1.8c-0.7,0.4-1.5,0.6-2.4,0.6
		c-1.1,0-2-0.2-2.8-0.6s-1.4-0.9-1.9-1.6c-0.5-0.7-0.9-1.4-1.1-2.3c-0.2-0.9-0.3-1.8-0.3-2.8c0-0.9,0.1-1.8,0.4-2.6s0.7-1.5,1.2-2.2
		c0.5-0.6,1.2-1.1,1.9-1.5s1.6-0.6,2.6-0.6c0.9,0,1.6,0.2,2.4,0.5c0.7,0.4,1.3,0.9,1.7,1.7h0.1v-1.9h3V352.3z M263.4,350.6
		c0.7,0,1.2-0.1,1.7-0.4c0.5-0.3,0.8-0.6,1.1-1.1s0.5-1,0.6-1.5c0.1-0.6,0.2-1.1,0.2-1.7c0-0.6-0.1-1.1-0.2-1.7
		c-0.1-0.5-0.4-1-0.6-1.4s-0.7-0.8-1.1-1s-1-0.4-1.7-0.4c-0.7,0-1.2,0.1-1.7,0.4s-0.8,0.6-1.1,1.1s-0.5,1-0.6,1.5
		c-0.1,0.6-0.2,1.1-0.2,1.7c0,0.6,0.1,1.1,0.2,1.6c0.1,0.5,0.4,1,0.6,1.4c0.3,0.4,0.7,0.8,1.1,1
		C262.2,350.5,262.8,350.6,263.4,350.6z"/>
	<path class="st1" d="M279.3,353.4c-1.1,0-2.1-0.2-2.9-0.5s-1.6-0.9-2.2-1.5c-0.6-0.6-1-1.4-1.3-2.3c-0.3-0.9-0.5-1.8-0.5-2.9
		c0-1,0.2-2,0.5-2.9c0.3-0.9,0.8-1.6,1.3-2.3c0.6-0.6,1.3-1.1,2.2-1.5c0.9-0.4,1.8-0.5,2.9-0.5c1.1,0,2.1,0.2,2.9,0.5
		c0.9,0.4,1.6,0.9,2.2,1.5c0.6,0.6,1,1.4,1.3,2.3c0.3,0.9,0.5,1.8,0.5,2.9c0,1.1-0.2,2-0.5,2.9s-0.8,1.6-1.3,2.3
		c-0.6,0.6-1.3,1.1-2.2,1.5S280.4,353.4,279.3,353.4z M279.3,351c0.7,0,1.2-0.1,1.7-0.4c0.5-0.3,0.9-0.6,1.2-1.1
		c0.3-0.5,0.5-1,0.7-1.5c0.1-0.6,0.2-1.2,0.2-1.7c0-0.6-0.1-1.2-0.2-1.7c-0.1-0.6-0.4-1.1-0.7-1.5c-0.3-0.4-0.7-0.8-1.2-1.1
		c-0.5-0.3-1.1-0.4-1.7-0.4c-0.7,0-1.2,0.1-1.7,0.4c-0.5,0.3-0.9,0.6-1.2,1.1s-0.5,1-0.7,1.5c-0.1,0.6-0.2,1.2-0.2,1.7
		c0,0.6,0.1,1.2,0.2,1.7c0.1,0.6,0.4,1.1,0.7,1.5s0.7,0.8,1.2,1.1C278.1,350.9,278.7,351,279.3,351z"/>
	<path class="st1" d="M288.7,339.4h2.8v2.6h0.1c0.1-0.4,0.3-0.7,0.5-1.1c0.3-0.4,0.6-0.7,0.9-1s0.8-0.5,1.2-0.7
		c0.4-0.2,0.9-0.3,1.3-0.3c0.4,0,0.6,0,0.7,0c0.1,0,0.3,0,0.4,0.1v2.9c-0.2,0-0.4-0.1-0.6-0.1c-0.2,0-0.4,0-0.6,0
		c-0.5,0-1,0.1-1.4,0.3c-0.4,0.2-0.8,0.5-1.2,0.9s-0.6,0.9-0.8,1.5c-0.2,0.6-0.3,1.2-0.3,2v6.5h-3V339.4z"/>
	<path class="st1" d="M298,334.2h3v2.8h-3V334.2z M298,339.4h3V353h-3V339.4z"/>
	<path class="st1" d="M306.6,347c0,0.5,0.1,1,0.2,1.5c0.1,0.5,0.4,0.9,0.7,1.3c0.3,0.4,0.7,0.7,1.1,0.9c0.5,0.2,1,0.3,1.6,0.3
		c0.9,0,1.6-0.2,2.1-0.6c0.5-0.4,0.9-0.9,1.2-1.7h2.8c-0.2,0.7-0.4,1.4-0.8,2c-0.4,0.6-0.9,1.1-1.4,1.5c-0.5,0.4-1.2,0.7-1.8,0.9
		s-1.4,0.3-2.1,0.3c-1.1,0-2-0.2-2.8-0.5c-0.8-0.3-1.5-0.8-2.1-1.5c-0.6-0.6-1-1.4-1.3-2.3s-0.4-1.8-0.4-2.9c0-1,0.2-1.9,0.5-2.7
		c0.3-0.9,0.7-1.6,1.3-2.3s1.3-1.2,2.1-1.6c0.8-0.4,1.7-0.6,2.7-0.6c1.1,0,2,0.2,2.9,0.7s1.6,1,2.1,1.8c0.6,0.7,1,1.6,1.2,2.5
		c0.3,1,0.3,1.9,0.2,3H306.6z M313.6,345c0-0.5-0.1-0.9-0.3-1.4c-0.2-0.4-0.4-0.8-0.7-1.1c-0.3-0.3-0.6-0.6-1.1-0.8
		c-0.4-0.2-0.9-0.3-1.4-0.3c-0.5,0-1,0.1-1.4,0.3c-0.4,0.2-0.8,0.4-1.1,0.8s-0.6,0.7-0.7,1.1c-0.2,0.4-0.3,0.9-0.3,1.4H313.6z"/>
	<path class="st1" d="M321.2,348.6c0.1,0.9,0.4,1.5,1,1.8c0.6,0.4,1.3,0.5,2.1,0.5c0.3,0,0.6,0,1-0.1c0.4,0,0.7-0.1,1-0.2
		c0.3-0.1,0.6-0.3,0.8-0.5c0.2-0.2,0.3-0.5,0.3-0.9c0-0.4-0.2-0.7-0.4-0.9c-0.3-0.2-0.6-0.4-1-0.6c-0.4-0.1-0.9-0.3-1.4-0.4
		c-0.5-0.1-1.1-0.2-1.6-0.3c-0.6-0.1-1.1-0.3-1.6-0.4c-0.5-0.2-1-0.4-1.4-0.7c-0.4-0.3-0.7-0.7-1-1.1c-0.2-0.5-0.4-1-0.4-1.7
		c0-0.7,0.2-1.4,0.5-1.9c0.4-0.5,0.8-0.9,1.4-1.2c0.6-0.3,1.2-0.5,1.8-0.6s1.3-0.2,1.9-0.2c0.7,0,1.4,0.1,2,0.2
		c0.6,0.1,1.2,0.4,1.7,0.7c0.5,0.3,0.9,0.8,1.3,1.3c0.3,0.5,0.6,1.2,0.6,1.9h-3.1c-0.1-0.7-0.5-1.2-1-1.4c-0.5-0.2-1.1-0.4-1.8-0.4
		c-0.2,0-0.5,0-0.8,0.1c-0.3,0-0.6,0.1-0.8,0.2c-0.3,0.1-0.5,0.2-0.6,0.4c-0.2,0.2-0.3,0.4-0.3,0.7c0,0.4,0.1,0.7,0.4,0.9
		c0.3,0.2,0.6,0.4,1,0.6c0.4,0.1,0.9,0.3,1.4,0.4s1.1,0.2,1.6,0.3c0.5,0.1,1.1,0.3,1.6,0.4c0.5,0.2,1,0.4,1.4,0.7
		c0.4,0.3,0.7,0.7,1,1.1s0.4,1,0.4,1.7c0,0.8-0.2,1.5-0.6,2.1c-0.4,0.6-0.8,1-1.4,1.4c-0.6,0.4-1.2,0.6-2,0.8
		c-0.7,0.2-1.4,0.2-2.1,0.2c-0.9,0-1.7-0.1-2.4-0.3c-0.7-0.2-1.4-0.5-1.9-0.9c-0.5-0.4-1-0.9-1.3-1.5s-0.5-1.3-0.5-2.1H321.2z"/>
</g>
</svg>
