<?xml version="1.0" encoding="utf-8"?>
<!-- Generator: Adobe Illustrator 19.1.0, SVG Export Plug-In . SVG Version: 6.00 Build 0)  -->
<svg version="1.1" id="Layer_1" xmlns="http://www.w3.org/2000/svg" xmlns:xlink="http://www.w3.org/1999/xlink" x="0px" y="0px"
	 viewBox="0 0 437.3 411" style="enable-background:new 0 0 437.3 411;" xml:space="preserve">
<style type="text/css">
	.st0{fill:#FBE171;}
	.st1{fill:#496AB2;}
</style>
<g>
	<path class="st0" d="M395.3,394.7H42.1c-6.6,0-12-5.4-12-12V29.5c0-6.6,5.4-12,12-12h353.2c6.6,0,12,5.4,12,12v353.2
		C407.3,389.3,401.9,394.7,395.3,394.7z"/>
</g>
<g>
	<path class="st1" d="M206.6,79.6c3.3,0.5,6.6,0.8,9.9,1.4c24.3,4.8,43.3,17.6,55.6,39c16.6,29,15.6,58.2-1.8,86.8
		c-0.2,0.3-0.3,0.5-0.6,0.9c0.5,0.5,1,1,1.5,1.5c18.4,18.4,36.8,36.8,55.2,55.3c1.4,1.4,2.6,2.9,3.5,4.6c2.8,5,2.2,10.3-1.7,14.5
		c-3.7,4-7.6,7.9-11.6,11.6c-5.5,5.1-12.9,4.5-18.6-1.2c-5.3-5.3-10.6-10.6-15.9-15.9c-13.8-13.8-27.6-27.6-41.4-41.5
		c-1.3-1.3-2.2-1.6-4-0.7c-48.2,22.9-105.3-5.8-115.7-58.1c-8.9-44.5,20.2-88,64.5-96.7c3.6-0.7,7.3-1.1,11-1.6
		C199.8,79.6,203.2,79.6,206.6,79.6z M256.2,161.7c0-30.2-24.6-54.8-54.9-54.7c-30.2,0-54.7,24.5-54.7,54.7
		c0,30.2,24.5,54.8,54.8,54.8C231.7,216.6,256.3,192,256.2,161.7z"/>
</g>
<g>
	<path class="st1" d="M121.9,336.8c-0.8-0.6-1.9-0.9-3.2-0.9c-0.5,0-1,0.1-1.6,0.2c-0.5,0.1-1,0.3-1.4,0.5c-0.4,0.2-0.7,0.6-0.9,1
		s-0.4,0.9-0.4,1.5c0,0.6,0.2,1,0.5,1.4s0.8,0.7,1.4,0.9s1.2,0.4,1.9,0.6c0.7,0.1,1.5,0.3,2.2,0.5c0.7,0.2,1.5,0.4,2.2,0.6
		c0.7,0.2,1.4,0.6,1.9,1c0.6,0.4,1,0.9,1.4,1.5c0.3,0.6,0.5,1.4,0.5,2.3c0,1-0.2,1.9-0.7,2.6c-0.4,0.7-1,1.3-1.7,1.7
		c-0.7,0.4-1.5,0.8-2.4,1s-1.7,0.3-2.6,0.3c-1.1,0-2-0.1-3-0.4s-1.8-0.7-2.5-1.2s-1.3-1.2-1.7-2.1c-0.4-0.8-0.6-1.8-0.6-3h2.4
		c0,0.8,0.2,1.5,0.5,2s0.7,1,1.2,1.4c0.5,0.4,1.1,0.6,1.7,0.8c0.7,0.2,1.3,0.3,2.1,0.3c0.6,0,1.1-0.1,1.7-0.2s1.1-0.3,1.5-0.5
		c0.5-0.3,0.8-0.6,1.1-1c0.3-0.4,0.4-1,0.4-1.7c0-0.6-0.2-1.2-0.5-1.6c-0.3-0.4-0.8-0.7-1.4-1c-0.6-0.3-1.2-0.5-1.9-0.6
		c-0.7-0.2-1.5-0.3-2.2-0.5c-0.7-0.2-1.5-0.4-2.2-0.6c-0.7-0.2-1.4-0.5-1.9-0.9c-0.6-0.4-1-0.8-1.4-1.4c-0.3-0.6-0.5-1.3-0.5-2.1
		c0-0.9,0.2-1.8,0.6-2.5s0.9-1.3,1.5-1.7c0.6-0.4,1.4-0.8,2.2-1c0.8-0.2,1.7-0.3,2.5-0.3c1,0,1.9,0.1,2.7,0.3s1.5,0.6,2.2,1.1
		c0.6,0.5,1.1,1.1,1.5,1.9c0.4,0.7,0.6,1.6,0.6,2.7h-2.4C123.2,338.4,122.8,337.4,121.9,336.8z"/>
	<path class="st1" d="M138.8,352.1c-1,0.8-2.3,1.2-3.8,1.2c-1.1,0-2-0.2-2.8-0.5c-0.8-0.4-1.5-0.8-2-1.5c-0.5-0.6-1-1.4-1.2-2.3
		c-0.3-0.9-0.4-1.8-0.5-2.9c0-1,0.2-2,0.5-2.8c0.3-0.9,0.8-1.6,1.3-2.2c0.6-0.6,1.2-1.1,2-1.5c0.8-0.4,1.6-0.5,2.6-0.5
		c1.2,0,2.2,0.2,3,0.8c0.8,0.5,1.4,1.1,1.9,1.9c0.5,0.8,0.8,1.6,1,2.5c0.2,0.9,0.3,1.8,0.2,2.6h-10.2c0,0.6,0.1,1.2,0.2,1.7
		c0.2,0.5,0.4,1,0.8,1.4s0.8,0.7,1.3,1c0.5,0.2,1.2,0.4,1.9,0.4c0.9,0,1.7-0.2,2.3-0.7c0.6-0.4,1-1.1,1.2-2h2.2
		C140.5,350.2,139.8,351.4,138.8,352.1z M138.3,343.4c-0.2-0.5-0.5-0.9-0.8-1.2s-0.7-0.6-1.2-0.8c-0.5-0.2-1-0.3-1.5-0.3
		c-0.6,0-1.1,0.1-1.6,0.3c-0.5,0.2-0.9,0.5-1.2,0.8c-0.3,0.4-0.6,0.8-0.8,1.2c-0.2,0.5-0.3,1-0.3,1.5h7.8
		C138.6,344.4,138.5,343.9,138.3,343.4z"/>
	<path class="st1" d="M145.7,334.2V353h-2.2v-18.8H145.7z"/>
	<path class="st1" d="M158.8,352.1c-1,0.8-2.3,1.2-3.8,1.2c-1.1,0-2-0.2-2.8-0.5c-0.8-0.4-1.5-0.8-2-1.5c-0.5-0.6-1-1.4-1.2-2.3
		c-0.3-0.9-0.4-1.8-0.5-2.9c0-1,0.2-2,0.5-2.8c0.3-0.9,0.8-1.6,1.3-2.2c0.6-0.6,1.2-1.1,2-1.5c0.8-0.4,1.6-0.5,2.6-0.5
		c1.2,0,2.2,0.2,3,0.8c0.8,0.5,1.4,1.1,1.9,1.9c0.5,0.8,0.8,1.6,1,2.5c0.2,0.9,0.3,1.8,0.2,2.6h-10.2c0,0.6,0.1,1.2,0.2,1.7
		c0.2,0.5,0.4,1,0.8,1.4s0.8,0.7,1.3,1c0.5,0.2,1.2,0.4,1.9,0.4c0.9,0,1.7-0.2,2.3-0.7c0.6-0.4,1-1.1,1.2-2h2.2
		C160.4,350.2,159.8,351.4,158.8,352.1z M158.2,343.4c-0.2-0.5-0.5-0.9-0.8-1.2s-0.7-0.6-1.2-0.8c-0.5-0.2-1-0.3-1.5-0.3
		c-0.6,0-1.1,0.1-1.6,0.3c-0.5,0.2-0.9,0.5-1.2,0.8c-0.3,0.4-0.6,0.8-0.8,1.2c-0.2,0.5-0.3,1-0.3,1.5h7.8
		C158.6,344.4,158.4,343.9,158.2,343.4z"/>
	<path class="st1" d="M171.4,341.8c-0.6-0.5-1.3-0.7-2.3-0.7c-0.8,0-1.5,0.1-2,0.4c-0.5,0.3-1,0.7-1.3,1.2c-0.3,0.5-0.6,1.1-0.7,1.7
		c-0.1,0.6-0.2,1.3-0.2,2c0,0.6,0.1,1.2,0.2,1.8c0.1,0.6,0.4,1.1,0.7,1.6c0.3,0.5,0.7,0.8,1.2,1.1c0.5,0.3,1.1,0.4,1.8,0.4
		c1.1,0,2-0.3,2.6-0.9c0.6-0.6,1-1.4,1.1-2.4h2.3c-0.2,1.7-0.9,3-1.9,3.9c-1,0.9-2.4,1.4-4.1,1.4c-1,0-2-0.2-2.7-0.5
		c-0.8-0.3-1.5-0.8-2-1.4c-0.5-0.6-0.9-1.3-1.2-2.2c-0.3-0.9-0.4-1.8-0.4-2.8c0-1,0.1-2,0.4-2.9c0.3-0.9,0.7-1.7,1.2-2.3
		c0.5-0.7,1.2-1.2,2-1.6c0.8-0.4,1.7-0.6,2.8-0.6c0.8,0,1.5,0.1,2.2,0.3c0.7,0.2,1.3,0.5,1.8,0.9c0.5,0.4,0.9,0.9,1.3,1.5
		c0.3,0.6,0.5,1.3,0.6,2.1h-2.3C172.3,342.9,172,342.2,171.4,341.8z"/>
	<path class="st1" d="M183.2,339.4v2h-2.7v8.4c0,0.3,0,0.5,0.1,0.6s0.1,0.3,0.2,0.4c0.1,0.1,0.3,0.1,0.5,0.2s0.5,0,0.9,0h1v2h-1.7
		c-0.6,0-1.1,0-1.5-0.1s-0.7-0.2-1-0.4c-0.3-0.2-0.4-0.5-0.6-0.9c-0.1-0.4-0.2-0.9-0.2-1.5v-8.7h-2.3v-2h2.3v-4.1h2.2v4.1H183.2z"/>
	<path class="st1" d="M204.7,336.9c-1-0.7-2.1-1-3.4-1c-1.1,0-2.1,0.2-2.9,0.6s-1.5,1-2,1.7c-0.5,0.7-0.9,1.5-1.1,2.4
		c-0.2,0.9-0.4,1.9-0.4,2.8c0,1.1,0.1,2.1,0.4,3c0.2,1,0.6,1.8,1.1,2.5c0.5,0.7,1.2,1.3,2,1.7c0.8,0.4,1.8,0.6,2.9,0.6
		c0.8,0,1.6-0.1,2.2-0.4c0.6-0.3,1.2-0.6,1.7-1.1c0.5-0.5,0.8-1.1,1.1-1.7c0.3-0.7,0.4-1.4,0.5-2.2h2.5c-0.2,2.4-1.1,4.2-2.4,5.5
		c-1.4,1.3-3.3,2-5.7,2c-1.5,0-2.7-0.2-3.8-0.8c-1.1-0.5-2-1.2-2.7-2.1c-0.7-0.9-1.3-1.9-1.6-3.1c-0.4-1.2-0.5-2.5-0.5-3.8
		c0-1.4,0.2-2.7,0.6-3.9s1-2.2,1.7-3.1c0.7-0.9,1.7-1.6,2.8-2.1c1.1-0.5,2.4-0.8,3.8-0.8c1,0,1.9,0.1,2.8,0.4
		c0.9,0.3,1.7,0.6,2.3,1.2c0.7,0.5,1.3,1.1,1.7,1.9c0.5,0.8,0.8,1.6,0.9,2.6h-2.5C206.3,338.5,205.7,337.6,204.7,336.9z"/>
	<path class="st1" d="M224,353c-0.4,0.2-0.9,0.3-1.6,0.3c-0.6,0-1-0.2-1.4-0.5s-0.5-0.9-0.5-1.6c-0.6,0.7-1.3,1.3-2.1,1.6
		c-0.8,0.3-1.7,0.5-2.6,0.5c-0.6,0-1.2-0.1-1.7-0.2c-0.6-0.1-1-0.4-1.4-0.7s-0.7-0.7-1-1.2c-0.2-0.5-0.4-1.1-0.4-1.7
		c0-0.8,0.1-1.4,0.4-1.9c0.3-0.5,0.6-0.9,1-1.2s0.9-0.5,1.5-0.7c0.6-0.2,1.1-0.3,1.7-0.4c0.6-0.1,1.2-0.2,1.7-0.3
		c0.6-0.1,1-0.1,1.5-0.3c0.4-0.1,0.8-0.3,1-0.5c0.2-0.2,0.4-0.5,0.4-1c0-0.5-0.1-0.9-0.3-1.2c-0.2-0.3-0.4-0.5-0.7-0.7
		c-0.3-0.2-0.6-0.3-1-0.3c-0.4-0.1-0.7-0.1-1.1-0.1c-0.9,0-1.7,0.2-2.4,0.5s-1,1-1,2h-2.2c0-0.8,0.2-1.6,0.5-2.1
		c0.3-0.6,0.7-1,1.3-1.4s1.1-0.6,1.8-0.8c0.7-0.2,1.4-0.2,2.2-0.2c0.6,0,1.2,0,1.8,0.1c0.6,0.1,1.2,0.3,1.6,0.5
		c0.5,0.3,0.9,0.7,1.2,1.1c0.3,0.5,0.4,1.1,0.4,1.9v7c0,0.5,0,0.9,0.1,1.2c0.1,0.2,0.3,0.4,0.6,0.4c0.2,0,0.4,0,0.7-0.1V353z
		 M220.4,346c-0.3,0.2-0.6,0.4-1.1,0.5c-0.5,0.1-0.9,0.2-1.4,0.2c-0.5,0.1-1,0.1-1.5,0.2c-0.5,0.1-1,0.2-1.4,0.4
		c-0.4,0.2-0.7,0.4-1,0.7s-0.4,0.8-0.4,1.3c0,0.4,0.1,0.7,0.2,0.9c0.1,0.3,0.3,0.5,0.6,0.6c0.2,0.2,0.5,0.3,0.8,0.3
		c0.3,0.1,0.6,0.1,1,0.1c0.7,0,1.4-0.1,1.9-0.3c0.5-0.2,1-0.5,1.3-0.8c0.3-0.3,0.6-0.6,0.7-1c0.2-0.4,0.2-0.7,0.2-1V346z"/>
	<path class="st1" d="M231.9,339.4v2h-2.7v8.4c0,0.3,0,0.5,0.1,0.6s0.1,0.3,0.2,0.4c0.1,0.1,0.3,0.1,0.5,0.2c0.2,0,0.5,0,0.9,0h1v2
		h-1.7c-0.6,0-1.1,0-1.5-0.1c-0.4-0.1-0.7-0.2-1-0.4c-0.3-0.2-0.4-0.5-0.6-0.9c-0.1-0.4-0.2-0.9-0.2-1.5v-8.7h-2.3v-2h2.3v-4.1h2.2
		v4.1H231.9z"/>
	<path class="st1" d="M244,352.1c-1,0.8-2.3,1.2-3.8,1.2c-1.1,0-2-0.2-2.8-0.5c-0.8-0.4-1.5-0.8-2-1.5c-0.5-0.6-1-1.4-1.2-2.3
		c-0.3-0.9-0.4-1.8-0.5-2.9c0-1,0.2-2,0.5-2.8c0.3-0.9,0.8-1.6,1.3-2.2c0.6-0.6,1.2-1.1,2-1.5s1.6-0.5,2.6-0.5c1.2,0,2.2,0.2,3,0.8
		c0.8,0.5,1.4,1.1,1.9,1.9c0.5,0.8,0.8,1.6,1,2.5c0.2,0.9,0.3,1.8,0.2,2.6H236c0,0.6,0.1,1.2,0.2,1.7c0.2,0.5,0.4,1,0.8,1.4
		s0.8,0.7,1.3,1c0.5,0.2,1.2,0.4,1.9,0.4c0.9,0,1.7-0.2,2.3-0.7c0.6-0.4,1-1.1,1.2-2h2.2C245.7,350.2,245,351.4,244,352.1z
		 M243.5,343.4c-0.2-0.5-0.5-0.9-0.8-1.2s-0.7-0.6-1.2-0.8c-0.5-0.2-1-0.3-1.5-0.3c-0.6,0-1.1,0.1-1.6,0.3c-0.5,0.2-0.9,0.5-1.2,0.8
		s-0.6,0.8-0.8,1.2c-0.2,0.5-0.3,1-0.3,1.5h7.8C243.8,344.4,243.7,343.9,243.5,343.4z"/>
	<path class="st1" d="M250.5,339.4v2.9h0.1c0.5-1.1,1.2-1.9,2-2.4c0.8-0.5,1.8-0.8,3-0.7v2.4c-0.9,0-1.7,0.1-2.3,0.4
		s-1.1,0.6-1.5,1.1c-0.4,0.5-0.7,1-0.8,1.7c-0.2,0.7-0.3,1.5-0.3,2.3v6h-2.2v-13.6H250.5z"/>
	<path class="st1" d="M266.7,356.8c-1,1.1-2.6,1.7-4.8,1.7c-0.6,0-1.3-0.1-1.9-0.2c-0.7-0.1-1.3-0.4-1.8-0.7s-1-0.7-1.3-1.2
		c-0.4-0.5-0.5-1.1-0.6-1.9h2.2c0,0.4,0.1,0.7,0.4,1c0.2,0.3,0.5,0.5,0.9,0.7s0.7,0.3,1.1,0.4c0.4,0.1,0.8,0.1,1.2,0.1
		c0.7,0,1.4-0.1,1.9-0.4c0.5-0.3,0.9-0.6,1.3-1.1c0.3-0.4,0.6-1,0.7-1.6c0.1-0.6,0.2-1.3,0.2-2.1v-0.9h-0.1c-0.4,0.8-1,1.5-1.7,1.9
		s-1.6,0.6-2.5,0.6c-1,0-1.9-0.2-2.7-0.6s-1.4-0.9-1.9-1.5s-0.9-1.3-1.1-2.2c-0.3-0.8-0.4-1.7-0.4-2.6c0-0.8,0.1-1.6,0.3-2.5
		c0.2-0.9,0.6-1.6,1.1-2.3c0.5-0.7,1.1-1.3,1.9-1.7s1.8-0.7,3-0.7c0.9,0,1.6,0.2,2.4,0.6c0.7,0.4,1.3,0.9,1.7,1.7h0v-1.9h2.1v12.4
		C268.2,354.1,267.7,355.7,266.7,356.8z M263.9,350.7c0.5-0.3,0.9-0.7,1.2-1.2s0.5-1.1,0.7-1.7c0.1-0.6,0.2-1.3,0.2-1.9
		c0-0.6-0.1-1.2-0.2-1.8c-0.1-0.6-0.4-1.1-0.7-1.6c-0.3-0.5-0.7-0.8-1.2-1.1c-0.5-0.3-1.1-0.4-1.8-0.4c-0.7,0-1.3,0.1-1.8,0.4
		c-0.5,0.3-0.9,0.6-1.2,1.1c-0.3,0.5-0.6,1-0.7,1.6c-0.1,0.6-0.2,1.2-0.2,1.9c0,0.6,0.1,1.2,0.2,1.8c0.1,0.6,0.3,1.2,0.6,1.7
		c0.3,0.5,0.7,0.9,1.2,1.2c0.5,0.3,1.1,0.5,1.8,0.5S263.3,351,263.9,350.7z"/>
	<path class="st1" d="M271.3,343.4c0.3-0.9,0.7-1.6,1.3-2.3c0.6-0.6,1.3-1.1,2.1-1.5s1.8-0.6,2.8-0.6c1.1,0,2,0.2,2.9,0.6
		s1.5,0.9,2.1,1.5c0.6,0.6,1,1.4,1.3,2.3c0.3,0.9,0.4,1.8,0.4,2.8c0,1-0.1,1.9-0.4,2.8c-0.3,0.9-0.7,1.6-1.3,2.2
		c-0.6,0.6-1.2,1.1-2.1,1.5s-1.8,0.5-2.9,0.5c-1.1,0-2-0.2-2.8-0.5s-1.5-0.9-2.1-1.5c-0.6-0.6-1-1.4-1.3-2.2
		c-0.3-0.9-0.4-1.8-0.4-2.8C270.9,345.2,271,344.3,271.3,343.4z M273.6,348.4c0.2,0.6,0.5,1.2,0.9,1.6c0.4,0.4,0.8,0.8,1.4,1
		c0.5,0.2,1.1,0.3,1.6,0.3c0.6,0,1.1-0.1,1.6-0.3c0.5-0.2,1-0.6,1.4-1s0.7-1,0.9-1.6c0.2-0.6,0.3-1.4,0.3-2.2s-0.1-1.6-0.3-2.2
		c-0.2-0.6-0.5-1.2-0.9-1.6c-0.4-0.4-0.8-0.8-1.4-1c-0.5-0.2-1.1-0.3-1.6-0.3c-0.6,0-1.1,0.1-1.6,0.3c-0.5,0.2-1,0.6-1.4,1
		c-0.4,0.4-0.7,1-0.9,1.6c-0.2,0.6-0.3,1.4-0.3,2.2S273.3,347.8,273.6,348.4z"/>
	<path class="st1" d="M288.7,339.4v2.9h0.1c0.5-1.1,1.2-1.9,2-2.4c0.8-0.5,1.8-0.8,3-0.7v2.4c-0.9,0-1.7,0.1-2.3,0.4
		s-1.1,0.6-1.5,1.1c-0.4,0.5-0.7,1-0.8,1.7c-0.2,0.7-0.3,1.5-0.3,2.3v6h-2.2v-13.6H288.7z"/>
	<path class="st1" d="M295.6,337v-2.7h2.2v2.7H295.6z M297.8,339.4V353h-2.2v-13.6H297.8z"/>
	<path class="st1" d="M310.9,352.1c-1,0.8-2.3,1.2-3.8,1.2c-1.1,0-2-0.2-2.8-0.5c-0.8-0.4-1.5-0.8-2-1.5c-0.5-0.6-1-1.4-1.2-2.3
		c-0.3-0.9-0.4-1.8-0.5-2.9c0-1,0.2-2,0.5-2.8c0.3-0.9,0.8-1.6,1.3-2.2c0.6-0.6,1.2-1.1,2-1.5s1.6-0.5,2.6-0.5c1.2,0,2.2,0.2,3,0.8
		c0.8,0.5,1.4,1.1,1.9,1.9c0.5,0.8,0.8,1.6,1,2.5c0.2,0.9,0.3,1.8,0.2,2.6h-10.2c0,0.6,0.1,1.2,0.2,1.7c0.2,0.5,0.4,1,0.8,1.4
		s0.8,0.7,1.3,1c0.5,0.2,1.2,0.4,1.9,0.4c0.9,0,1.7-0.2,2.3-0.7c0.6-0.4,1-1.1,1.2-2h2.2C312.6,350.2,311.9,351.4,310.9,352.1z
		 M310.4,343.4c-0.2-0.5-0.5-0.9-0.8-1.2s-0.7-0.6-1.2-0.8c-0.5-0.2-1-0.3-1.5-0.3c-0.6,0-1.1,0.1-1.6,0.3c-0.5,0.2-0.9,0.5-1.2,0.8
		s-0.6,0.8-0.8,1.2c-0.2,0.5-0.3,1-0.3,1.5h7.8C310.7,344.4,310.6,343.9,310.4,343.4z"/>
	<path class="st1" d="M317.1,350c0.2,0.3,0.5,0.6,0.8,0.8c0.3,0.2,0.7,0.3,1.2,0.4c0.4,0.1,0.9,0.1,1.3,0.1c0.3,0,0.7,0,1.1-0.1
		c0.4-0.1,0.7-0.1,1.1-0.3c0.3-0.1,0.6-0.3,0.8-0.6c0.2-0.3,0.3-0.6,0.3-1c0-0.6-0.2-1-0.7-1.3s-1-0.5-1.6-0.7
		c-0.7-0.2-1.4-0.4-2.1-0.5c-0.8-0.1-1.5-0.4-2.1-0.6c-0.7-0.3-1.2-0.7-1.6-1.1c-0.4-0.5-0.7-1.2-0.7-2.1c0-0.7,0.2-1.3,0.5-1.8
		c0.3-0.5,0.7-0.9,1.2-1.2c0.5-0.3,1-0.5,1.6-0.7c0.6-0.1,1.2-0.2,1.8-0.2c0.8,0,1.5,0.1,2.1,0.2c0.6,0.1,1.2,0.4,1.7,0.7
		c0.5,0.3,0.9,0.8,1.2,1.3c0.3,0.6,0.5,1.2,0.5,2.1h-2.2c0-0.4-0.1-0.8-0.3-1.1c-0.2-0.3-0.4-0.5-0.7-0.7c-0.3-0.2-0.6-0.3-1-0.4
		s-0.7-0.1-1.1-0.1c-0.3,0-0.7,0-1,0.1c-0.3,0.1-0.7,0.1-0.9,0.3c-0.3,0.1-0.5,0.3-0.7,0.5c-0.2,0.2-0.3,0.5-0.3,0.9
		c0,0.4,0.1,0.7,0.4,1c0.3,0.3,0.6,0.5,1,0.6c0.4,0.2,0.9,0.3,1.4,0.4c0.5,0.1,1.1,0.2,1.6,0.4c0.6,0.1,1.1,0.3,1.6,0.4
		c0.5,0.2,1,0.4,1.4,0.7s0.7,0.7,1,1.1c0.3,0.4,0.4,1,0.4,1.6c0,0.8-0.2,1.5-0.5,2.1c-0.3,0.5-0.8,1-1.3,1.3
		c-0.6,0.3-1.2,0.6-1.9,0.7c-0.7,0.1-1.4,0.2-2.1,0.2c-0.8,0-1.5-0.1-2.2-0.2c-0.7-0.2-1.3-0.4-1.8-0.8c-0.5-0.4-0.9-0.8-1.3-1.4
		c-0.3-0.6-0.5-1.3-0.5-2.1h2.2C316.8,349.2,316.9,349.6,317.1,350z"/>
</g>
</svg>
