<?xml version="1.0" encoding="utf-8"?>
<!-- Generator: Adobe Illustrator 19.1.0, SVG Export Plug-In . SVG Version: 6.00 Build 0)  -->
<svg version="1.1" id="Layer_1" xmlns="http://www.w3.org/2000/svg" xmlns:xlink="http://www.w3.org/1999/xlink" x="0px" y="0px"
	 viewBox="0 0 437.3 411" style="enable-background:new 0 0 437.3 411;" xml:space="preserve">
<style type="text/css">
	.st0{fill:#FBE171;}
	.st1{fill:#496AB2;}
</style>
<g>
	<path class="st0" d="M394.4,394.5H41.2c-6.6,0-12-5.4-12-12V29.3c0-6.6,5.4-12,12-12h353.2c6.6,0,12,5.4,12,12v353.2
		C406.4,389.1,401,394.5,394.4,394.5z"/>
</g>
<g>
	<g>
		<path class="st1" d="M204.9,236.8c2.2,2.1,4.4,4.3,6.7,6.3c0.4,0.4,1.3,0.5,1.9,0.5c10.6,0,21.3,0.1,31.9,0c1,0,2.2-0.7,3-1.4
			c14.4-11.6,28.7-23.3,43.1-34.9c6.1-4.9,15.1-6,21.4-2.3c4.3,2.5,5,7.3,1.5,10.8c-17,16.7-34,33.4-51.2,50
			c-5.4,5.2-12.3,7.8-19.9,7.8c-24.6,0-49.3,0-73.9,0c-1.6,0-2.5,0.4-3.4,1.8c-4.4,6.8-9,13.6-13.4,20.1
			c-14.9-14.9-29.7-29.7-44.7-44.7c0.1-0.1,0.6-0.7,1.2-1.2c12.9-12.7,25.8-25.4,38.7-38.1c13-12.8,32.9-16.2,49.4-8.4
			c5,2.4,10.1,3.4,15.5,3.4c6.6,0,13.2,0,19.8,0c3.7,0,7.1,1,10.2,2.9c8.4,5.2,9.1,16.8,1.3,22.9c-3.4,2.6-7.3,4-11.7,4
			c-9,0-18,0-27,0C205.2,236.4,205.1,236.6,204.9,236.8z"/>
	</g>
	<g>
		<path class="st1" d="M243,92.1c4-3.8,7.7-7.6,11.7-11.1c23.7-20.4,56.3-3.9,62,21.9c2.3,10.6,0.5,20.5-4.9,30
			c-9.5,16.6-22.7,30-37.2,42.2c-8.8,7.4-18.1,14.2-27.3,21.1c-3,2.3-5.1,2.2-8.2,0c-18.7-13-36.2-27.4-51.2-44.6
			c-5.5-6.4-10.3-13.3-14.3-20.7c-13.5-24.9,2.5-55.5,30.6-58.8c9.2-1.1,17.5,1.3,24.7,6.8c4.5,3.4,8.4,7.6,12.5,11.4
			C242,90.9,242.5,91.6,243,92.1z"/>
	</g>
</g>
<g>
	<path class="st1" d="M183.5,340.7c-1-0.7-2.1-1-3.4-1c-1.1,0-2.1,0.2-2.9,0.6c-0.8,0.4-1.5,1-2,1.7c-0.5,0.7-0.9,1.5-1.1,2.4
		c-0.2,0.9-0.4,1.9-0.4,2.8c0,1.1,0.1,2.1,0.4,3c0.2,1,0.6,1.8,1.1,2.5c0.5,0.7,1.2,1.3,2,1.7c0.8,0.4,1.8,0.6,2.9,0.6
		c0.8,0,1.6-0.1,2.2-0.4c0.6-0.3,1.2-0.6,1.7-1.1c0.5-0.5,0.8-1.1,1.1-1.7c0.3-0.7,0.4-1.4,0.5-2.2h2.5c-0.2,2.4-1.1,4.2-2.4,5.5
		c-1.4,1.3-3.3,2-5.7,2c-1.5,0-2.7-0.2-3.8-0.7c-1.1-0.5-2-1.2-2.7-2.1c-0.7-0.9-1.3-1.9-1.6-3.1c-0.4-1.2-0.5-2.5-0.5-3.8
		c0-1.4,0.2-2.7,0.6-3.9c0.4-1.2,1-2.2,1.7-3.1s1.7-1.6,2.8-2.1c1.1-0.5,2.4-0.8,3.8-0.8c1,0,1.9,0.1,2.8,0.4
		c0.9,0.3,1.7,0.6,2.3,1.2c0.7,0.5,1.3,1.1,1.7,1.9c0.5,0.8,0.8,1.6,0.9,2.6h-2.5C185.1,342.4,184.5,341.4,183.5,340.7z"/>
	<path class="st1" d="M193,338.1v7.2h0.1c0.2-0.4,0.4-0.8,0.7-1.1c0.3-0.3,0.7-0.5,1.1-0.7s0.8-0.3,1.2-0.4c0.4-0.1,0.8-0.1,1.2-0.1
		c0.9,0,1.6,0.1,2.2,0.4c0.6,0.2,1.1,0.6,1.4,1c0.4,0.4,0.6,1,0.8,1.6s0.2,1.3,0.2,2v8.9h-2.2v-9.2c0-0.8-0.2-1.5-0.7-2
		s-1.2-0.7-2-0.7c-0.7,0-1.3,0.1-1.8,0.3s-0.9,0.5-1.2,0.9c-0.3,0.4-0.6,0.8-0.7,1.4c-0.2,0.5-0.2,1.1-0.2,1.7v7.7h-2.2v-18.8H193z"
		/>
	<path class="st1" d="M217.4,356.8c-0.4,0.2-0.9,0.3-1.6,0.3c-0.6,0-1-0.2-1.4-0.5s-0.5-0.9-0.5-1.6c-0.6,0.7-1.3,1.3-2.1,1.6
		c-0.8,0.3-1.7,0.5-2.6,0.5c-0.6,0-1.2-0.1-1.7-0.2s-1-0.4-1.4-0.7c-0.4-0.3-0.7-0.7-1-1.2c-0.2-0.5-0.4-1.1-0.4-1.7
		c0-0.8,0.1-1.4,0.4-1.9c0.3-0.5,0.6-0.9,1-1.2c0.4-0.3,0.9-0.5,1.5-0.7s1.1-0.3,1.7-0.4c0.6-0.1,1.2-0.2,1.7-0.3s1-0.1,1.5-0.3
		c0.4-0.1,0.8-0.3,1-0.5s0.4-0.5,0.4-1c0-0.5-0.1-0.9-0.3-1.2c-0.2-0.3-0.4-0.5-0.7-0.7c-0.3-0.2-0.6-0.3-1-0.3s-0.7-0.1-1.1-0.1
		c-0.9,0-1.7,0.2-2.4,0.5s-1,1-1,2h-2.2c0-0.8,0.2-1.6,0.5-2.1s0.7-1,1.3-1.4s1.1-0.6,1.8-0.8s1.4-0.2,2.2-0.2c0.6,0,1.2,0,1.8,0.1
		c0.6,0.1,1.2,0.3,1.6,0.5c0.5,0.3,0.9,0.7,1.2,1.1c0.3,0.5,0.4,1.1,0.4,1.9v7c0,0.5,0,0.9,0.1,1.2c0.1,0.2,0.3,0.4,0.6,0.4
		c0.2,0,0.4,0,0.7-0.1V356.8z M213.8,349.8c-0.3,0.2-0.6,0.4-1.1,0.5c-0.5,0.1-0.9,0.2-1.4,0.2c-0.5,0.1-1,0.1-1.5,0.2
		c-0.5,0.1-1,0.2-1.4,0.4s-0.7,0.4-1,0.7c-0.3,0.3-0.4,0.8-0.4,1.3c0,0.4,0.1,0.7,0.2,0.9c0.1,0.3,0.3,0.5,0.6,0.6
		c0.2,0.2,0.5,0.3,0.8,0.3c0.3,0.1,0.6,0.1,1,0.1c0.7,0,1.4-0.1,1.9-0.3c0.5-0.2,1-0.5,1.3-0.8c0.3-0.3,0.6-0.6,0.7-1s0.2-0.7,0.2-1
		V349.8z"/>
	<path class="st1" d="M221.5,343.3v2.9h0.1c0.5-1.1,1.2-1.9,2-2.4c0.8-0.5,1.8-0.8,3-0.7v2.4c-0.9,0-1.7,0.1-2.3,0.4
		c-0.6,0.2-1.1,0.6-1.5,1.1c-0.4,0.5-0.7,1-0.8,1.7c-0.2,0.7-0.3,1.5-0.3,2.3v6h-2.2v-13.6H221.5z"/>
	<path class="st1" d="M228.4,340.8v-2.7h2.2v2.7H228.4z M230.6,343.3v13.6h-2.2v-13.6H230.6z"/>
	<path class="st1" d="M239.9,343.3v2h-2.7v8.4c0,0.3,0,0.5,0.1,0.6s0.1,0.3,0.2,0.4c0.1,0.1,0.3,0.1,0.5,0.2s0.5,0,0.9,0h1v2h-1.7
		c-0.6,0-1.1,0-1.5-0.1c-0.4-0.1-0.7-0.2-1-0.4c-0.3-0.2-0.4-0.5-0.6-0.9c-0.1-0.4-0.2-0.9-0.2-1.5v-8.7h-2.3v-2h2.3v-4.1h2.2v4.1
		H239.9z"/>
	<path class="st1" d="M247.7,358.7c-0.3,0.7-0.5,1.2-0.8,1.7c-0.3,0.5-0.5,0.8-0.8,1.1c-0.3,0.3-0.6,0.5-1,0.6
		c-0.4,0.1-0.8,0.2-1.3,0.2c-0.3,0-0.5,0-0.8-0.1c-0.3,0-0.5-0.1-0.8-0.2V360c0.2,0.1,0.4,0.2,0.7,0.2c0.3,0.1,0.5,0.1,0.6,0.1
		c0.5,0,0.8-0.1,1.1-0.3c0.3-0.2,0.5-0.5,0.7-0.9l0.9-2.3l-5.4-13.5h2.5l4,11.1h0.1l3.8-11.1h2.4L247.7,358.7z"/>
</g>
</svg>
