<?xml version="1.0" encoding="utf-8"?>
<!-- Generator: Adobe Illustrator 19.1.0, SVG Export Plug-In . SVG Version: 6.00 Build 0)  -->
<svg version="1.1" id="Layer_1" xmlns="http://www.w3.org/2000/svg" xmlns:xlink="http://www.w3.org/1999/xlink" x="0px" y="0px"
	 viewBox="0 0 437.3 411" style="enable-background:new 0 0 437.3 411;" xml:space="preserve">
<style type="text/css">
	.st0{fill:#496AB2;}
	.st1{fill:#FFFFFF;}
</style>
<g>
	<path class="st0" d="M393.9,394.7H40.7c-6.6,0-12-5.4-12-12V29.5c0-6.6,5.4-12,12-12h353.2c6.6,0,12,5.4,12,12v353.2
		C405.9,389.3,400.5,394.7,393.9,394.7z"/>
</g>
<g>
	<g>
		<path class="st1" d="M299.1,73.7c2.2,0.9,4.4,2,5.7,4.1c1.9,3,2.2,6.1,0.6,9.2c-1.6,3.3-4.4,5-8,5.2c-1.6,0.1-3.3,0-4.9,0
			c-0.9,4.7-1.5,9.3-2.7,13.7c-8.6,31.5-26.6,56.2-54.5,73.6c-1.4,0.9-3,1.4-4.3,2.3c-1.4,1.1-2.9,2.3-3.9,3.8
			c-1.6,2.4,0,6.1,3.3,7.8c30.9,16.4,49.7,42.3,59.2,75.5c1.3,4.6,1.9,9.4,2.9,14.4c1.2,0,2.6,0,4.1,0c5.6,0,9.7,4,9.7,9.3
			c0,5.3-4.1,9.3-9.6,9.3c-52.2,0-104.4,0-156.5,0c-5.6,0-9.7-3.9-9.7-9.2c0-5.3,4.1-9.3,9.6-9.4c1.4,0,2.9,0,4.4,0
			c1-9,2.9-17.5,6.2-25.8c9.8-25,25.6-45.3,48.2-60c2.1-1.4,4.4-2.4,6.7-3.6c0.4-0.2,0.9-0.4,1.3-0.7c4.7-3.2,4.6-8.3-0.5-11
			c-29-15.2-47.1-39.4-57.6-69.8c-1.1-3.2-1.8-6.6-2.6-9.9c-0.7-3.3-1.2-6.6-1.8-10.2c-1.2,0-2.5,0-3.8,0c-5.2,0-9.2-3-10-7.6
			c-0.8-4.8,1.7-8.9,6.7-10.7c0.2-0.1,0.3-0.2,0.4-0.3C191.5,73.7,245.3,73.7,299.1,73.7z M161.3,283.6c0.1-0.7,0.3-1.4,0.4-2.1
			c2.4-22.1,11-41.4,25.5-58.2c0.7-0.8,1.1-1,2.2-0.7c2.8,0.7,5.7,1.5,8.5,1.7c10.1,0.8,20-1.1,29.9-2c5.2-0.5,10.4-0.6,15.5-0.6
			c3.7,0,6.7,1.6,9.1,4.6c10.2,12.9,17.4,27.2,20.7,43.3c0.9,4.6,1.6,9.3,2.5,14.1c1.2,0,2.3,0,3.4,0c1.2,0,2.4,0,3.6,0
			c0-0.5,0.1-0.7,0.1-1c-0.1-1.4-0.2-2.8-0.3-4.2c-1.8-22.3-10-41.8-25.6-58.1c-8.1-8.4-16.6-16.3-27.3-21.2
			c-3.8-1.8-5.7-4.6-6.9-8.2c-1.8-5.3,1.3-11.9,6.3-14.4c3.2-1.6,6.4-3.4,9.4-5.4c12.4-8.6,22.6-19.4,30.7-32
			c7.5-11.5,11.2-24.3,12.9-37.8c0.4-3,0.6-6,0.9-9c-43.1,0-85.9,0-129,0c0.6,4.5,1,8.9,1.6,13.3c2.8,19.3,11.5,35.6,24.8,49.7
			c7.9,8.4,16.5,16,27,21c2.8,1.3,4.5,3.3,6,5.7c3.4,5.4,1,14.2-5.5,17c-2.7,1.1-5.2,2.6-7.6,4.3c-23.5,16.6-40.2,37.7-44.6,67
			c-0.7,4.4-1.1,8.7-1.7,13.3C156.6,283.6,158.9,283.6,161.3,283.6z"/>
	</g>
	<g>
		<path class="st1" d="M239.9,163.1c-4.6,3.2-8.9,6.6-13.5,9.3c-3.6,2-5.9,4.7-7.2,8.4c-0.1,0.2-0.1,0.3-0.2,0.5c0,0-0.1,0-0.3,0.1
			c-0.4-0.8-0.7-1.7-1.1-2.5c-1.4-2.7-3.4-4.7-6.1-6.3c-4.9-3-9.5-6.4-14.2-9.7c0-0.3,0.1-0.7,0.1-1c1.1-0.4,2.3-1.1,3.4-1.1
			c4,0,8.1,0.1,12.1,0.4c8.7,0.8,17.4,1.8,26.2,1.3C239.2,162.6,239.3,162.7,239.9,163.1z"/>
	</g>
</g>
<g>
	<path class="st1" d="M152.1,340.2c-0.1-0.5-0.3-1-0.6-1.5c-0.2-0.5-0.6-0.8-0.9-1.2c-0.4-0.3-0.8-0.6-1.4-0.8
		c-0.5-0.2-1.1-0.3-1.8-0.3c-1,0-1.9,0.2-2.6,0.6s-1.3,0.9-1.8,1.6c-0.5,0.7-0.8,1.4-1,2.3c-0.2,0.9-0.3,1.7-0.3,2.6
		c0,0.9,0.1,1.8,0.3,2.6c0.2,0.9,0.6,1.6,1,2.3c0.5,0.7,1,1.2,1.8,1.6s1.6,0.6,2.6,0.6c0.7,0,1.4-0.1,1.9-0.4s1-0.6,1.4-1.1
		c0.4-0.4,0.7-1,0.9-1.6c0.2-0.6,0.4-1.2,0.4-1.9h3.2c-0.1,1.1-0.3,2.1-0.7,3.1c-0.4,0.9-1,1.7-1.7,2.4s-1.5,1.2-2.5,1.6
		s-2,0.6-3.1,0.6c-1.4,0-2.7-0.3-3.8-0.8c-1.1-0.5-2.1-1.2-2.8-2.1c-0.8-0.9-1.4-1.9-1.8-3.1c-0.4-1.2-0.6-2.5-0.6-3.8
		c0-1.3,0.2-2.6,0.6-3.8c0.4-1.2,1-2.2,1.8-3.1c0.8-0.9,1.7-1.6,2.8-2.1c1.1-0.5,2.4-0.8,3.8-0.8c1.1,0,2,0.1,3,0.4
		c0.9,0.3,1.7,0.7,2.5,1.3c0.7,0.6,1.3,1.2,1.7,2c0.4,0.8,0.7,1.7,0.8,2.7H152.1z"/>
	<path class="st1" d="M158.1,334.2h3V353h-3V334.2z"/>
	<path class="st1" d="M170.6,353.4c-1.1,0-2.1-0.2-2.9-0.5c-0.9-0.4-1.6-0.9-2.2-1.5c-0.6-0.6-1-1.4-1.3-2.3s-0.5-1.8-0.5-2.9
		c0-1,0.2-2,0.5-2.9c0.3-0.9,0.8-1.6,1.3-2.3c0.6-0.6,1.3-1.1,2.2-1.5c0.9-0.4,1.8-0.5,2.9-0.5s2.1,0.2,2.9,0.5
		c0.9,0.4,1.6,0.9,2.2,1.5s1,1.4,1.3,2.3c0.3,0.9,0.5,1.8,0.5,2.9c0,1.1-0.2,2-0.5,2.9c-0.3,0.9-0.8,1.6-1.3,2.3
		c-0.6,0.6-1.3,1.1-2.2,1.5C172.6,353.2,171.7,353.4,170.6,353.4z M170.6,351c0.7,0,1.2-0.1,1.7-0.4c0.5-0.3,0.9-0.6,1.2-1.1
		s0.5-1,0.7-1.5c0.1-0.6,0.2-1.2,0.2-1.7c0-0.6-0.1-1.2-0.2-1.7c-0.1-0.6-0.4-1.1-0.7-1.5s-0.7-0.8-1.2-1.1
		c-0.5-0.3-1.1-0.4-1.7-0.4c-0.7,0-1.2,0.1-1.7,0.4c-0.5,0.3-0.9,0.6-1.2,1.1c-0.3,0.4-0.5,1-0.7,1.5c-0.1,0.6-0.2,1.2-0.2,1.7
		c0,0.6,0.1,1.2,0.2,1.7c0.1,0.6,0.4,1.1,0.7,1.5c0.3,0.5,0.7,0.8,1.2,1.1C169.3,350.9,169.9,351,170.6,351z"/>
	<path class="st1" d="M182.2,348.6c0.1,0.9,0.4,1.5,1,1.8c0.6,0.4,1.3,0.5,2.1,0.5c0.3,0,0.6,0,1-0.1c0.4,0,0.7-0.1,1-0.2
		c0.3-0.1,0.6-0.3,0.8-0.5c0.2-0.2,0.3-0.5,0.3-0.9c0-0.4-0.2-0.7-0.4-0.9c-0.3-0.2-0.6-0.4-1-0.6c-0.4-0.1-0.9-0.3-1.4-0.4
		c-0.5-0.1-1.1-0.2-1.6-0.3c-0.6-0.1-1.1-0.3-1.6-0.4c-0.5-0.2-1-0.4-1.4-0.7s-0.7-0.7-1-1.1c-0.2-0.5-0.4-1-0.4-1.7
		c0-0.7,0.2-1.4,0.5-1.9c0.4-0.5,0.8-0.9,1.4-1.2s1.2-0.5,1.8-0.6s1.3-0.2,1.9-0.2c0.7,0,1.4,0.1,2,0.2c0.6,0.1,1.2,0.4,1.7,0.7
		s0.9,0.8,1.3,1.3c0.3,0.5,0.6,1.2,0.6,1.9h-3.1c-0.1-0.7-0.5-1.2-1-1.4s-1.1-0.4-1.8-0.4c-0.2,0-0.5,0-0.7,0.1
		c-0.3,0-0.6,0.1-0.8,0.2c-0.3,0.1-0.5,0.2-0.6,0.4c-0.2,0.2-0.3,0.4-0.3,0.7c0,0.4,0.1,0.7,0.4,0.9c0.3,0.2,0.6,0.4,1,0.6
		c0.4,0.1,0.9,0.3,1.4,0.4s1.1,0.2,1.6,0.3c0.5,0.1,1.1,0.3,1.6,0.4s1,0.4,1.4,0.7c0.4,0.3,0.7,0.7,1,1.1c0.3,0.5,0.4,1,0.4,1.7
		c0,0.8-0.2,1.5-0.6,2.1c-0.4,0.6-0.8,1-1.4,1.4c-0.6,0.4-1.2,0.6-2,0.8c-0.7,0.2-1.4,0.2-2.1,0.2c-0.9,0-1.7-0.1-2.4-0.3
		c-0.7-0.2-1.4-0.5-1.9-0.9c-0.5-0.4-1-0.9-1.3-1.5c-0.3-0.6-0.5-1.3-0.5-2.1H182.2z"/>
	<path class="st1" d="M193.7,334.2h3v2.8h-3V334.2z M193.7,339.4h3V353h-3V339.4z"/>
	<path class="st1" d="M199.9,339.4h2.8v2l0.1,0.1c0.5-0.8,1.1-1.3,1.8-1.8s1.6-0.6,2.4-0.6c1.5,0,2.7,0.4,3.5,1.2
		c0.9,0.8,1.3,1.9,1.3,3.5v9.3h-3v-8.5c0-1.1-0.3-1.8-0.7-2.3c-0.4-0.5-1.1-0.7-2-0.7c-0.5,0-1,0.1-1.4,0.3c-0.4,0.2-0.7,0.4-1,0.8
		c-0.3,0.3-0.5,0.7-0.7,1.1c-0.2,0.4-0.2,0.9-0.2,1.4v8h-3V339.4z"/>
	<path class="st1" d="M227.6,352.3c0,2.1-0.6,3.6-1.7,4.6c-1.1,1-2.8,1.5-5,1.5c-0.7,0-1.4-0.1-2.1-0.2c-0.7-0.1-1.3-0.4-1.9-0.7
		c-0.6-0.3-1-0.8-1.4-1.3c-0.4-0.5-0.6-1.2-0.7-2h3c0.1,0.4,0.2,0.8,0.4,1c0.2,0.3,0.5,0.5,0.7,0.6c0.3,0.1,0.6,0.2,1,0.3
		s0.7,0.1,1.1,0.1c1.2,0,2.1-0.3,2.7-0.9c0.6-0.6,0.8-1.5,0.8-2.6v-2.1h-0.1c-0.4,0.8-1,1.3-1.7,1.8s-1.5,0.6-2.4,0.6
		c-1.1,0-2-0.2-2.8-0.6c-0.8-0.4-1.4-0.9-1.9-1.6c-0.5-0.7-0.9-1.4-1.1-2.3c-0.2-0.9-0.3-1.8-0.3-2.8c0-0.9,0.1-1.8,0.4-2.6
		c0.3-0.8,0.7-1.5,1.2-2.2c0.5-0.6,1.2-1.1,1.9-1.5c0.8-0.4,1.6-0.6,2.6-0.6c0.9,0,1.6,0.2,2.4,0.5c0.7,0.4,1.3,0.9,1.7,1.7h0.1
		v-1.9h3V352.3z M220.9,350.6c0.7,0,1.2-0.1,1.7-0.4c0.5-0.3,0.8-0.6,1.1-1.1c0.3-0.4,0.5-1,0.6-1.5c0.1-0.6,0.2-1.1,0.2-1.7
		c0-0.6-0.1-1.1-0.2-1.7c-0.1-0.5-0.4-1-0.6-1.4c-0.3-0.4-0.7-0.8-1.1-1c-0.5-0.2-1-0.4-1.7-0.4c-0.7,0-1.2,0.1-1.7,0.4
		s-0.8,0.6-1.1,1.1c-0.3,0.4-0.5,1-0.6,1.5c-0.1,0.6-0.2,1.1-0.2,1.7c0,0.6,0.1,1.1,0.2,1.6s0.4,1,0.6,1.4c0.3,0.4,0.7,0.8,1.1,1
		C219.8,350.5,220.3,350.6,220.9,350.6z"/>
	<path class="st1" d="M240.5,346.7c0,0.7,0.1,1.3,0.4,1.8c0.2,0.5,0.6,0.9,1,1.2c0.4,0.3,0.9,0.6,1.5,0.7c0.6,0.1,1.2,0.2,1.9,0.2
		c0.7,0,1.3-0.1,1.8-0.2c0.5-0.2,0.9-0.4,1.2-0.6c0.3-0.3,0.5-0.6,0.7-0.9c0.1-0.3,0.2-0.7,0.2-1c0-0.7-0.2-1.2-0.5-1.6
		c-0.3-0.3-0.7-0.6-1.1-0.7c-0.7-0.2-1.4-0.5-2.3-0.7c-0.9-0.2-2-0.5-3.3-0.9c-0.8-0.2-1.5-0.5-2-0.8c-0.5-0.3-1-0.7-1.3-1.1
		c-0.3-0.4-0.5-0.9-0.7-1.3c-0.1-0.5-0.2-1-0.2-1.4c0-0.9,0.2-1.8,0.6-2.5s0.9-1.3,1.6-1.7c0.6-0.5,1.4-0.8,2.2-1
		c0.8-0.2,1.7-0.3,2.5-0.3c1,0,1.9,0.1,2.8,0.4c0.9,0.3,1.6,0.6,2.3,1.1c0.7,0.5,1.2,1.1,1.6,1.9s0.6,1.6,0.6,2.6h-3.3
		c-0.1-1.2-0.5-2.1-1.2-2.6s-1.7-0.8-2.8-0.8c-0.4,0-0.8,0-1.2,0.1c-0.4,0.1-0.8,0.2-1.1,0.4c-0.3,0.2-0.6,0.4-0.8,0.7
		c-0.2,0.3-0.3,0.7-0.3,1.2c0,0.7,0.2,1.2,0.6,1.6c0.4,0.4,1,0.7,1.6,0.9c0.1,0,0.3,0.1,0.8,0.2s1,0.3,1.6,0.4
		c0.6,0.2,1.2,0.3,1.7,0.5c0.6,0.1,1,0.3,1.2,0.3c0.6,0.2,1.1,0.5,1.6,0.8s0.8,0.7,1.1,1.1c0.3,0.4,0.5,0.9,0.7,1.4
		c0.1,0.5,0.2,1,0.2,1.5c0,1.1-0.2,2-0.6,2.7s-1,1.4-1.7,1.8c-0.7,0.5-1.5,0.8-2.4,1c-0.9,0.2-1.8,0.3-2.7,0.3c-1.1,0-2.1-0.1-3-0.4
		c-0.9-0.3-1.8-0.7-2.5-1.2c-0.7-0.5-1.3-1.2-1.7-2.1c-0.4-0.8-0.6-1.9-0.7-3H240.5z"/>
	<path class="st1" d="M261.2,353.4c-1.1,0-2.1-0.2-2.9-0.5s-1.6-0.9-2.2-1.5c-0.6-0.6-1-1.4-1.3-2.3s-0.5-1.8-0.5-2.9
		c0-1,0.2-2,0.5-2.9c0.3-0.9,0.8-1.6,1.3-2.3s1.3-1.1,2.2-1.5c0.9-0.4,1.8-0.5,2.9-0.5s2.1,0.2,2.9,0.5c0.9,0.4,1.6,0.9,2.2,1.5
		c0.6,0.6,1,1.4,1.3,2.3c0.3,0.9,0.5,1.8,0.5,2.9c0,1.1-0.2,2-0.5,2.9c-0.3,0.9-0.8,1.6-1.3,2.3c-0.6,0.6-1.3,1.1-2.2,1.5
		S262.3,353.4,261.2,353.4z M261.2,351c0.7,0,1.2-0.1,1.7-0.4c0.5-0.3,0.9-0.6,1.2-1.1s0.5-1,0.7-1.5c0.1-0.6,0.2-1.2,0.2-1.7
		c0-0.6-0.1-1.2-0.2-1.7c-0.1-0.6-0.4-1.1-0.7-1.5s-0.7-0.8-1.2-1.1c-0.5-0.3-1.1-0.4-1.7-0.4c-0.7,0-1.2,0.1-1.7,0.4
		c-0.5,0.3-0.9,0.6-1.2,1.1s-0.5,1-0.7,1.5c-0.1,0.6-0.2,1.2-0.2,1.7c0,0.6,0.1,1.2,0.2,1.7c0.1,0.6,0.4,1.1,0.7,1.5
		s0.7,0.8,1.2,1.1C260,350.9,260.5,351,261.2,351z"/>
	<path class="st1" d="M276.8,353.4c-1.1,0-2.1-0.2-2.9-0.5s-1.6-0.9-2.2-1.5c-0.6-0.6-1-1.4-1.3-2.3s-0.5-1.8-0.5-2.9
		c0-1,0.2-2,0.5-2.9c0.3-0.9,0.8-1.6,1.3-2.3s1.3-1.1,2.2-1.5c0.9-0.4,1.8-0.5,2.9-0.5s2.1,0.2,2.9,0.5c0.9,0.4,1.6,0.9,2.2,1.5
		c0.6,0.6,1,1.4,1.3,2.3c0.3,0.9,0.5,1.8,0.5,2.9c0,1.1-0.2,2-0.5,2.9c-0.3,0.9-0.8,1.6-1.3,2.3c-0.6,0.6-1.3,1.1-2.2,1.5
		S277.9,353.4,276.8,353.4z M276.8,351c0.7,0,1.2-0.1,1.7-0.4c0.5-0.3,0.9-0.6,1.2-1.1s0.5-1,0.7-1.5c0.1-0.6,0.2-1.2,0.2-1.7
		c0-0.6-0.1-1.2-0.2-1.7c-0.1-0.6-0.4-1.1-0.7-1.5s-0.7-0.8-1.2-1.1c-0.5-0.3-1.1-0.4-1.7-0.4c-0.7,0-1.2,0.1-1.7,0.4
		c-0.5,0.3-0.9,0.6-1.2,1.1s-0.5,1-0.7,1.5c-0.1,0.6-0.2,1.2-0.2,1.7c0,0.6,0.1,1.2,0.2,1.7c0.1,0.6,0.4,1.1,0.7,1.5
		s0.7,0.8,1.2,1.1C275.6,350.9,276.1,351,276.8,351z"/>
	<path class="st1" d="M286.2,339.4h2.8v2l0.1,0.1c0.5-0.8,1.1-1.3,1.8-1.8s1.6-0.6,2.4-0.6c1.5,0,2.7,0.4,3.5,1.2
		c0.9,0.8,1.3,1.9,1.3,3.5v9.3h-3v-8.5c0-1.1-0.3-1.8-0.7-2.3c-0.4-0.5-1.1-0.7-2-0.7c-0.5,0-1,0.1-1.4,0.3c-0.4,0.2-0.7,0.4-1,0.8
		s-0.5,0.7-0.7,1.1s-0.2,0.9-0.2,1.4v8h-3V339.4z"/>
</g>
</svg>
