<?xml version="1.0" encoding="utf-8"?>
<!-- Generator: Adobe Illustrator 19.1.0, SVG Export Plug-In . SVG Version: 6.00 Build 0)  -->
<svg version="1.1" id="Layer_1" xmlns="http://www.w3.org/2000/svg" xmlns:xlink="http://www.w3.org/1999/xlink" x="0px" y="0px"
	 viewBox="0 0 437.3 411" style="enable-background:new 0 0 437.3 411;" xml:space="preserve">
<style type="text/css">
	.st0{fill:#FBE171;}
	.st1{fill:#496AB2;}
</style>
<g>
	<path class="st0" d="M394.6,394.9H41.5c-6.6,0-12-5.4-12-12V29.8c0-6.6,5.4-12,12-12h353.2c6.6,0,12,5.4,12,12v353.2
		C406.6,389.5,401.2,394.9,394.6,394.9z"/>
</g>
<g>
	<path class="st1" d="M148.9,335.9c-1-0.7-2.1-1-3.4-1c-1.1,0-2.1,0.2-2.9,0.6s-1.5,1-2,1.7c-0.5,0.7-0.9,1.5-1.1,2.4
		c-0.2,0.9-0.4,1.9-0.4,2.8c0,1.1,0.1,2.1,0.4,3c0.2,1,0.6,1.8,1.1,2.5c0.5,0.7,1.2,1.3,2,1.7c0.8,0.4,1.8,0.6,2.9,0.6
		c0.8,0,1.6-0.1,2.2-0.4c0.6-0.3,1.2-0.6,1.7-1.1c0.5-0.5,0.8-1.1,1.1-1.7c0.3-0.7,0.4-1.4,0.5-2.2h2.5c-0.2,2.4-1.1,4.2-2.4,5.5
		s-3.3,2-5.7,2c-1.5,0-2.7-0.2-3.8-0.8c-1.1-0.5-2-1.2-2.7-2.1c-0.7-0.9-1.3-1.9-1.6-3.1s-0.5-2.5-0.5-3.8c0-1.4,0.2-2.7,0.6-3.9
		c0.4-1.2,1-2.2,1.7-3.1c0.7-0.9,1.7-1.6,2.8-2.1c1.1-0.5,2.4-0.8,3.8-0.8c1,0,1.9,0.1,2.8,0.4c0.9,0.3,1.7,0.6,2.3,1.2
		c0.7,0.5,1.3,1.1,1.7,1.9c0.5,0.8,0.8,1.6,0.9,2.6h-2.5C150.5,337.6,149.9,336.6,148.9,335.9z"/>
	<path class="st1" d="M155.9,342.4c0.3-0.9,0.7-1.6,1.3-2.3c0.6-0.6,1.3-1.1,2.1-1.5s1.8-0.6,2.8-0.6c1.1,0,2,0.2,2.9,0.6
		s1.5,0.9,2.1,1.5c0.6,0.6,1,1.4,1.3,2.3c0.3,0.9,0.4,1.8,0.4,2.8c0,1-0.1,1.9-0.4,2.8s-0.7,1.6-1.3,2.2c-0.6,0.6-1.2,1.1-2.1,1.5
		s-1.8,0.5-2.9,0.5c-1.1,0-2-0.2-2.8-0.5s-1.5-0.9-2.1-1.5c-0.6-0.6-1-1.4-1.3-2.2s-0.4-1.8-0.4-2.8
		C155.4,344.2,155.6,343.3,155.9,342.4z M158.1,347.4c0.2,0.6,0.5,1.2,0.9,1.6c0.4,0.4,0.8,0.8,1.4,1c0.5,0.2,1.1,0.3,1.6,0.3
		c0.6,0,1.1-0.1,1.6-0.3c0.5-0.2,1-0.6,1.4-1c0.4-0.4,0.7-1,0.9-1.6c0.2-0.6,0.3-1.4,0.3-2.2c0-0.8-0.1-1.6-0.3-2.2
		c-0.2-0.6-0.5-1.2-0.9-1.6s-0.8-0.8-1.4-1c-0.5-0.2-1.1-0.3-1.6-0.3c-0.6,0-1.1,0.1-1.6,0.3c-0.5,0.2-1,0.6-1.4,1
		c-0.4,0.4-0.7,1-0.9,1.6c-0.2,0.6-0.3,1.4-0.3,2.2C157.8,346.1,157.9,346.8,158.1,347.4z"/>
	<path class="st1" d="M171,342.4c0.3-0.9,0.7-1.6,1.3-2.3c0.6-0.6,1.3-1.1,2.1-1.5s1.8-0.6,2.8-0.6c1.1,0,2,0.2,2.9,0.6
		s1.5,0.9,2.1,1.5c0.6,0.6,1,1.4,1.3,2.3c0.3,0.9,0.4,1.8,0.4,2.8c0,1-0.1,1.9-0.4,2.8s-0.7,1.6-1.3,2.2c-0.6,0.6-1.2,1.1-2.1,1.5
		s-1.8,0.5-2.9,0.5c-1.1,0-2-0.2-2.8-0.5s-1.5-0.9-2.1-1.5c-0.6-0.6-1-1.4-1.3-2.2s-0.4-1.8-0.4-2.8
		C170.5,344.2,170.7,343.3,171,342.4z M173.2,347.4c0.2,0.6,0.5,1.2,0.9,1.6c0.4,0.4,0.8,0.8,1.4,1c0.5,0.2,1.1,0.3,1.6,0.3
		c0.6,0,1.1-0.1,1.6-0.3c0.5-0.2,1-0.6,1.4-1c0.4-0.4,0.7-1,0.9-1.6c0.2-0.6,0.3-1.4,0.3-2.2c0-0.8-0.1-1.6-0.3-2.2
		c-0.2-0.6-0.5-1.2-0.9-1.6s-0.8-0.8-1.4-1c-0.5-0.2-1.1-0.3-1.6-0.3c-0.6,0-1.1,0.1-1.6,0.3c-0.5,0.2-1,0.6-1.4,1
		c-0.4,0.4-0.7,1-0.9,1.6c-0.2,0.6-0.3,1.4-0.3,2.2C172.9,346.1,173,346.8,173.2,347.4z"/>
	<path class="st1" d="M188.7,333.2V352h-2.2v-18.8H188.7z"/>
	<path class="st1" d="M207.7,333.2l7.3,18.8h-2.8l-2.1-5.7h-7.9l-2.1,5.7h-2.6l7.3-18.8H207.7z M209.5,344.3l-3.1-8.8h-0.1l-3.2,8.8
		H209.5z"/>
	<path class="st1" d="M225.7,352v-2.2h-0.1c-0.5,0.8-1.1,1.5-1.8,1.9s-1.6,0.6-2.6,0.6c-0.9,0-1.6-0.1-2.2-0.4
		c-0.6-0.2-1.1-0.6-1.4-1s-0.6-1-0.8-1.6c-0.1-0.6-0.2-1.3-0.2-2v-8.9h2.2v9.2c0,0.8,0.2,1.5,0.7,2c0.5,0.5,1.2,0.7,2,0.7
		c0.7,0,1.3-0.1,1.8-0.3c0.5-0.2,0.9-0.5,1.2-0.9s0.6-0.8,0.8-1.4c0.2-0.5,0.2-1.1,0.2-1.7v-7.7h2.2V352H225.7z"/>
	<path class="st1" d="M239.3,340.8c-0.6-0.5-1.3-0.7-2.3-0.7c-0.8,0-1.5,0.1-2,0.4c-0.5,0.3-1,0.7-1.3,1.2c-0.3,0.5-0.6,1.1-0.7,1.7
		s-0.2,1.3-0.2,2c0,0.6,0.1,1.2,0.2,1.8c0.1,0.6,0.4,1.1,0.7,1.6c0.3,0.5,0.7,0.8,1.2,1.1c0.5,0.3,1.1,0.4,1.8,0.4
		c1.1,0,2-0.3,2.6-0.9c0.6-0.6,1-1.4,1.1-2.4h2.3c-0.2,1.7-0.9,3-1.9,3.9c-1,0.9-2.4,1.4-4.1,1.4c-1,0-2-0.2-2.7-0.5
		c-0.8-0.3-1.5-0.8-2-1.4c-0.5-0.6-0.9-1.3-1.2-2.2c-0.3-0.9-0.4-1.8-0.4-2.8s0.1-2,0.4-2.9c0.3-0.9,0.7-1.7,1.2-2.3
		c0.5-0.7,1.2-1.2,2-1.6c0.8-0.4,1.7-0.6,2.8-0.6c0.8,0,1.5,0.1,2.2,0.3c0.7,0.2,1.3,0.5,1.8,0.9c0.5,0.4,0.9,0.9,1.3,1.5
		c0.3,0.6,0.5,1.3,0.6,2.1h-2.3C240.2,341.9,239.9,341.3,239.3,340.8z"/>
	<path class="st1" d="M251.1,338.4v2h-2.7v8.4c0,0.3,0,0.5,0.1,0.6c0,0.2,0.1,0.3,0.2,0.4c0.1,0.1,0.3,0.1,0.5,0.2
		c0.2,0,0.5,0,0.9,0h1v2h-1.7c-0.6,0-1.1,0-1.5-0.1c-0.4-0.1-0.7-0.2-1-0.4c-0.3-0.2-0.4-0.5-0.6-0.9c-0.1-0.4-0.2-0.9-0.2-1.5v-8.7
		h-2.3v-2h2.3v-4.1h2.2v4.1H251.1z"/>
	<path class="st1" d="M253.7,336v-2.7h2.2v2.7H253.7z M255.9,338.4V352h-2.2v-13.6H255.9z"/>
	<path class="st1" d="M259.1,342.4c0.3-0.9,0.7-1.6,1.3-2.3c0.6-0.6,1.3-1.1,2.1-1.5s1.8-0.6,2.8-0.6c1.1,0,2,0.2,2.9,0.6
		s1.5,0.9,2.1,1.5c0.6,0.6,1,1.4,1.3,2.3c0.3,0.9,0.4,1.8,0.4,2.8c0,1-0.1,1.9-0.4,2.8s-0.7,1.6-1.3,2.2c-0.6,0.6-1.2,1.1-2.1,1.5
		s-1.8,0.5-2.9,0.5c-1.1,0-2-0.2-2.8-0.5s-1.5-0.9-2.1-1.5c-0.6-0.6-1-1.4-1.3-2.2s-0.4-1.8-0.4-2.8
		C258.7,344.2,258.8,343.3,259.1,342.4z M261.4,347.4c0.2,0.6,0.5,1.2,0.9,1.6c0.4,0.4,0.8,0.8,1.4,1c0.5,0.2,1.1,0.3,1.6,0.3
		c0.6,0,1.1-0.1,1.6-0.3c0.5-0.2,1-0.6,1.4-1c0.4-0.4,0.7-1,0.9-1.6c0.2-0.6,0.3-1.4,0.3-2.2c0-0.8-0.1-1.6-0.3-2.2
		c-0.2-0.6-0.5-1.2-0.9-1.6s-0.8-0.8-1.4-1c-0.5-0.2-1.1-0.3-1.6-0.3c-0.6,0-1.1,0.1-1.6,0.3c-0.5,0.2-1,0.6-1.4,1
		c-0.4,0.4-0.7,1-0.9,1.6c-0.2,0.6-0.3,1.4-0.3,2.2C261,346.1,261.2,346.8,261.4,347.4z"/>
	<path class="st1" d="M276.6,338.4v2.2h0.1c0.9-1.6,2.4-2.5,4.4-2.5c0.9,0,1.6,0.1,2.2,0.4c0.6,0.2,1.1,0.6,1.4,1
		c0.4,0.4,0.6,1,0.8,1.6c0.1,0.6,0.2,1.3,0.2,2v8.9h-2.2v-9.2c0-0.8-0.2-1.5-0.7-2c-0.5-0.5-1.2-0.7-2-0.7c-0.7,0-1.3,0.1-1.8,0.3
		c-0.5,0.2-0.9,0.5-1.2,0.9c-0.3,0.4-0.6,0.8-0.7,1.4c-0.2,0.5-0.2,1.1-0.2,1.7v7.7h-2.2v-13.6H276.6z"/>
	<path class="st1" d="M290.8,349c0.2,0.3,0.5,0.6,0.8,0.8c0.3,0.2,0.7,0.3,1.2,0.4c0.4,0.1,0.9,0.1,1.3,0.1c0.3,0,0.7,0,1.1-0.1
		c0.4-0.1,0.7-0.1,1.1-0.3c0.3-0.1,0.6-0.3,0.8-0.6c0.2-0.3,0.3-0.6,0.3-1c0-0.6-0.2-1-0.7-1.3c-0.4-0.3-1-0.5-1.6-0.7
		c-0.7-0.2-1.4-0.4-2.1-0.5c-0.8-0.1-1.5-0.4-2.1-0.6c-0.7-0.3-1.2-0.7-1.6-1.1s-0.7-1.2-0.7-2.1c0-0.7,0.2-1.3,0.5-1.8
		c0.3-0.5,0.7-0.9,1.2-1.2c0.5-0.3,1-0.5,1.6-0.7c0.6-0.1,1.2-0.2,1.8-0.2c0.8,0,1.5,0.1,2.1,0.2s1.2,0.4,1.7,0.7s0.9,0.8,1.2,1.3
		c0.3,0.6,0.5,1.2,0.5,2.1H297c0-0.4-0.1-0.8-0.3-1.1c-0.2-0.3-0.4-0.5-0.7-0.7c-0.3-0.2-0.6-0.3-1-0.4s-0.7-0.1-1.1-0.1
		c-0.3,0-0.7,0-1,0.1s-0.7,0.1-0.9,0.3c-0.3,0.1-0.5,0.3-0.7,0.5c-0.2,0.2-0.3,0.5-0.3,0.9c0,0.4,0.1,0.7,0.4,1
		c0.3,0.3,0.6,0.5,1,0.6c0.4,0.2,0.9,0.3,1.4,0.4c0.5,0.1,1.1,0.2,1.6,0.4c0.6,0.1,1.1,0.3,1.6,0.4c0.5,0.2,1,0.4,1.4,0.7
		c0.4,0.3,0.7,0.7,1,1.1c0.3,0.4,0.4,1,0.4,1.6c0,0.8-0.2,1.5-0.5,2.1c-0.3,0.5-0.8,1-1.3,1.3c-0.6,0.3-1.2,0.6-1.9,0.7
		c-0.7,0.1-1.4,0.2-2.1,0.2c-0.8,0-1.5-0.1-2.2-0.2c-0.7-0.2-1.3-0.4-1.8-0.8c-0.5-0.4-0.9-0.8-1.3-1.4c-0.3-0.6-0.5-1.3-0.5-2.1
		h2.2C290.5,348.2,290.6,348.6,290.8,349z"/>
</g>
<g>
	<g>
		<path class="st1" d="M91.9,260c0-2.1,0-4.1,0-6.2c0.1-0.9,0.2-1.8,0.3-2.7c0.9-5.6,1.7-11.2,2.8-16.8
			c4.2-20.7,10.5-40.8,19.2-60.2c0.3-0.6,0.3-0.9-0.1-1.5c-0.6-0.9-1.1-1.8-1.4-2.7c-4.4-11.6-3.4-22.7,3.2-33.2
			c3.4-5.4,8.2-9.2,14.4-10.8c4.9-1.3,9.8-0.8,14.6,0.4c0.7,0.2,1.1,0,1.5-0.5c10.3-12.5,22.5-23,36.5-31.3
			c17.8-10.6,37-16.4,57.8-16.5c8.6-0.1,17.2,0.6,25.8,2c10.4,1.8,20.4,4.7,29.9,9.5c14.9,7.5,26.2,18.6,33.4,33.7
			c4.9,10.4,7.4,21.4,8.3,32.8c0.1,1.8,0.3,3.5,0.4,5.3c0,3.1,0,6.2,0,9.2c-0.1,1.3-0.3,2.5-0.4,3.8c-1,11.5-4.2,22.4-9.9,32.5
			c-7.1,12.5-16.3,22.9-30.1,28.4c-3.2,1.3-5.4,3.7-6.2,7.2c-0.3,1.5-0.4,3.1-0.4,4.6c0.3,5.5,0.8,11,1.1,16.5
			c0.1,2.8,1.3,4.9,3.5,6.5c0.7,0.5,1.3,1.1,2,1.7c4.5,4.1,7.9,9,9.4,15c0.4,1.5,0.4,3,0.5,4.6c0,0.3-0.2,0.8-0.4,0.8
			c-0.2,0.1-0.6-0.1-0.9-0.3c-0.5-0.4-0.9-0.9-1.2-1.4c-0.9-1.1-1.7-2.3-2.6-3.4c-2.9-3.6-6.3-6.5-10.7-8.1c-2.7-1-5.6-1.3-8.5-1.4
			c-2-0.1-3.7,0.3-5.2,1.5c-1,0.8-1.9,1.7-2.8,2.7c-2.1,2.1-4.1,4.3-6.2,6.4c-0.6,0.6-1.3,1.1-2,1.6c-1.2,0.8-2.4,1.4-3.5,2.3
			c-2.6,2.1-4.9,4.5-6.7,7.4c-0.5,0.8-1.1,1.4-1.6,2.1c-0.1,0-0.2-0.1-0.3-0.1c-0.1-0.3-0.3-0.6-0.3-0.9c0-1.6-0.1-3.2,0.1-4.8
			c0.4-3.6,2.2-6.5,4.4-9.2c2.6-3.3,5.3-6.6,8-9.9c0.1-0.2,0.3-0.4,0.5-0.7c-1.8,0.4-3.4,0.9-5.1,1.2c-6.1,1.2-11.9,3-17.2,6.3
			c-0.4,0.3-0.9,0.5-1.3,0.6c-0.3,0.1-0.6,0-0.8-0.1c-0.1-0.1,0-0.5,0.1-0.7c0.1-0.3,0.2-0.6,0.4-0.8c1.7-2.6,3.5-5.1,6.1-6.7
			c2.6-1.7,5.4-3.2,8.3-4.4c5.5-2.4,11.5-3.3,17.4-4.1c1.2-0.2,2.1-0.6,2.8-1.6c0.6-0.9,1.3-1.8,1.5-2.9c0.5-1.8,0.8-3.6,0.9-5.4
			c0.2-4.6,0.2-9.2,0.1-13.8c0-2.2-0.8-4.2-2.9-5.6c-5.7-3.8-9.7-9-12.6-15.1c-0.2-0.3-0.3-0.6-0.5-1c-4.5,2.5-9.3,4.3-14.2,5.6
			c-1.4,0.4-2.2,1.2-2.6,2.4c-0.2,0.5-0.4,1-0.5,1.6c-1.6,7.8-1.7,15.6-0.9,23.5c0.3,2.8,0.6,5.6,0.9,8.4c0.2,1.8-0.4,3-2,3.7
			c-0.4,0.2-0.7,0.4-1.1,0.6c-3.3,1.6-6,3.8-8.2,6.7c-1.1,1.5-2.3,2.8-3.5,4.1c-2.5,2.7-4.7,5.5-6.1,8.9c-0.2,0.4-0.5,0.8-0.8,1.2
			c-0.1,0-0.3-0.1-0.4-0.1c-0.6-2.5-0.4-5.1,0.1-7.7c0.5-2.6,1.3-5.1,1.9-7.5c-2.5,1-5.1,2.1-7.7,3.2c-4.4,1.9-9,3.3-13.9,3.4
			c-3.4,0.1-6.6,0.8-9.8,2.2c-1.5,0.7-3.1,1.3-4.6,2c-0.4,0.2-0.9,0.2-1.3,0.3c-0.1-0.1-0.1-0.2-0.2-0.3c0.2-0.4,0.4-0.9,0.7-1.3
			c1.3-1.3,2.4-2.6,3.9-3.6c4.3-2.9,9-5.2,13.9-6.7c4-1.3,7.7-3.1,11.4-5.1c0.2-0.1,0.4-0.3,0.7-0.5c-0.9-0.5-1.6-1-2.4-1.3
			c-2.4-1-4.9-1.3-7.4-1.3c-2.8,0-5.5,0.3-8.3,0.5c-0.6,0-1.2,0-1.8,0c0-0.1-0.1-0.2-0.1-0.4c0.3-0.3,0.5-0.8,0.8-1
			c1.5-0.9,2.9-2.1,4.6-2.6c2.7-0.7,5.5-1.2,8.3-1.2c5-0.1,10.1,0,15.1,0.1c1.9,0,3.4-0.7,4.1-2.3c0.8-1.6,1.5-3.4,1.7-5.1
			c0.6-6.2,0.9-12.4,1.6-18.6c0.3-2.7-0.5-4.1-2.9-5.4c-6.3-3.5-10.7-8.8-13.3-15.6c-1.8-4.7-2.7-9.6-2.7-14.5c0-2.4-0.6-4.4-2-6.3
			c-0.2-0.3-0.4-0.6-0.6-0.9c-4.6-6.9-11-10.4-19.3-10.6c-4.2-0.1-8.2,0.8-12.1,2.2c-6.2,2.2-12.4,3.4-19,2.8
			c-5.3-0.5-10.5-1.7-15.5-3.4c-4.6-1.6-8.8-1-12.9,1.4c-3.3,1.9-6.2,4.4-8.8,7.2c-7.6,8-13.4,17.3-18.5,27
			c-6,11.4-9.7,23.5-12.3,36c-0.7,3.3-1.6,6.5-2.5,9.7c-0.1,0.5-0.7,0.9-1,1.3c-0.4-0.5-0.9-0.9-1.1-1.5
			C92.1,261.7,92.1,260.8,91.9,260z"/>
	</g>
	<g>
		<path d="M160.3,162.4c-0.2-1.9-0.5-3.8-1-5.7c-0.3-1.3-1.4-2.1-2.9-2.1c-0.5,0-1-0.1-1.5-0.2c-8.3-0.7-16.6-1.3-24.9-1.2
			c-0.2,0-0.4,0-0.5,0c-3.8-0.1-7.6-0.3-11.4-0.3c-1.7,0-3.3,0.4-5,0.4c-9-0.1-18,0.4-27,1.3c-2.1,0.2-3.1,0.9-3.4,3.1
			c-0.4,2.6-0.5,5.3-0.7,8c-0.1,1.8,0.6,3.3,1.7,4.6c1.5,1.7,3.4,2.8,5.4,3.5c3.9,1.5,5.6,1.9,12,1.6s7.9-0.8,12-4.4
			c3.7-3.9,3.3-8.7,3.8-13.4h8.5c-0.9,10.2,3.9,13.4,3.9,13.4s5.8,3.8,8.8,4.1c3,0.3,7.6,0.5,11.4-0.3c3.4-0.7,6.7-1.8,9.1-4.5
			c1.1-1.1,1.9-2.4,1.9-4.1C160.4,165.1,160.5,163.7,160.3,162.4z"/>
	</g>
</g>
</svg>
