<?xml version="1.0" encoding="utf-8"?>
<!-- Generator: Adobe Illustrator 19.1.0, SVG Export Plug-In . SVG Version: 6.00 Build 0)  -->
<svg version="1.1" id="Layer_1" xmlns="http://www.w3.org/2000/svg" xmlns:xlink="http://www.w3.org/1999/xlink" x="0px" y="0px"
	 viewBox="0 0 437.3 411" style="enable-background:new 0 0 437.3 411;" xml:space="preserve">
<style type="text/css">
	.st0{fill:#496AB2;}
	.st1{fill:#FFFFFF;}
</style>
<g>
	<path class="st0" d="M394.6,394.7H41.5c-6.6,0-12-5.4-12-12V29.5c0-6.6,5.4-12,12-12h353.2c6.6,0,12,5.4,12,12v353.2
		C406.6,389.3,401.2,394.7,394.6,394.7z"/>
</g>
<g>
	<path class="st1" d="M143.7,148.1c9,0,17.9,0,26.9,0c8.2,0,13.9-4.1,16.4-11.9c5.6-17.1,11.1-34.2,16.7-51.2
		c3.8-11.5,18.6-14.7,26.6-5.7c1.7,1.9,2.9,4.3,3.7,6.7c5.6,16.8,11,33.6,16.5,50.4c2.4,7.5,8.2,11.7,16.1,11.7
		c18.1,0,36.1-0.1,54.2,0c11,0.1,18.4,11,14.8,21.3c-1.2,3.3-3.4,5.8-6.2,7.8c-14.3,10.4-28.5,20.8-42.7,31.2
		c-6.9,5-9,11.8-6.4,19.8c5.5,16.9,11,33.7,16.4,50.6c3.5,10.9-4.9,21.7-16.4,21c-3.5-0.2-6.5-1.8-9.3-3.8
		c-14.1-10.3-28.1-20.5-42.2-30.8c-7.1-5.2-13.6-5.2-20.7,0c-14.2,10.3-28.4,20.7-42.6,31c-7.2,5.2-15.6,4.8-21.5-1.1
		c-4.7-4.6-5.8-10.2-3.8-16.4c4.2-12.9,8.4-25.8,12.6-38.7c1.3-4.1,2.7-8.2,4-12.4c2.5-7.7,0.2-14.5-6.3-19.3
		c-14.4-10.5-28.7-20.9-43.1-31.4c-8.5-6.2-9.3-17.7-1.9-24.9c3-2.9,6.7-4.2,10.8-4.2C125.4,148.1,134.6,148.1,143.7,148.1z"/>
</g>
<g>
	<path class="st1" d="M109.4,334.2h13v2.8h-9.7v4.9h8.5v2.7h-8.5v8.3h-3.3V334.2z"/>
	<path class="st1" d="M126.9,347c0,0.5,0.1,1,0.2,1.5c0.1,0.5,0.4,0.9,0.7,1.3c0.3,0.4,0.7,0.7,1.1,0.9c0.5,0.2,1,0.3,1.6,0.3
		c0.9,0,1.6-0.2,2.1-0.6c0.5-0.4,0.9-0.9,1.2-1.7h2.8c-0.2,0.7-0.4,1.4-0.8,2c-0.4,0.6-0.9,1.1-1.4,1.5c-0.5,0.4-1.2,0.7-1.8,0.9
		s-1.4,0.3-2.1,0.3c-1.1,0-2-0.2-2.8-0.5c-0.8-0.3-1.5-0.8-2.1-1.5c-0.6-0.6-1-1.4-1.3-2.3s-0.4-1.8-0.4-2.9c0-1,0.2-1.9,0.5-2.7
		c0.3-0.9,0.7-1.6,1.3-2.3s1.3-1.2,2.1-1.6c0.8-0.4,1.7-0.6,2.7-0.6c1.1,0,2,0.2,2.9,0.7s1.6,1,2.1,1.8c0.6,0.7,1,1.6,1.2,2.5
		c0.3,1,0.3,1.9,0.2,3H126.9z M133.9,345c0-0.5-0.1-0.9-0.3-1.4c-0.2-0.4-0.4-0.8-0.7-1.1c-0.3-0.3-0.6-0.6-1.1-0.8
		c-0.4-0.2-0.9-0.3-1.4-0.3c-0.5,0-1,0.1-1.4,0.3c-0.4,0.2-0.8,0.4-1.1,0.8s-0.6,0.7-0.7,1.1c-0.2,0.4-0.3,0.9-0.3,1.4H133.9z"/>
	<path class="st1" d="M150.5,350c0,0.4,0,0.6,0.1,0.8c0.1,0.2,0.3,0.2,0.6,0.2c0.1,0,0.2,0,0.3,0c0.1,0,0.3,0,0.4-0.1v2.1
		c-0.1,0-0.2,0.1-0.4,0.1c-0.2,0-0.3,0.1-0.5,0.1c-0.2,0-0.4,0.1-0.5,0.1c-0.2,0-0.3,0-0.4,0c-0.6,0-1.1-0.1-1.5-0.4
		s-0.7-0.7-0.8-1.3c-0.6,0.6-1.3,1-2.2,1.3c-0.9,0.3-1.7,0.4-2.5,0.4c-0.6,0-1.2-0.1-1.8-0.2c-0.6-0.2-1.1-0.4-1.5-0.7
		c-0.4-0.3-0.8-0.7-1-1.2c-0.3-0.5-0.4-1.1-0.4-1.7c0-0.8,0.2-1.5,0.5-2.1c0.3-0.5,0.7-0.9,1.2-1.2c0.5-0.3,1.1-0.5,1.7-0.6
		c0.6-0.1,1.2-0.2,1.9-0.3c0.5-0.1,1.1-0.2,1.6-0.2c0.5,0,0.9-0.1,1.3-0.2c0.4-0.1,0.7-0.3,0.9-0.5c0.2-0.2,0.3-0.5,0.3-1
		c0-0.4-0.1-0.7-0.3-0.9c-0.2-0.2-0.4-0.4-0.7-0.6c-0.3-0.1-0.6-0.2-0.9-0.3c-0.3,0-0.6-0.1-0.9-0.1c-0.8,0-1.5,0.2-2.1,0.5
		c-0.5,0.4-0.9,0.9-0.9,1.6h-3c0.1-0.9,0.3-1.6,0.6-2.2s0.8-1,1.4-1.4s1.2-0.6,1.9-0.7s1.5-0.2,2.2-0.2c0.7,0,1.3,0.1,2,0.2
		s1.2,0.4,1.7,0.7c0.5,0.3,0.9,0.7,1.2,1.2s0.5,1.1,0.5,1.8V350z M147.5,346.2c-0.5,0.3-1,0.5-1.7,0.5s-1.3,0.2-2,0.3
		c-0.3,0.1-0.6,0.1-0.9,0.2c-0.3,0.1-0.6,0.2-0.8,0.4c-0.2,0.2-0.4,0.4-0.5,0.7c-0.1,0.3-0.2,0.6-0.2,1c0,0.3,0.1,0.6,0.3,0.8
		c0.2,0.2,0.4,0.4,0.7,0.5s0.6,0.2,0.9,0.3c0.3,0.1,0.6,0.1,0.9,0.1c0.3,0,0.7,0,1.1-0.1s0.7-0.2,1.1-0.4c0.3-0.2,0.6-0.5,0.9-0.8
		c0.2-0.3,0.3-0.7,0.3-1.2V346.2z"/>
	<path class="st1" d="M152.4,339.4h2.3v-4.1h3v4.1h2.7v2.2h-2.7v7.3c0,0.3,0,0.6,0,0.8c0,0.2,0.1,0.4,0.2,0.6
		c0.1,0.2,0.2,0.3,0.4,0.4s0.5,0.1,0.8,0.1c0.2,0,0.4,0,0.6,0c0.2,0,0.4,0,0.6-0.1v2.3c-0.3,0-0.7,0.1-1,0.1s-0.6,0.1-1,0.1
		c-0.8,0-1.4-0.1-1.9-0.2c-0.5-0.1-0.9-0.4-1.1-0.7c-0.3-0.3-0.5-0.7-0.6-1.1c-0.1-0.4-0.2-0.9-0.2-1.5v-8h-2.3V339.4z"/>
	<path class="st1" d="M174.5,353h-2.9v-1.9h-0.1c-0.4,0.7-0.9,1.2-1.6,1.6c-0.7,0.4-1.5,0.6-2.2,0.6c-1.8,0-3.1-0.4-3.9-1.3
		c-0.8-0.9-1.2-2.2-1.2-4v-8.6h3v8.3c0,1.2,0.2,2,0.7,2.5c0.5,0.5,1.1,0.7,1.9,0.7c0.6,0,1.2-0.1,1.6-0.3c0.4-0.2,0.8-0.5,1-0.8
		s0.5-0.7,0.6-1.2s0.2-0.9,0.2-1.5v-7.9h3V353z"/>
	<path class="st1" d="M177.6,339.4h2.8v2.6h0.1c0.1-0.4,0.3-0.7,0.5-1.1c0.3-0.4,0.6-0.7,0.9-1s0.8-0.5,1.2-0.7
		c0.4-0.2,0.9-0.3,1.3-0.3c0.4,0,0.6,0,0.7,0c0.1,0,0.3,0,0.4,0.1v2.9c-0.2,0-0.4-0.1-0.6-0.1c-0.2,0-0.4,0-0.6,0
		c-0.5,0-1,0.1-1.4,0.3c-0.4,0.2-0.8,0.5-1.2,0.9s-0.6,0.9-0.8,1.5c-0.2,0.6-0.3,1.2-0.3,2v6.5h-3V339.4z"/>
	<path class="st1" d="M188.8,347c0,0.5,0.1,1,0.2,1.5c0.1,0.5,0.4,0.9,0.7,1.3c0.3,0.4,0.7,0.7,1.1,0.9c0.5,0.2,1,0.3,1.6,0.3
		c0.9,0,1.6-0.2,2.1-0.6c0.5-0.4,0.9-0.9,1.2-1.7h2.8c-0.2,0.7-0.4,1.4-0.8,2c-0.4,0.6-0.9,1.1-1.4,1.5c-0.5,0.4-1.2,0.7-1.8,0.9
		s-1.4,0.3-2.1,0.3c-1.1,0-2-0.2-2.8-0.5c-0.8-0.3-1.5-0.8-2.1-1.5c-0.6-0.6-1-1.4-1.3-2.3s-0.4-1.8-0.4-2.9c0-1,0.2-1.9,0.5-2.7
		c0.3-0.9,0.7-1.6,1.3-2.3s1.3-1.2,2.1-1.6c0.8-0.4,1.7-0.6,2.7-0.6c1.1,0,2,0.2,2.9,0.7s1.6,1,2.1,1.8c0.6,0.7,1,1.6,1.2,2.5
		c0.3,1,0.3,1.9,0.2,3H188.8z M195.7,345c0-0.5-0.1-0.9-0.3-1.4c-0.2-0.4-0.4-0.8-0.7-1.1c-0.3-0.3-0.6-0.6-1.1-0.8
		c-0.4-0.2-0.9-0.3-1.4-0.3c-0.5,0-1,0.1-1.4,0.3c-0.4,0.2-0.8,0.4-1.1,0.8s-0.6,0.7-0.7,1.1c-0.2,0.4-0.3,0.9-0.3,1.4H195.7z"/>
	<path class="st1" d="M213.8,353H211v-1.8h-0.1c-0.4,0.8-1,1.4-1.8,1.7s-1.6,0.5-2.4,0.5c-1.1,0-2-0.2-2.8-0.6s-1.5-0.9-2-1.5
		c-0.5-0.6-0.9-1.4-1.2-2.3c-0.3-0.9-0.4-1.8-0.4-2.9c0-1.2,0.2-2.3,0.5-3.2c0.3-0.9,0.8-1.6,1.3-2.2c0.6-0.6,1.2-1,1.9-1.3
		s1.4-0.4,2.2-0.4c0.4,0,0.9,0,1.3,0.1c0.4,0.1,0.9,0.2,1.3,0.4c0.4,0.2,0.8,0.4,1.1,0.7s0.6,0.6,0.9,1h0.1v-6.9h3V353z
		 M203.4,346.3c0,0.6,0.1,1.1,0.2,1.7c0.1,0.6,0.4,1.1,0.7,1.5c0.3,0.4,0.7,0.8,1.2,1.1c0.5,0.3,1,0.4,1.7,0.4
		c0.7,0,1.2-0.1,1.7-0.4c0.5-0.3,0.9-0.6,1.2-1.1s0.5-1,0.7-1.5c0.1-0.6,0.2-1.2,0.2-1.7c0-1.5-0.3-2.7-1-3.5
		c-0.7-0.8-1.6-1.3-2.7-1.3c-0.7,0-1.3,0.1-1.8,0.4s-0.9,0.7-1.2,1.1c-0.3,0.5-0.5,1-0.7,1.6C203.4,345.1,203.4,345.7,203.4,346.3z"
		/>
	<path class="st1" d="M229.9,334.2h3.5l7.2,18.8h-3.5l-1.8-5h-7.5l-1.8,5h-3.4L229.9,334.2z M228.7,345.5h5.7l-2.8-8.1h-0.1
		L228.7,345.5z"/>
	<path class="st1" d="M253.9,353h-2.9v-1.9h-0.1c-0.4,0.7-0.9,1.2-1.6,1.6c-0.7,0.4-1.5,0.6-2.2,0.6c-1.8,0-3.1-0.4-3.9-1.3
		c-0.8-0.9-1.2-2.2-1.2-4v-8.6h3v8.3c0,1.2,0.2,2,0.7,2.5c0.5,0.5,1.1,0.7,1.9,0.7c0.6,0,1.2-0.1,1.6-0.3c0.4-0.2,0.8-0.5,1-0.8
		s0.5-0.7,0.6-1.2s0.2-0.9,0.2-1.5v-7.9h3V353z"/>
	<path class="st1" d="M266.2,344c-0.1-0.8-0.5-1.5-1-1.9c-0.6-0.4-1.2-0.6-2.1-0.6c-0.4,0-0.8,0.1-1.2,0.2c-0.4,0.1-0.8,0.4-1.2,0.7
		s-0.7,0.9-0.9,1.5s-0.4,1.5-0.4,2.5c0,0.6,0.1,1.1,0.2,1.7c0.1,0.6,0.3,1.1,0.6,1.5c0.3,0.4,0.7,0.8,1.1,1.1c0.5,0.3,1,0.4,1.7,0.4
		c0.9,0,1.6-0.3,2.2-0.8c0.6-0.5,0.9-1.3,1.1-2.3h3c-0.3,1.8-1,3.1-2,4.1c-1.1,0.9-2.5,1.4-4.2,1.4c-1.1,0-2-0.2-2.8-0.5
		c-0.8-0.4-1.5-0.9-2.1-1.5c-0.6-0.6-1-1.4-1.3-2.2c-0.3-0.9-0.4-1.8-0.4-2.8c0-1,0.1-2,0.4-2.9c0.3-0.9,0.7-1.7,1.3-2.3
		c0.6-0.7,1.3-1.2,2.1-1.6c0.8-0.4,1.8-0.6,2.9-0.6c0.8,0,1.5,0.1,2.2,0.3c0.7,0.2,1.3,0.5,1.9,0.9c0.6,0.4,1,0.9,1.4,1.5
		s0.6,1.3,0.6,2.2H266.2z"/>
	<path class="st1" d="M270.3,339.4h2.3v-4.1h3v4.1h2.7v2.2h-2.7v7.3c0,0.3,0,0.6,0,0.8c0,0.2,0.1,0.4,0.2,0.6
		c0.1,0.2,0.2,0.3,0.4,0.4s0.5,0.1,0.8,0.1c0.2,0,0.4,0,0.6,0c0.2,0,0.4,0,0.6-0.1v2.3c-0.3,0-0.7,0.1-1,0.1s-0.6,0.1-1,0.1
		c-0.8,0-1.4-0.1-1.9-0.2c-0.5-0.1-0.9-0.4-1.1-0.7c-0.3-0.3-0.5-0.7-0.6-1.1c-0.1-0.4-0.2-0.9-0.2-1.5v-8h-2.3V339.4z"/>
	<path class="st1" d="M280.5,334.2h3v2.8h-3V334.2z M280.5,339.4h3V353h-3V339.4z"/>
	<path class="st1" d="M293,353.4c-1.1,0-2.1-0.2-2.9-0.5s-1.6-0.9-2.2-1.5c-0.6-0.6-1-1.4-1.3-2.3c-0.3-0.9-0.5-1.8-0.5-2.9
		c0-1,0.2-2,0.5-2.9c0.3-0.9,0.8-1.6,1.3-2.3c0.6-0.6,1.3-1.1,2.2-1.5c0.9-0.4,1.8-0.5,2.9-0.5c1.1,0,2.1,0.2,2.9,0.5
		c0.9,0.4,1.6,0.9,2.2,1.5c0.6,0.6,1,1.4,1.3,2.3c0.3,0.9,0.5,1.8,0.5,2.9c0,1.1-0.2,2-0.5,2.9s-0.8,1.6-1.3,2.3
		c-0.6,0.6-1.3,1.1-2.2,1.5S294.1,353.4,293,353.4z M293,351c0.7,0,1.2-0.1,1.7-0.4c0.5-0.3,0.9-0.6,1.2-1.1c0.3-0.5,0.5-1,0.7-1.5
		c0.1-0.6,0.2-1.2,0.2-1.7c0-0.6-0.1-1.2-0.2-1.7c-0.1-0.6-0.4-1.1-0.7-1.5c-0.3-0.4-0.7-0.8-1.2-1.1c-0.5-0.3-1.1-0.4-1.7-0.4
		c-0.7,0-1.2,0.1-1.7,0.4c-0.5,0.3-0.9,0.6-1.2,1.1s-0.5,1-0.7,1.5c-0.1,0.6-0.2,1.2-0.2,1.7c0,0.6,0.1,1.2,0.2,1.7
		c0.1,0.6,0.4,1.1,0.7,1.5s0.7,0.8,1.2,1.1C291.7,350.9,292.3,351,293,351z"/>
	<path class="st1" d="M302.4,339.4h2.8v2l0.1,0.1c0.5-0.8,1.1-1.3,1.8-1.8s1.6-0.6,2.4-0.6c1.5,0,2.7,0.4,3.5,1.2
		c0.9,0.8,1.3,1.9,1.3,3.5v9.3h-3v-8.5c0-1.1-0.3-1.8-0.7-2.3c-0.4-0.5-1.1-0.7-2-0.7c-0.5,0-1,0.1-1.4,0.3c-0.4,0.2-0.7,0.4-1,0.8
		s-0.5,0.7-0.7,1.1c-0.2,0.4-0.2,0.9-0.2,1.4v8h-3V339.4z"/>
	<path class="st1" d="M319.7,348.6c0.1,0.9,0.4,1.5,1,1.8c0.6,0.4,1.3,0.5,2.1,0.5c0.3,0,0.6,0,1-0.1c0.4,0,0.7-0.1,1-0.2
		c0.3-0.1,0.6-0.3,0.8-0.5c0.2-0.2,0.3-0.5,0.3-0.9c0-0.4-0.2-0.7-0.4-0.9c-0.3-0.2-0.6-0.4-1-0.6c-0.4-0.1-0.9-0.3-1.4-0.4
		c-0.5-0.1-1.1-0.2-1.6-0.3c-0.6-0.1-1.1-0.3-1.6-0.4c-0.5-0.2-1-0.4-1.4-0.7c-0.4-0.3-0.7-0.7-1-1.1c-0.2-0.5-0.4-1-0.4-1.7
		c0-0.7,0.2-1.4,0.5-1.9c0.4-0.5,0.8-0.9,1.4-1.2c0.6-0.3,1.2-0.5,1.8-0.6s1.3-0.2,1.9-0.2c0.7,0,1.4,0.1,2,0.2
		c0.6,0.1,1.2,0.4,1.7,0.7c0.5,0.3,0.9,0.8,1.3,1.3c0.3,0.5,0.6,1.2,0.6,1.9h-3.1c-0.1-0.7-0.5-1.2-1-1.4c-0.5-0.2-1.1-0.4-1.8-0.4
		c-0.2,0-0.5,0-0.8,0.1c-0.3,0-0.6,0.1-0.8,0.2c-0.3,0.1-0.5,0.2-0.6,0.4c-0.2,0.2-0.3,0.4-0.3,0.7c0,0.4,0.1,0.7,0.4,0.9
		c0.3,0.2,0.6,0.4,1,0.6c0.4,0.1,0.9,0.3,1.4,0.4s1.1,0.2,1.6,0.3c0.5,0.1,1.1,0.3,1.6,0.4c0.5,0.2,1,0.4,1.4,0.7
		c0.4,0.3,0.7,0.7,1,1.1s0.4,1,0.4,1.7c0,0.8-0.2,1.5-0.6,2.1c-0.4,0.6-0.8,1-1.4,1.4c-0.6,0.4-1.2,0.6-2,0.8
		c-0.7,0.2-1.4,0.2-2.1,0.2c-0.9,0-1.7-0.1-2.4-0.3c-0.7-0.2-1.4-0.5-1.9-0.9c-0.5-0.4-1-0.9-1.3-1.5s-0.5-1.3-0.5-2.1H319.7z"/>
</g>
</svg>
