<?xml version="1.0" encoding="utf-8"?>
<!-- Generator: Adobe Illustrator 19.1.0, SVG Export Plug-In . SVG Version: 6.00 Build 0)  -->
<svg version="1.1" id="Layer_1" xmlns="http://www.w3.org/2000/svg" xmlns:xlink="http://www.w3.org/1999/xlink" x="0px" y="0px"
	 viewBox="0 0 437.3 411" style="enable-background:new 0 0 437.3 411;" xml:space="preserve">
<style type="text/css">
	.st0{fill:#FBE171;}
	.st1{fill:#496AB2;}
</style>
<g>
	<path class="st0" d="M394.6,394.7H41.5c-6.6,0-12-5.4-12-12V29.5c0-6.6,5.4-12,12-12h353.2c6.6,0,12,5.4,12,12v353.2
		C406.6,389.3,401.2,394.7,394.6,394.7z"/>
</g>
<g>
	<path class="st1" d="M143.7,148.1c9,0,17.9,0,26.9,0c8.2,0,13.9-4.1,16.4-11.9c5.6-17.1,11.1-34.2,16.7-51.2
		c3.8-11.5,18.6-14.7,26.6-5.7c1.7,1.9,2.9,4.3,3.7,6.7c5.6,16.8,11,33.6,16.5,50.4c2.4,7.5,8.2,11.7,16.1,11.7
		c18.1,0,36.1-0.1,54.2,0c11,0.1,18.4,11,14.8,21.3c-1.2,3.3-3.4,5.8-6.2,7.8c-14.3,10.4-28.5,20.8-42.7,31.2
		c-6.9,5-9,11.8-6.4,19.8c5.5,16.9,11,33.7,16.4,50.6c3.5,10.9-4.9,21.7-16.4,21c-3.5-0.2-6.5-1.8-9.3-3.8
		c-14.1-10.3-28.1-20.5-42.2-30.8c-7.1-5.2-13.6-5.2-20.7,0c-14.2,10.3-28.4,20.7-42.6,31c-7.2,5.2-15.6,4.8-21.5-1.1
		c-4.7-4.6-5.8-10.2-3.8-16.4c4.2-12.9,8.4-25.8,12.6-38.7c1.3-4.1,2.7-8.2,4-12.4c2.5-7.7,0.2-14.5-6.3-19.3
		c-14.4-10.5-28.7-20.9-43.1-31.4c-8.5-6.2-9.3-17.7-1.9-24.9c3-2.9,6.7-4.2,10.8-4.2C125.4,148.1,134.6,148.1,143.7,148.1z"/>
</g>
<g>
	<path class="st1" d="M125.7,334.2v2.1h-9.8v6h8.6v2.1h-8.6v8.6h-2.5v-18.8H125.7z"/>
	<path class="st1" d="M137.7,352.1c-1,0.8-2.3,1.2-3.8,1.2c-1.1,0-2-0.2-2.8-0.5c-0.8-0.4-1.5-0.8-2-1.5c-0.5-0.6-1-1.4-1.2-2.3
		c-0.3-0.9-0.4-1.8-0.5-2.9c0-1,0.2-2,0.5-2.8c0.3-0.9,0.8-1.6,1.3-2.2c0.6-0.6,1.2-1.1,2-1.5s1.6-0.5,2.6-0.5c1.2,0,2.2,0.2,3,0.8
		c0.8,0.5,1.4,1.1,1.9,1.9c0.5,0.8,0.8,1.6,1,2.5c0.2,0.9,0.3,1.8,0.2,2.6h-10.2c0,0.6,0.1,1.2,0.2,1.7c0.2,0.5,0.4,1,0.8,1.4
		s0.8,0.7,1.3,1c0.5,0.2,1.2,0.4,1.9,0.4c0.9,0,1.7-0.2,2.3-0.7c0.6-0.4,1-1.1,1.2-2h2.2C139.4,350.2,138.7,351.4,137.7,352.1z
		 M137.1,343.4c-0.2-0.5-0.5-0.9-0.8-1.2s-0.7-0.6-1.2-0.8c-0.5-0.2-1-0.3-1.5-0.3c-0.6,0-1.1,0.1-1.6,0.3c-0.5,0.2-0.9,0.5-1.2,0.8
		s-0.6,0.8-0.8,1.2c-0.2,0.5-0.3,1-0.3,1.5h7.8C137.5,344.4,137.3,343.9,137.1,343.4z"/>
	<path class="st1" d="M154.2,353c-0.4,0.2-0.9,0.3-1.6,0.3c-0.6,0-1-0.2-1.4-0.5s-0.5-0.9-0.5-1.6c-0.6,0.7-1.3,1.3-2.1,1.6
		c-0.8,0.3-1.7,0.5-2.6,0.5c-0.6,0-1.2-0.1-1.7-0.2c-0.6-0.1-1-0.4-1.4-0.7s-0.7-0.7-1-1.2c-0.2-0.5-0.4-1.1-0.4-1.7
		c0-0.8,0.1-1.4,0.4-1.9c0.3-0.5,0.6-0.9,1-1.2s0.9-0.5,1.5-0.7c0.6-0.2,1.1-0.3,1.7-0.4c0.6-0.1,1.2-0.2,1.7-0.3
		c0.6-0.1,1-0.1,1.5-0.3c0.4-0.1,0.8-0.3,1-0.5c0.2-0.2,0.4-0.5,0.4-1c0-0.5-0.1-0.9-0.3-1.2c-0.2-0.3-0.4-0.5-0.7-0.7
		c-0.3-0.2-0.6-0.3-1-0.3c-0.4-0.1-0.7-0.1-1.1-0.1c-0.9,0-1.7,0.2-2.4,0.5s-1,1-1,2H142c0-0.8,0.2-1.6,0.5-2.1
		c0.3-0.6,0.7-1,1.3-1.4s1.1-0.6,1.8-0.8c0.7-0.2,1.4-0.2,2.2-0.2c0.6,0,1.2,0,1.8,0.1c0.6,0.1,1.2,0.3,1.6,0.5
		c0.5,0.3,0.9,0.7,1.2,1.1c0.3,0.5,0.4,1.1,0.4,1.9v7c0,0.5,0,0.9,0.1,1.2c0.1,0.2,0.3,0.4,0.6,0.4c0.2,0,0.4,0,0.7-0.1V353z
		 M150.6,346c-0.3,0.2-0.6,0.4-1.1,0.5c-0.5,0.1-0.9,0.2-1.4,0.2c-0.5,0.1-1,0.1-1.5,0.2c-0.5,0.1-1,0.2-1.4,0.4
		c-0.4,0.2-0.7,0.4-1,0.7s-0.4,0.8-0.4,1.3c0,0.4,0.1,0.7,0.2,0.9c0.1,0.3,0.3,0.5,0.6,0.6c0.2,0.2,0.5,0.3,0.8,0.3
		c0.3,0.1,0.6,0.1,1,0.1c0.7,0,1.4-0.1,1.9-0.3c0.5-0.2,1-0.5,1.3-0.8c0.3-0.3,0.6-0.6,0.7-1c0.2-0.4,0.2-0.7,0.2-1V346z"/>
	<path class="st1" d="M162.1,339.4v2h-2.7v8.4c0,0.3,0,0.5,0.1,0.6s0.1,0.3,0.2,0.4c0.1,0.1,0.3,0.1,0.5,0.2c0.2,0,0.5,0,0.9,0h1v2
		h-1.7c-0.6,0-1.1,0-1.5-0.1c-0.4-0.1-0.7-0.2-1-0.4c-0.3-0.2-0.4-0.5-0.6-0.9c-0.1-0.4-0.2-0.9-0.2-1.5v-8.7h-2.3v-2h2.3v-4.1h2.2
		v4.1H162.1z"/>
	<path class="st1" d="M173.7,353v-2.2h-0.1c-0.5,0.8-1.1,1.5-1.8,1.9s-1.6,0.6-2.6,0.6c-0.9,0-1.6-0.1-2.2-0.4
		c-0.6-0.2-1.1-0.6-1.4-1s-0.6-1-0.8-1.6c-0.1-0.6-0.2-1.3-0.2-2v-8.9h2.2v9.2c0,0.8,0.2,1.5,0.7,2c0.5,0.5,1.2,0.7,2,0.7
		c0.7,0,1.3-0.1,1.8-0.3c0.5-0.2,0.9-0.5,1.2-0.9s0.6-0.8,0.8-1.4c0.2-0.5,0.2-1.1,0.2-1.7v-7.7h2.2V353H173.7z"/>
	<path class="st1" d="M181.2,339.4v2.9h0.1c0.5-1.1,1.2-1.9,2-2.4c0.8-0.5,1.8-0.8,3-0.7v2.4c-0.9,0-1.7,0.1-2.3,0.4
		s-1.1,0.6-1.5,1.1c-0.4,0.5-0.7,1-0.8,1.7c-0.2,0.7-0.3,1.5-0.3,2.3v6h-2.2v-13.6H181.2z"/>
	<path class="st1" d="M197.1,352.1c-1,0.8-2.3,1.2-3.8,1.2c-1.1,0-2-0.2-2.8-0.5c-0.8-0.4-1.5-0.8-2-1.5c-0.5-0.6-1-1.4-1.2-2.3
		c-0.3-0.9-0.4-1.8-0.5-2.9c0-1,0.2-2,0.5-2.8c0.3-0.9,0.8-1.6,1.3-2.2c0.6-0.6,1.2-1.1,2-1.5s1.6-0.5,2.6-0.5c1.2,0,2.2,0.2,3,0.8
		c0.8,0.5,1.4,1.1,1.9,1.9c0.5,0.8,0.8,1.6,1,2.5c0.2,0.9,0.3,1.8,0.2,2.6h-10.2c0,0.6,0.1,1.2,0.2,1.7c0.2,0.5,0.4,1,0.8,1.4
		s0.8,0.7,1.3,1c0.5,0.2,1.2,0.4,1.9,0.4c0.9,0,1.7-0.2,2.3-0.7c0.6-0.4,1-1.1,1.2-2h2.2C198.8,350.2,198.1,351.4,197.1,352.1z
		 M196.6,343.4c-0.2-0.5-0.5-0.9-0.8-1.2s-0.7-0.6-1.2-0.8c-0.5-0.2-1-0.3-1.5-0.3c-0.6,0-1.1,0.1-1.6,0.3c-0.5,0.2-0.9,0.5-1.2,0.8
		s-0.6,0.8-0.8,1.2c-0.2,0.5-0.3,1-0.3,1.5h7.8C196.9,344.4,196.8,343.9,196.6,343.4z"/>
	<path class="st1" d="M211.5,353v-1.8h-0.1c-0.4,0.8-0.9,1.3-1.7,1.6c-0.8,0.3-1.7,0.5-2.6,0.5c-1.1,0-2-0.2-2.7-0.6
		c-0.8-0.4-1.4-0.9-1.9-1.6c-0.5-0.6-0.9-1.4-1.2-2.3c-0.3-0.9-0.4-1.8-0.4-2.7s0.1-1.9,0.4-2.7c0.3-0.9,0.6-1.6,1.2-2.2
		c0.5-0.6,1.2-1.1,1.9-1.5s1.7-0.6,2.7-0.6c0.4,0,0.7,0,1.1,0.1s0.8,0.2,1.2,0.4c0.4,0.2,0.8,0.4,1.1,0.7s0.7,0.6,0.9,1h0.1v-7h2.2
		V353H211.5z M203.5,348.2c0.2,0.6,0.4,1.1,0.8,1.6s0.8,0.9,1.3,1.1c0.5,0.3,1.2,0.4,1.9,0.4c0.8,0,1.4-0.1,1.9-0.4
		c0.5-0.3,1-0.7,1.3-1.2c0.3-0.5,0.6-1,0.7-1.6c0.1-0.6,0.2-1.2,0.2-1.9c0-0.7-0.1-1.3-0.2-1.9c-0.2-0.6-0.4-1.2-0.8-1.6
		c-0.3-0.5-0.8-0.9-1.3-1.1c-0.5-0.3-1.2-0.4-2-0.4c-0.8,0-1.4,0.1-1.9,0.4s-0.9,0.7-1.3,1.2c-0.3,0.5-0.5,1.1-0.7,1.7
		c-0.1,0.6-0.2,1.3-0.2,1.9C203.2,347,203.3,347.6,203.5,348.2z"/>
	<path class="st1" d="M232.7,334.2l7.3,18.8h-2.8l-2.1-5.7h-7.9l-2.1,5.7h-2.6l7.3-18.8H232.7z M234.5,345.2l-3.1-8.8h-0.1l-3.2,8.8
		H234.5z"/>
	<path class="st1" d="M250.7,353v-2.2h-0.1c-0.5,0.8-1.1,1.5-1.8,1.9s-1.6,0.6-2.6,0.6c-0.9,0-1.6-0.1-2.2-0.4
		c-0.6-0.2-1.1-0.6-1.4-1s-0.6-1-0.8-1.6c-0.1-0.6-0.2-1.3-0.2-2v-8.9h2.2v9.2c0,0.8,0.2,1.5,0.7,2c0.5,0.5,1.2,0.7,2,0.7
		c0.7,0,1.3-0.1,1.8-0.3c0.5-0.2,0.9-0.5,1.2-0.9s0.6-0.8,0.8-1.4c0.2-0.5,0.2-1.1,0.2-1.7v-7.7h2.2V353H250.7z"/>
	<path class="st1" d="M264.3,341.8c-0.6-0.5-1.3-0.7-2.3-0.7c-0.8,0-1.5,0.1-2,0.4c-0.5,0.3-1,0.7-1.3,1.2c-0.3,0.5-0.6,1.1-0.7,1.7
		c-0.1,0.6-0.2,1.3-0.2,2c0,0.6,0.1,1.2,0.2,1.8c0.1,0.6,0.4,1.1,0.7,1.6c0.3,0.5,0.7,0.8,1.2,1.1c0.5,0.3,1.1,0.4,1.8,0.4
		c1.1,0,2-0.3,2.6-0.9s1-1.4,1.1-2.4h2.3c-0.2,1.7-0.9,3-1.9,3.9c-1,0.9-2.4,1.4-4.1,1.4c-1,0-2-0.2-2.7-0.5c-0.8-0.3-1.5-0.8-2-1.4
		c-0.5-0.6-0.9-1.3-1.2-2.2c-0.3-0.9-0.4-1.8-0.4-2.8c0-1,0.1-2,0.4-2.9c0.3-0.9,0.7-1.7,1.2-2.3c0.5-0.7,1.2-1.2,2-1.6
		c0.8-0.4,1.7-0.6,2.8-0.6c0.8,0,1.5,0.1,2.2,0.3c0.7,0.2,1.3,0.5,1.8,0.9c0.5,0.4,0.9,0.9,1.3,1.5c0.3,0.6,0.5,1.3,0.6,2.1h-2.3
		C265.2,342.9,264.9,342.2,264.3,341.8z"/>
	<path class="st1" d="M276.1,339.4v2h-2.7v8.4c0,0.3,0,0.5,0.1,0.6s0.1,0.3,0.2,0.4c0.1,0.1,0.3,0.1,0.5,0.2c0.2,0,0.5,0,0.9,0h1v2
		h-1.7c-0.6,0-1.1,0-1.5-0.1c-0.4-0.1-0.7-0.2-1-0.4c-0.3-0.2-0.4-0.5-0.6-0.9c-0.1-0.4-0.2-0.9-0.2-1.5v-8.7h-2.3v-2h2.3v-4.1h2.2
		v4.1H276.1z"/>
	<path class="st1" d="M278.7,337v-2.7h2.2v2.7H278.7z M280.9,339.4V353h-2.2v-13.6H280.9z"/>
	<path class="st1" d="M284.1,343.4c0.3-0.9,0.7-1.6,1.3-2.3c0.6-0.6,1.3-1.1,2.1-1.5s1.8-0.6,2.8-0.6c1.1,0,2,0.2,2.9,0.6
		s1.5,0.9,2.1,1.5c0.6,0.6,1,1.4,1.3,2.3c0.3,0.9,0.4,1.8,0.4,2.8c0,1-0.1,1.9-0.4,2.8c-0.3,0.9-0.7,1.6-1.3,2.2
		c-0.6,0.6-1.2,1.1-2.1,1.5s-1.8,0.5-2.9,0.5c-1.1,0-2-0.2-2.8-0.5s-1.5-0.9-2.1-1.5c-0.6-0.6-1-1.4-1.3-2.2
		c-0.3-0.9-0.4-1.8-0.4-2.8C283.7,345.2,283.8,344.3,284.1,343.4z M286.4,348.4c0.2,0.6,0.5,1.2,0.9,1.6c0.4,0.4,0.8,0.8,1.4,1
		c0.5,0.2,1.1,0.3,1.6,0.3c0.6,0,1.1-0.1,1.6-0.3c0.5-0.2,1-0.6,1.4-1s0.7-1,0.9-1.6c0.2-0.6,0.3-1.4,0.3-2.2s-0.1-1.6-0.3-2.2
		c-0.2-0.6-0.5-1.2-0.9-1.6c-0.4-0.4-0.8-0.8-1.4-1c-0.5-0.2-1.1-0.3-1.6-0.3c-0.6,0-1.1,0.1-1.6,0.3c-0.5,0.2-1,0.6-1.4,1
		c-0.4,0.4-0.7,1-0.9,1.6c-0.2,0.6-0.3,1.4-0.3,2.2S286.2,347.8,286.4,348.4z"/>
	<path class="st1" d="M301.6,339.4v2.2h0.1c0.9-1.6,2.4-2.5,4.4-2.5c0.9,0,1.6,0.1,2.2,0.4c0.6,0.2,1.1,0.6,1.4,1
		c0.4,0.4,0.6,1,0.8,1.6c0.1,0.6,0.2,1.3,0.2,2v8.9h-2.2v-9.2c0-0.8-0.2-1.5-0.7-2c-0.5-0.5-1.2-0.7-2-0.7c-0.7,0-1.3,0.1-1.8,0.3
		c-0.5,0.2-0.9,0.5-1.2,0.9c-0.3,0.4-0.6,0.8-0.7,1.4c-0.2,0.5-0.2,1.1-0.2,1.7v7.7h-2.2v-13.6H301.6z"/>
	<path class="st1" d="M315.8,350c0.2,0.3,0.5,0.6,0.8,0.8c0.3,0.2,0.7,0.3,1.2,0.4c0.4,0.1,0.9,0.1,1.3,0.1c0.3,0,0.7,0,1.1-0.1
		c0.4-0.1,0.7-0.1,1.1-0.3c0.3-0.1,0.6-0.3,0.8-0.6c0.2-0.3,0.3-0.6,0.3-1c0-0.6-0.2-1-0.7-1.3s-1-0.5-1.6-0.7
		c-0.7-0.2-1.4-0.4-2.1-0.5c-0.8-0.1-1.5-0.4-2.1-0.6c-0.7-0.3-1.2-0.7-1.6-1.1c-0.4-0.5-0.7-1.2-0.7-2.1c0-0.7,0.2-1.3,0.5-1.8
		c0.3-0.5,0.7-0.9,1.2-1.2c0.5-0.3,1-0.5,1.6-0.7c0.6-0.1,1.2-0.2,1.8-0.2c0.8,0,1.5,0.1,2.1,0.2c0.6,0.1,1.2,0.4,1.7,0.7
		c0.5,0.3,0.9,0.8,1.2,1.3c0.3,0.6,0.5,1.2,0.5,2.1H322c0-0.4-0.1-0.8-0.3-1.1c-0.2-0.3-0.4-0.5-0.7-0.7c-0.3-0.2-0.6-0.3-1-0.4
		s-0.7-0.1-1.1-0.1c-0.3,0-0.7,0-1,0.1c-0.3,0.1-0.7,0.1-0.9,0.3c-0.3,0.1-0.5,0.3-0.7,0.5c-0.2,0.2-0.3,0.5-0.3,0.9
		c0,0.4,0.1,0.7,0.4,1c0.3,0.3,0.6,0.5,1,0.6c0.4,0.2,0.9,0.3,1.4,0.4c0.5,0.1,1.1,0.2,1.6,0.4c0.6,0.1,1.1,0.3,1.6,0.4
		c0.5,0.2,1,0.4,1.4,0.7s0.7,0.7,1,1.1c0.3,0.4,0.4,1,0.4,1.6c0,0.8-0.2,1.5-0.5,2.1c-0.3,0.5-0.8,1-1.3,1.3
		c-0.6,0.3-1.2,0.6-1.9,0.7c-0.7,0.1-1.4,0.2-2.1,0.2c-0.8,0-1.5-0.1-2.2-0.2c-0.7-0.2-1.3-0.4-1.8-0.8c-0.5-0.4-0.9-0.8-1.3-1.4
		c-0.3-0.6-0.5-1.3-0.5-2.1h2.2C315.5,349.2,315.6,349.6,315.8,350z"/>
</g>
</svg>
