<?xml version="1.0" encoding="utf-8"?>
<!-- Generator: Adobe Illustrator 19.1.0, SVG Export Plug-In . SVG Version: 6.00 Build 0)  -->
<svg version="1.1" id="Layer_1" xmlns="http://www.w3.org/2000/svg" xmlns:xlink="http://www.w3.org/1999/xlink" x="0px" y="0px"
	 viewBox="0 0 437.3 411" style="enable-background:new 0 0 437.3 411;" xml:space="preserve">
<style type="text/css">
	.st0{fill:#496AB2;}
	.st1{fill:#FFFFFF;}
</style>
<g>
	<path class="st0" d="M393.9,394.6H40.7c-6.6,0-12-5.4-12-12V29.5c0-6.6,5.4-12,12-12h353.2c6.6,0,12,5.4,12,12v353.2
		C405.9,389.2,400.5,394.6,393.9,394.6z"/>
</g>
<g>
	<path class="st1" d="M318.9,220.3c-0.2,17.3-8.9,36.3-24.2,52.3c-14.1,14.8-31.3,24.4-51.6,27.8c-19.2,3.2-37.5-0.3-54.5-9.7
		c-21.4-11.8-36.8-29-44.3-52.5c-7.1-22.2-3.6-43.4,7.5-63.6c6.5-11.7,15-21.8,23.8-31.8c7.1-8,13.9-16.3,19.4-25.5
		c3.3-5.5,6.2-11.2,7.3-17.6c0.6-3.5,0.5-7-0.8-10.4c-0.9-2.3-1.7-4.7-2.2-7.1c-0.7-3.2,1.3-5.7,4.6-5.5c2.5,0.2,5.1,0.9,7.3,2.1
		c9.1,4.8,16.6,11.6,23.5,19.1c12.8,13.9,19.7,30.6,22.2,49.1c0.9,6.5,1.1,13,1.5,19.6c0.2,3.5,2.4,5.7,5.4,5.4
		c2.5-0.3,3.8-2.2,4-5.2c0.4-7.9,0.7-15.9,1.3-23.8c0.5-5.9,6.4-8.2,11.2-4.5c8.8,6.8,16.2,14.9,22.3,24.2
		C313.1,178.5,318.8,197,318.9,220.3z M226.8,285.1c17.1,0,30.2-8,36.3-21c6.4-13.6,4.9-26.7-4.3-38.5c-7.3-9.3-15.1-18.2-22.8-27.3
		c-3.3-3.8-8.7-3.8-12.1,0c-0.7,0.8-1.3,1.5-2,2.3c-6.3,7.5-12.6,15.1-19,22.5c-10.3,11.9-12.9,25.2-6.8,39.6
		C202.3,277.3,214.1,284.4,226.8,285.1z"/>
</g>
<g>
	<path class="st1" d="M147.9,335.3h3.3v7.5h8.5v-7.5h3.3V354h-3.3v-8.5h-8.5v8.5h-3.3V335.3z"/>
	<path class="st1" d="M172.8,354.4c-1.1,0-2.1-0.2-2.9-0.5c-0.9-0.4-1.6-0.9-2.2-1.5c-0.6-0.6-1-1.4-1.3-2.3s-0.5-1.8-0.5-2.9
		c0-1,0.2-2,0.5-2.9c0.3-0.9,0.8-1.6,1.3-2.3c0.6-0.6,1.3-1.1,2.2-1.5c0.9-0.4,1.8-0.5,2.9-0.5s2.1,0.2,2.9,0.5
		c0.9,0.4,1.6,0.9,2.2,1.5s1,1.4,1.3,2.3c0.3,0.9,0.5,1.8,0.5,2.9c0,1.1-0.2,2-0.5,2.9c-0.3,0.9-0.8,1.6-1.3,2.3
		c-0.6,0.6-1.3,1.1-2.2,1.5C174.8,354.2,173.9,354.4,172.8,354.4z M172.8,352c0.7,0,1.2-0.1,1.7-0.4c0.5-0.3,0.9-0.6,1.2-1.1
		s0.5-1,0.7-1.5c0.1-0.6,0.2-1.2,0.2-1.7c0-0.6-0.1-1.2-0.2-1.7c-0.1-0.6-0.4-1.1-0.7-1.5s-0.7-0.8-1.2-1.1
		c-0.5-0.3-1.1-0.4-1.7-0.4c-0.7,0-1.2,0.1-1.7,0.4c-0.5,0.3-0.9,0.6-1.2,1.1c-0.3,0.4-0.5,1-0.7,1.5c-0.1,0.6-0.2,1.2-0.2,1.7
		c0,0.6,0.1,1.2,0.2,1.7c0.1,0.6,0.4,1.1,0.7,1.5c0.3,0.5,0.7,0.8,1.2,1.1C171.5,351.9,172.1,352,172.8,352z"/>
	<path class="st1" d="M180.8,340.4h2.3v-4.1h3v4.1h2.7v2.2H186v7.3c0,0.3,0,0.6,0,0.8c0,0.2,0.1,0.4,0.2,0.6
		c0.1,0.2,0.2,0.3,0.4,0.4s0.5,0.1,0.8,0.1c0.2,0,0.4,0,0.6,0c0.2,0,0.4,0,0.6-0.1v2.3c-0.3,0-0.7,0.1-1,0.1c-0.3,0-0.6,0.1-1,0.1
		c-0.8,0-1.4-0.1-1.9-0.2c-0.5-0.1-0.9-0.4-1.1-0.7c-0.3-0.3-0.5-0.7-0.6-1.1c-0.1-0.4-0.2-0.9-0.2-1.5v-8h-2.3V340.4z"/>
	<path class="st1" d="M198.6,335.3h3.3v15.9h9.5v2.8h-12.8V335.3z"/>
	<path class="st1" d="M213.4,335.3h3v2.8h-3V335.3z M213.4,340.4h3V354h-3V340.4z"/>
	<path class="st1" d="M221.9,349.7c0.1,0.9,0.4,1.5,1,1.8c0.6,0.4,1.3,0.5,2.1,0.5c0.3,0,0.6,0,1-0.1c0.4,0,0.7-0.1,1-0.2
		c0.3-0.1,0.6-0.3,0.8-0.5c0.2-0.2,0.3-0.5,0.3-0.9c0-0.4-0.2-0.7-0.4-0.9c-0.3-0.2-0.6-0.4-1-0.6c-0.4-0.1-0.9-0.3-1.4-0.4
		c-0.5-0.1-1.1-0.2-1.6-0.3c-0.6-0.1-1.1-0.3-1.6-0.4c-0.5-0.2-1-0.4-1.4-0.7s-0.7-0.7-1-1.1c-0.2-0.5-0.4-1-0.4-1.7
		c0-0.7,0.2-1.4,0.5-1.9c0.4-0.5,0.8-0.9,1.4-1.2c0.6-0.3,1.2-0.5,1.8-0.6s1.3-0.2,1.9-0.2c0.7,0,1.4,0.1,2,0.2
		c0.6,0.1,1.2,0.4,1.7,0.7c0.5,0.3,0.9,0.8,1.3,1.3c0.3,0.5,0.6,1.2,0.6,1.9h-3.1c-0.1-0.7-0.5-1.2-1-1.4c-0.5-0.2-1.1-0.4-1.8-0.4
		c-0.2,0-0.5,0-0.8,0.1s-0.6,0.1-0.8,0.2s-0.5,0.2-0.6,0.4c-0.2,0.2-0.3,0.4-0.3,0.7c0,0.4,0.1,0.7,0.4,0.9c0.3,0.2,0.6,0.4,1,0.6
		c0.4,0.1,0.9,0.3,1.4,0.4c0.5,0.1,1.1,0.2,1.6,0.3c0.5,0.1,1.1,0.3,1.6,0.4c0.5,0.2,1,0.4,1.4,0.7c0.4,0.3,0.7,0.7,1,1.1
		c0.3,0.5,0.4,1,0.4,1.7c0,0.8-0.2,1.5-0.6,2.1c-0.4,0.6-0.8,1-1.4,1.4c-0.6,0.4-1.2,0.6-2,0.8c-0.7,0.2-1.4,0.2-2.1,0.2
		c-0.9,0-1.7-0.1-2.4-0.3c-0.7-0.2-1.4-0.5-1.9-0.9s-1-0.9-1.3-1.5c-0.3-0.6-0.5-1.3-0.5-2.1H221.9z"/>
	<path class="st1" d="M231.9,340.4h2.3v-4.1h3v4.1h2.7v2.2h-2.7v7.3c0,0.3,0,0.6,0,0.8c0,0.2,0.1,0.4,0.2,0.6
		c0.1,0.2,0.2,0.3,0.4,0.4c0.2,0.1,0.5,0.1,0.8,0.1c0.2,0,0.4,0,0.6,0c0.2,0,0.4,0,0.6-0.1v2.3c-0.3,0-0.7,0.1-1,0.1
		c-0.3,0-0.6,0.1-1,0.1c-0.8,0-1.4-0.1-1.9-0.2c-0.5-0.1-0.9-0.4-1.1-0.7c-0.3-0.3-0.5-0.7-0.6-1.1c-0.1-0.4-0.2-0.9-0.2-1.5v-8
		h-2.3V340.4z"/>
	<path class="st1" d="M242.1,335.3h3v2.8h-3V335.3z M242.1,340.4h3V354h-3V340.4z"/>
	<path class="st1" d="M248.4,340.4h2.8v2l0.1,0.1c0.5-0.8,1.1-1.3,1.8-1.8s1.6-0.6,2.4-0.6c1.5,0,2.7,0.4,3.5,1.2
		c0.9,0.8,1.3,1.9,1.3,3.5v9.3h-3v-8.5c0-1.1-0.3-1.8-0.7-2.3c-0.4-0.5-1.1-0.7-2-0.7c-0.5,0-1,0.1-1.4,0.3c-0.4,0.2-0.7,0.4-1,0.8
		s-0.5,0.7-0.7,1.1s-0.2,0.9-0.2,1.4v8h-3V340.4z"/>
	<path class="st1" d="M276.1,353.3c0,2.1-0.6,3.6-1.7,4.6c-1.1,1-2.8,1.5-5,1.5c-0.7,0-1.4-0.1-2.1-0.2c-0.7-0.1-1.3-0.4-1.9-0.7
		c-0.6-0.3-1-0.8-1.4-1.3c-0.4-0.5-0.6-1.2-0.7-2h3c0.1,0.4,0.2,0.8,0.4,1s0.5,0.5,0.7,0.6c0.3,0.1,0.6,0.2,1,0.3s0.7,0.1,1.1,0.1
		c1.2,0,2.1-0.3,2.7-0.9c0.6-0.6,0.8-1.5,0.8-2.6v-2.1H273c-0.4,0.8-1,1.3-1.7,1.8s-1.5,0.6-2.4,0.6c-1.1,0-2-0.2-2.8-0.6
		s-1.4-0.9-1.9-1.6c-0.5-0.7-0.9-1.4-1.1-2.3c-0.2-0.9-0.3-1.8-0.3-2.8c0-0.9,0.1-1.8,0.4-2.6c0.3-0.8,0.7-1.5,1.2-2.2
		c0.5-0.6,1.2-1.1,1.9-1.5c0.8-0.4,1.6-0.6,2.6-0.6c0.9,0,1.6,0.2,2.4,0.5c0.7,0.4,1.3,0.9,1.7,1.7h0.1v-1.9h3V353.3z M269.4,351.7
		c0.7,0,1.2-0.1,1.7-0.4c0.5-0.3,0.8-0.6,1.1-1.1c0.3-0.4,0.5-1,0.6-1.5c0.1-0.6,0.2-1.1,0.2-1.7c0-0.6-0.1-1.1-0.2-1.7
		c-0.1-0.5-0.4-1-0.6-1.4c-0.3-0.4-0.7-0.8-1.1-1c-0.5-0.2-1-0.4-1.7-0.4c-0.7,0-1.2,0.1-1.7,0.4s-0.8,0.6-1.1,1.1s-0.5,1-0.6,1.5
		c-0.1,0.6-0.2,1.1-0.2,1.7c0,0.6,0.1,1.1,0.2,1.6c0.1,0.5,0.4,1,0.6,1.4c0.3,0.4,0.7,0.8,1.1,1
		C268.2,351.5,268.8,351.7,269.4,351.7z"/>
	<path class="st1" d="M281.3,349.7c0.1,0.9,0.4,1.5,1,1.8s1.3,0.5,2.1,0.5c0.3,0,0.6,0,1-0.1c0.4,0,0.7-0.1,1-0.2
		c0.3-0.1,0.6-0.3,0.8-0.5c0.2-0.2,0.3-0.5,0.3-0.9c0-0.4-0.2-0.7-0.4-0.9c-0.3-0.2-0.6-0.4-1-0.6c-0.4-0.1-0.9-0.3-1.4-0.4
		c-0.5-0.1-1.1-0.2-1.6-0.3c-0.6-0.1-1.1-0.3-1.6-0.4c-0.5-0.2-1-0.4-1.4-0.7s-0.7-0.7-1-1.1c-0.2-0.5-0.4-1-0.4-1.7
		c0-0.7,0.2-1.4,0.5-1.9c0.4-0.5,0.8-0.9,1.4-1.2c0.6-0.3,1.2-0.5,1.8-0.6s1.3-0.2,1.9-0.2c0.7,0,1.4,0.1,2,0.2
		c0.6,0.1,1.2,0.4,1.7,0.7c0.5,0.3,0.9,0.8,1.3,1.3c0.3,0.5,0.6,1.2,0.6,1.9h-3.1c-0.1-0.7-0.5-1.2-1-1.4c-0.5-0.2-1.1-0.4-1.8-0.4
		c-0.2,0-0.5,0-0.7,0.1c-0.3,0-0.6,0.1-0.8,0.2c-0.3,0.1-0.5,0.2-0.6,0.4c-0.2,0.2-0.3,0.4-0.3,0.7c0,0.4,0.1,0.7,0.4,0.9
		c0.3,0.2,0.6,0.4,1,0.6c0.4,0.1,0.9,0.3,1.4,0.4c0.5,0.1,1.1,0.2,1.6,0.3c0.5,0.1,1.1,0.3,1.6,0.4c0.5,0.2,1,0.4,1.4,0.7
		s0.7,0.7,1,1.1s0.4,1,0.4,1.7c0,0.8-0.2,1.5-0.6,2.1c-0.4,0.6-0.8,1-1.4,1.4c-0.6,0.4-1.2,0.6-2,0.8c-0.7,0.2-1.4,0.2-2.1,0.2
		c-0.9,0-1.7-0.1-2.4-0.3c-0.7-0.2-1.4-0.5-1.9-0.9c-0.5-0.4-1-0.9-1.3-1.5s-0.5-1.3-0.5-2.1H281.3z"/>
</g>
</svg>
