<?xml version="1.0" encoding="utf-8"?>
<!-- Generator: Adobe Illustrator 19.1.0, SVG Export Plug-In . SVG Version: 6.00 Build 0)  -->
<svg version="1.1" id="Layer_1" xmlns="http://www.w3.org/2000/svg" xmlns:xlink="http://www.w3.org/1999/xlink" x="0px" y="0px"
	 viewBox="0 0 437.3 411" style="enable-background:new 0 0 437.3 411;" xml:space="preserve">
<style type="text/css">
	.st0{fill:#FBE171;}
	.st1{fill:#496AB2;}
</style>
<g>
	<path class="st0" d="M393.9,394.6H40.7c-6.6,0-12-5.4-12-12V29.5c0-6.6,5.4-12,12-12h353.2c6.6,0,12,5.4,12,12v353.2
		C405.9,389.2,400.5,394.6,393.9,394.6z"/>
</g>
<g>
	<path class="st1" d="M318.9,220.3c-0.2,17.3-8.9,36.3-24.2,52.3c-14.1,14.8-31.3,24.4-51.6,27.8c-19.2,3.2-37.5-0.3-54.5-9.7
		c-21.4-11.8-36.8-29-44.3-52.5c-7.1-22.2-3.6-43.4,7.5-63.6c6.5-11.7,15-21.8,23.8-31.8c7.1-8,13.9-16.3,19.4-25.5
		c3.3-5.5,6.2-11.2,7.3-17.6c0.6-3.5,0.5-7-0.8-10.4c-0.9-2.3-1.7-4.7-2.2-7.1c-0.7-3.2,1.3-5.7,4.6-5.5c2.5,0.2,5.1,0.9,7.3,2.1
		c9.1,4.8,16.6,11.6,23.5,19.1c12.8,13.9,19.7,30.6,22.2,49.1c0.9,6.5,1.1,13,1.5,19.6c0.2,3.5,2.4,5.7,5.4,5.4
		c2.5-0.3,3.8-2.2,4-5.2c0.4-7.9,0.7-15.9,1.3-23.8c0.5-5.9,6.4-8.2,11.2-4.5c8.8,6.8,16.2,14.9,22.3,24.2
		C313.1,178.5,318.8,197,318.9,220.3z M226.8,285.1c17.1,0,30.2-8,36.3-21c6.4-13.6,4.9-26.7-4.3-38.5c-7.3-9.3-15.1-18.2-22.8-27.3
		c-3.3-3.8-8.7-3.8-12.1,0c-0.7,0.8-1.3,1.5-2,2.3c-6.3,7.5-12.6,15.1-19,22.5c-10.3,11.9-12.9,25.2-6.8,39.6
		C202.3,277.3,214.1,284.4,226.8,285.1z"/>
</g>
<g>
	<path class="st1" d="M153,335.3v8.1h9.9v-8.1h2.5V354h-2.5v-8.6H153v8.6h-2.5v-18.8H153z"/>
	<path class="st1" d="M168.8,344.4c0.3-0.9,0.7-1.6,1.3-2.3c0.6-0.6,1.3-1.1,2.1-1.5c0.8-0.4,1.8-0.6,2.8-0.6c1.1,0,2,0.2,2.9,0.6
		c0.8,0.4,1.5,0.9,2.1,1.5c0.6,0.6,1,1.4,1.3,2.3c0.3,0.9,0.4,1.8,0.4,2.8c0,1-0.1,1.9-0.4,2.8c-0.3,0.9-0.7,1.6-1.3,2.2
		c-0.6,0.6-1.2,1.1-2.1,1.5c-0.8,0.4-1.8,0.5-2.9,0.5c-1.1,0-2-0.2-2.8-0.5c-0.8-0.4-1.5-0.9-2.1-1.5c-0.6-0.6-1-1.4-1.3-2.2
		c-0.3-0.9-0.4-1.8-0.4-2.8C168.4,346.2,168.5,345.3,168.8,344.4z M171.1,349.4c0.2,0.6,0.5,1.2,0.9,1.6c0.4,0.4,0.8,0.8,1.4,1
		c0.5,0.2,1.1,0.3,1.6,0.3c0.6,0,1.1-0.1,1.6-0.3c0.5-0.2,1-0.6,1.4-1c0.4-0.4,0.7-1,0.9-1.6c0.2-0.6,0.3-1.4,0.3-2.2
		s-0.1-1.6-0.3-2.2c-0.2-0.6-0.5-1.2-0.9-1.6c-0.4-0.4-0.8-0.8-1.4-1c-0.5-0.2-1.1-0.3-1.6-0.3c-0.6,0-1.1,0.1-1.6,0.3
		c-0.5,0.2-1,0.6-1.4,1c-0.4,0.4-0.7,1-0.9,1.6c-0.2,0.6-0.3,1.4-0.3,2.2S170.8,348.8,171.1,349.4z"/>
	<path class="st1" d="M190,340.4v2h-2.7v8.4c0,0.3,0,0.5,0.1,0.6s0.1,0.3,0.2,0.4c0.1,0.1,0.3,0.1,0.5,0.2s0.5,0,0.9,0h1v2h-1.7
		c-0.6,0-1.1,0-1.5-0.1s-0.7-0.2-1-0.4c-0.3-0.2-0.4-0.5-0.6-0.9c-0.1-0.4-0.2-0.9-0.2-1.5v-8.7h-2.3v-2h2.3v-4.1h2.2v4.1H190z"/>
	<path class="st1" d="M202.7,335.3v16.7h9.9v2.1h-12.4v-18.8H202.7z"/>
	<path class="st1" d="M214.5,338v-2.7h2.2v2.7H214.5z M216.8,340.4V354h-2.2v-13.6H216.8z"/>
	<path class="st1" d="M222,351c0.2,0.3,0.5,0.6,0.8,0.8c0.3,0.2,0.7,0.3,1.2,0.4s0.9,0.1,1.3,0.1c0.4,0,0.7,0,1.1-0.1
		s0.7-0.1,1.1-0.3c0.3-0.1,0.6-0.3,0.8-0.6c0.2-0.3,0.3-0.6,0.3-1c0-0.6-0.2-1-0.7-1.3s-1-0.5-1.6-0.7c-0.7-0.2-1.4-0.4-2.1-0.5
		c-0.8-0.1-1.5-0.4-2.1-0.6c-0.7-0.3-1.2-0.7-1.6-1.1c-0.4-0.5-0.7-1.2-0.7-2.1c0-0.7,0.2-1.3,0.5-1.8c0.3-0.5,0.7-0.9,1.2-1.2
		c0.5-0.3,1-0.5,1.6-0.7c0.6-0.1,1.2-0.2,1.8-0.2c0.8,0,1.5,0.1,2.1,0.2c0.6,0.1,1.2,0.4,1.7,0.7c0.5,0.3,0.9,0.8,1.2,1.3
		c0.3,0.6,0.5,1.2,0.5,2.1h-2.2c0-0.4-0.1-0.8-0.3-1.1c-0.2-0.3-0.4-0.5-0.7-0.7c-0.3-0.2-0.6-0.3-1-0.4s-0.7-0.1-1.1-0.1
		c-0.3,0-0.7,0-1,0.1c-0.3,0.1-0.7,0.1-0.9,0.3c-0.3,0.1-0.5,0.3-0.7,0.5c-0.2,0.2-0.3,0.5-0.3,0.9c0,0.4,0.1,0.7,0.4,1
		c0.3,0.3,0.6,0.5,1,0.6c0.4,0.2,0.9,0.3,1.4,0.4c0.5,0.1,1.1,0.2,1.6,0.4c0.6,0.1,1.1,0.3,1.6,0.4c0.5,0.2,1,0.4,1.4,0.7
		s0.7,0.7,1,1.1c0.3,0.4,0.4,1,0.4,1.6c0,0.8-0.2,1.5-0.5,2.1c-0.3,0.5-0.8,1-1.3,1.3c-0.6,0.3-1.2,0.6-1.9,0.7
		c-0.7,0.1-1.4,0.2-2.1,0.2c-0.8,0-1.5-0.1-2.2-0.2c-0.7-0.2-1.3-0.4-1.8-0.8c-0.5-0.4-0.9-0.8-1.3-1.4c-0.3-0.6-0.5-1.3-0.5-2.1
		h2.2C221.6,350.2,221.8,350.7,222,351z"/>
	<path class="st1" d="M239.2,340.4v2h-2.7v8.4c0,0.3,0,0.5,0.1,0.6s0.1,0.3,0.2,0.4c0.1,0.1,0.3,0.1,0.5,0.2c0.2,0,0.5,0,0.9,0h1v2
		h-1.7c-0.6,0-1.1,0-1.5-0.1s-0.7-0.2-1-0.4c-0.3-0.2-0.4-0.5-0.6-0.9s-0.2-0.9-0.2-1.5v-8.7H232v-2h2.3v-4.1h2.2v4.1H239.2z"/>
	<path class="st1" d="M241.8,338v-2.7h2.2v2.7H241.8z M244.1,340.4V354h-2.2v-13.6H244.1z"/>
	<path class="st1" d="M249.6,340.4v2.2h0.1c0.9-1.6,2.4-2.5,4.4-2.5c0.9,0,1.6,0.1,2.2,0.4c0.6,0.2,1.1,0.6,1.4,1
		c0.4,0.4,0.6,1,0.8,1.6c0.1,0.6,0.2,1.3,0.2,2v8.9h-2.2v-9.2c0-0.8-0.2-1.5-0.7-2c-0.5-0.5-1.2-0.7-2-0.7c-0.7,0-1.3,0.1-1.8,0.3
		c-0.5,0.2-0.9,0.5-1.2,0.9c-0.3,0.4-0.6,0.8-0.8,1.4c-0.2,0.5-0.2,1.1-0.2,1.7v7.7h-2.2v-13.6H249.6z"/>
	<path class="st1" d="M272.3,357.9c-1,1.1-2.6,1.7-4.8,1.7c-0.6,0-1.3-0.1-1.9-0.2c-0.7-0.1-1.3-0.4-1.8-0.7c-0.5-0.3-1-0.7-1.3-1.2
		c-0.4-0.5-0.5-1.1-0.6-1.9h2.2c0,0.4,0.1,0.7,0.4,1c0.2,0.3,0.5,0.5,0.9,0.7s0.7,0.3,1.1,0.4c0.4,0.1,0.8,0.1,1.2,0.1
		c0.7,0,1.4-0.1,1.9-0.4s0.9-0.6,1.3-1.1s0.6-1,0.7-1.6c0.1-0.6,0.2-1.3,0.2-2.1v-0.9h-0.1c-0.4,0.8-1,1.5-1.7,1.9
		c-0.8,0.4-1.6,0.6-2.5,0.6c-1,0-1.9-0.2-2.7-0.6s-1.4-0.9-1.9-1.5c-0.5-0.6-0.9-1.3-1.1-2.2s-0.4-1.7-0.4-2.6
		c0-0.8,0.1-1.6,0.3-2.5c0.2-0.9,0.6-1.6,1.1-2.3c0.5-0.7,1.1-1.3,1.9-1.7c0.8-0.4,1.8-0.7,3-0.7c0.9,0,1.6,0.2,2.4,0.6
		s1.3,0.9,1.7,1.7h0v-1.9h2.1v12.4C273.9,355.1,273.4,356.8,272.3,357.9z M269.5,351.8c0.5-0.3,0.9-0.7,1.2-1.2s0.5-1.1,0.7-1.7
		c0.1-0.6,0.2-1.3,0.2-1.9c0-0.6-0.1-1.2-0.2-1.8c-0.1-0.6-0.4-1.1-0.7-1.6c-0.3-0.5-0.7-0.8-1.2-1.1s-1.1-0.4-1.8-0.4
		c-0.7,0-1.3,0.1-1.8,0.4c-0.5,0.3-0.9,0.6-1.2,1.1s-0.6,1-0.7,1.6c-0.1,0.6-0.2,1.2-0.2,1.9c0,0.6,0.1,1.2,0.2,1.8
		c0.1,0.6,0.3,1.2,0.6,1.7c0.3,0.5,0.7,0.9,1.2,1.2c0.5,0.3,1.1,0.5,1.8,0.5S269,352.1,269.5,351.8z"/>
	<path class="st1" d="M278.9,351c0.2,0.3,0.5,0.6,0.8,0.8c0.3,0.2,0.7,0.3,1.2,0.4s0.9,0.1,1.3,0.1c0.4,0,0.7,0,1.1-0.1
		c0.4-0.1,0.7-0.1,1.1-0.3c0.3-0.1,0.6-0.3,0.8-0.6c0.2-0.3,0.3-0.6,0.3-1c0-0.6-0.2-1-0.7-1.3c-0.4-0.3-1-0.5-1.6-0.7
		c-0.7-0.2-1.4-0.4-2.1-0.5c-0.8-0.1-1.5-0.4-2.1-0.6c-0.7-0.3-1.2-0.7-1.6-1.1c-0.4-0.5-0.7-1.2-0.7-2.1c0-0.7,0.2-1.3,0.5-1.8
		c0.3-0.5,0.7-0.9,1.2-1.2c0.5-0.3,1-0.5,1.6-0.7c0.6-0.1,1.2-0.2,1.8-0.2c0.8,0,1.5,0.1,2.1,0.2c0.6,0.1,1.2,0.4,1.7,0.7
		c0.5,0.3,0.9,0.8,1.2,1.3c0.3,0.6,0.5,1.2,0.5,2.1h-2.2c0-0.4-0.1-0.8-0.3-1.1c-0.2-0.3-0.4-0.5-0.7-0.7c-0.3-0.2-0.6-0.3-1-0.4
		s-0.7-0.1-1.1-0.1c-0.3,0-0.7,0-1,0.1c-0.3,0.1-0.7,0.1-0.9,0.3c-0.3,0.1-0.5,0.3-0.7,0.5c-0.2,0.2-0.3,0.5-0.3,0.9
		c0,0.4,0.1,0.7,0.4,1s0.6,0.5,1,0.6c0.4,0.2,0.9,0.3,1.4,0.4c0.5,0.1,1.1,0.2,1.6,0.4c0.6,0.1,1.1,0.3,1.6,0.4
		c0.5,0.2,1,0.4,1.4,0.7c0.4,0.3,0.7,0.7,1,1.1c0.3,0.4,0.4,1,0.4,1.6c0,0.8-0.2,1.5-0.5,2.1c-0.3,0.5-0.8,1-1.3,1.3
		c-0.6,0.3-1.2,0.6-1.9,0.7c-0.7,0.1-1.4,0.2-2.1,0.2c-0.8,0-1.5-0.1-2.2-0.2c-0.7-0.2-1.3-0.4-1.8-0.8c-0.5-0.4-0.9-0.8-1.3-1.4
		c-0.3-0.6-0.5-1.3-0.5-2.1h2.2C278.6,350.2,278.7,350.7,278.9,351z"/>
</g>
</svg>
