<?xml version="1.0" encoding="utf-8"?>
<!-- Generator: Adobe Illustrator 19.1.0, SVG Export Plug-In . SVG Version: 6.00 Build 0)  -->
<svg version="1.1" id="Layer_1" xmlns="http://www.w3.org/2000/svg" xmlns:xlink="http://www.w3.org/1999/xlink" x="0px" y="0px"
	 viewBox="-40 195 879 172" style="enable-background:new -40 195 879 172;" xml:space="preserve">
<style type="text/css">
	.st0{fill:none;}
	.st1{enable-background:new    ;}
	.st2{fill:#231F20;}
	.st3{fill:#F9EC31;stroke:#231F20;stroke-miterlimit:10;}
	.st4{fill:#FDCD08;stroke:#231F20;stroke-miterlimit:10;}
	.st5{fill:#4868B0;stroke:#231F20;stroke-miterlimit:10;}
	.st6{fill:#FDCE07;}
	.st7{fill:#DF2128;stroke:#231F20;stroke-miterlimit:10;}
	.st8{fill:#111212;}
	.st9{fill:#DF2128;stroke:#111212;stroke-miterlimit:10;}
	.st10{fill:#FFFFFF;stroke:#231F20;stroke-miterlimit:10;}
	.st11{clip-path:url(#SVGID_2_);fill:#F9EC31;stroke:#231F20;stroke-miterlimit:10;}
	.st12{fill:#DF2128;}
</style>
<rect x="-31.7" y="228.4" class="st0" width="514.8" height="89.6"/>
<g class="st1">
	<path class="st2" d="M2.6,248.5v9.7H-7.9v26c0,2.4,0.4,4.1,1.2,4.9c0.8,0.8,2.4,1.2,4.9,1.2c0.8,0,1.6,0,2.3-0.1
		c0.7-0.1,1.5-0.2,2.1-0.3V301c-1.2,0.2-2.6,0.3-4.1,0.4c-1.5,0.1-2.9,0.1-4.4,0.1c-2.2,0-4.4-0.2-6.4-0.5c-2-0.3-3.8-0.9-5.3-1.8
		c-1.5-0.9-2.7-2.1-3.6-3.8c-0.9-1.6-1.3-3.8-1.3-6.4v-31h-8.7v-9.7h8.7v-15.8h14.4v15.8H2.6z"/>
</g>
<g class="st1">
	<path class="st2" d="M27.3,248.5v9.8h0.2c0.7-1.6,1.6-3.1,2.7-4.5c1.2-1.4,2.5-2.6,4-3.6c1.5-1,3.1-1.7,4.8-2.3
		c1.7-0.5,3.5-0.8,5.3-0.8c0.9,0,2,0.2,3.2,0.5V261c-0.7-0.1-1.5-0.3-2.4-0.4c-0.9-0.1-1.9-0.2-2.7-0.2c-2.6,0-4.9,0.4-6.7,1.3
		c-1.8,0.9-3.3,2.1-4.4,3.6c-1.1,1.5-1.9,3.3-2.4,5.3c-0.5,2-0.7,4.2-0.7,6.6V301H13.6v-52.6H27.3z"/>
</g>
<g class="st1">
	<path class="st2" d="M54.6,264.6c0.2-3.4,1-6.2,2.5-8.4c1.5-2.2,3.4-4,5.7-5.4c2.3-1.4,4.9-2.3,7.8-2.9c2.9-0.6,5.8-0.9,8.7-0.9
		c2.6,0,5.3,0.2,8,0.6c2.7,0.4,5.2,1.1,7.4,2.2s4.1,2.6,5.5,4.5c1.4,1.9,2.1,4.5,2.1,7.7v27.3c0,2.4,0.1,4.6,0.4,6.8
		c0.3,2.2,0.7,3.8,1.4,4.9H89.5c-0.3-0.8-0.5-1.6-0.7-2.5c-0.2-0.8-0.3-1.7-0.4-2.6c-2.3,2.4-5,4-8.1,5c-3.1,0.9-6.3,1.4-9.6,1.4
		c-2.5,0-4.8-0.3-7-0.9c-2.2-0.6-4.1-1.6-5.7-2.8c-1.6-1.3-2.9-2.9-3.8-4.9c-0.9-2-1.4-4.3-1.4-7c0-3,0.5-5.4,1.6-7.4
		c1-1.9,2.4-3.5,4.1-4.6c1.7-1.2,3.6-2,5.7-2.6c2.1-0.6,4.3-1,6.5-1.4c2.2-0.3,4.3-0.6,6.4-0.8c2.1-0.2,4-0.5,5.6-0.9s2.9-1,3.9-1.8
		c0.9-0.8,1.4-1.9,1.3-3.4c0-1.6-0.3-2.8-0.8-3.7s-1.2-1.6-2-2.1c-0.8-0.5-1.8-0.8-2.9-1c-1.1-0.2-2.3-0.3-3.6-0.3
		c-2.8,0-5.1,0.6-6.7,1.8c-1.6,1.2-2.6,3.3-2.8,6.1H54.6z M87.9,275.3c-0.6,0.5-1.4,1-2.3,1.3c-0.9,0.3-1.9,0.6-2.9,0.8
		c-1.1,0.2-2.2,0.4-3.3,0.5c-1.2,0.1-2.3,0.3-3.5,0.5c-1.1,0.2-2.2,0.5-3.2,0.8c-1.1,0.3-2,0.8-2.7,1.4c-0.8,0.6-1.4,1.3-1.9,2.2
		c-0.5,0.9-0.7,2-0.7,3.4c0,1.3,0.2,2.4,0.7,3.3c0.5,0.9,1.1,1.6,1.9,2.1c0.8,0.5,1.8,0.9,2.8,1.1c1.1,0.2,2.2,0.3,3.4,0.3
		c2.8,0,5-0.5,6.6-1.4c1.6-0.9,2.7-2.1,3.5-3.4c0.7-1.3,1.2-2.7,1.4-4c0.2-1.4,0.3-2.4,0.3-3.3V275.3z"/>
	<path class="st2" d="M148.9,294.3c-1.7,2.8-3.9,4.9-6.7,6.1c-2.7,1.3-5.8,1.9-9.3,1.9c-3.9,0-7.4-0.8-10.4-2.3
		c-3-1.5-5.4-3.6-7.4-6.2c-1.9-2.6-3.4-5.6-4.4-9c-1-3.4-1.5-6.9-1.5-10.6c0-3.5,0.5-6.9,1.5-10.2c1-3.3,2.4-6.2,4.4-8.7
		c1.9-2.5,4.4-4.5,7.3-6c2.9-1.5,6.3-2.3,10.2-2.3c3.1,0,6.1,0.7,8.9,2c2.8,1.3,5,3.3,6.7,5.8h0.2v-26.4h14.4V301h-13.7v-6.7H148.9z
		 M148.3,268.3c-0.4-2-1.1-3.8-2.1-5.3c-1-1.5-2.3-2.8-3.8-3.7c-1.6-0.9-3.5-1.4-5.9-1.4c-2.4,0-4.4,0.5-6,1.4
		c-1.6,1-2.9,2.2-3.9,3.8c-1,1.6-1.7,3.3-2.1,5.3c-0.4,2-0.7,4.1-0.7,6.3c0,2,0.2,4.1,0.7,6.1c0.5,2,1.2,3.8,2.3,5.4
		c1,1.6,2.4,2.9,4,3.9c1.6,1,3.5,1.5,5.7,1.5c2.4,0,4.4-0.5,5.9-1.4c1.6-0.9,2.9-2.2,3.8-3.8c0.9-1.6,1.6-3.4,2-5.4
		c0.4-2,0.6-4.1,0.6-6.3C148.9,272.4,148.7,270.3,148.3,268.3z"/>
</g>
<g class="st1">
	<path class="st2" d="M187,288.4c2.2,2.1,5.3,3.2,9.4,3.2c2.9,0,5.4-0.7,7.5-2.2c2.1-1.5,3.4-3,3.9-4.6h12.7
		c-2,6.3-5.2,10.8-9.4,13.5c-4.2,2.7-9.3,4.1-15.2,4.1c-4.1,0-7.9-0.7-11.2-2c-3.3-1.3-6.1-3.2-8.4-5.6c-2.3-2.4-4.1-5.4-5.3-8.7
		c-1.3-3.4-1.9-7.1-1.9-11.2c0-3.9,0.6-7.6,1.9-11c1.3-3.4,3.1-6.3,5.5-8.8c2.4-2.5,5.2-4.4,8.5-5.8c3.3-1.4,6.9-2.1,10.9-2.1
		c4.5,0,8.4,0.9,11.7,2.6c3.3,1.7,6,4.1,8.2,7c2.1,2.9,3.7,6.2,4.6,10c0.9,3.7,1.3,7.6,1,11.7h-37.9
		C183.7,282.9,184.9,286.3,187,288.4z M203.3,260.8c-1.7-1.9-4.4-2.8-7.9-2.8c-2.3,0-4.2,0.4-5.7,1.2c-1.5,0.8-2.7,1.7-3.7,2.9
		c-0.9,1.2-1.6,2.4-1.9,3.7c-0.4,1.3-0.6,2.4-0.7,3.5H207C206.3,265.5,205.1,262.7,203.3,260.8z"/>
</g>
<g class="st1">
</g>
<g class="st1">
	<path class="st2" d="M237.5,256.1l1.5-7.6h8.9c0.7-2.6,1.3-5.2,1.9-7.7c0.6-2.5,1.4-4.7,2.5-6.7c1.1-1.9,2.6-3.5,4.5-4.7
		c1.9-1.2,4.6-1.8,8.1-1.8c1.2,0,2.4,0.1,3.7,0.2c1.2,0.1,2.4,0.3,3.6,0.7l-1.4,7.3c-0.7-0.1-1.5-0.3-2.1-0.4
		c-0.7-0.1-1.3-0.2-1.9-0.2c-2.1,0-3.7,0.4-4.9,1.2c-1.2,0.8-2.1,1.8-2.7,3c-0.6,1.3-1.1,2.7-1.4,4.2c-0.3,1.6-0.7,3.2-1.2,4.8h10.1
		l-1.4,7.6H255l-9.7,44.9h-8.6l9.8-44.9H237.5z"/>
</g>
<g class="st1">
	<path class="st2" d="M292,228.4L276.7,301h-8.5l15.1-72.6H292z"/>
</g>
<g class="st1">
	<path class="st2" d="M297.2,256.8c1.4-2.1,3.1-3.9,5.1-5.3s4.3-2.5,6.9-3.2c2.6-0.7,5.3-1,8-1c2.6,0,5,0.2,7.3,0.6
		c2.3,0.4,4.3,1.1,6.1,2.1c1.8,1,3.2,2.4,4.2,4.1c1,1.7,1.6,3.9,1.6,6.6c0,1.5-0.2,3.1-0.6,4.8c-0.4,1.7-0.7,3.3-1.1,4.7l-3.4,14.3
		c-0.2,1.1-0.5,2.3-0.9,3.7c-0.4,1.4-0.6,2.6-0.6,3.9s0.2,2.1,0.7,2.5c0.5,0.5,1.1,0.7,1.8,0.7c0.4,0,0.9-0.1,1.4-0.3
		c0.5-0.2,1-0.3,1.4-0.5L334,301c-0.7,0.3-1.5,0.5-2.6,0.8c-1.1,0.2-1.9,0.4-2.7,0.4c-2.4,0-4.2-0.6-5.4-1.9
		c-1.2-1.3-1.7-3.1-1.4-5.4l-0.2-0.2c-1.8,2.4-4.1,4.3-6.8,5.6c-2.7,1.3-6.3,1.9-10.8,1.9c-2.2,0-4.3-0.3-6.3-0.8
		c-1.9-0.5-3.6-1.4-5-2.5c-1.4-1.2-2.6-2.7-3.4-4.6c-0.8-1.9-1.3-4.2-1.3-6.9c0-3.9,0.8-6.9,2.5-9c1.7-2.2,3.8-3.8,6.4-4.9
		c2.6-1.1,5.4-1.9,8.5-2.3c3.1-0.4,6.1-0.7,9-1c2.3-0.2,4.3-0.4,5.9-0.7c1.7-0.2,3-0.6,4.1-1.2c1.1-0.5,1.9-1.3,2.4-2.3
		s0.8-2.4,0.8-4.2c0-1.4-0.3-2.6-1-3.5c-0.7-0.9-1.5-1.6-2.5-2.1c-1-0.5-2.2-0.9-3.4-1.1c-1.3-0.2-2.5-0.3-3.6-0.3
		c-1.6,0-3.2,0.2-4.8,0.5c-1.6,0.3-3,0.9-4.3,1.7c-1.3,0.8-2.4,1.8-3.3,2.9c-0.9,1.2-1.5,2.6-1.7,4.3h-8.6
		C294.9,261.4,295.8,258.9,297.2,256.8z M299.6,292.8c1.9,1.2,4.1,1.8,6.6,1.8c6.8,0,11.8-2.3,14.7-6.9c1.4-2,2.4-4.1,2.9-6.4
		c0.5-2.3,1.1-4.7,1.7-7.1h-0.2c-1.2,0.9-2.8,1.5-4.6,1.9c-1.9,0.4-3.8,0.7-5.9,0.9c-2.1,0.2-4.2,0.5-6.4,0.8s-4.1,0.8-5.7,1.5
		c-1.7,0.7-3.1,1.6-4.2,2.9c-1.1,1.3-1.7,3-1.7,5.2C296.7,289.7,297.7,291.6,299.6,292.8z"/>
	<path class="st2" d="M374.9,257.2c-2.2-1.5-4.8-2.3-7.8-2.3c-1.3,0-2.6,0.1-4,0.3c-1.4,0.2-2.6,0.6-3.6,1.1c-1.1,0.5-1.9,1.2-2.6,2
		c-0.7,0.8-1,1.9-1,3.3c0,1.2,0.4,2.3,1.2,3.2c0.8,0.9,1.8,1.7,3.2,2.4c1.3,0.7,2.8,1.4,4.5,2.1c1.7,0.6,3.3,1.3,5,2
		c1.8,0.7,3.5,1.6,5.1,2.4c1.7,0.9,3.1,1.9,4.4,3c1.3,1.1,2.3,2.4,3.2,4c0.8,1.5,1.2,3.3,1.2,5.3c0,2.9-0.6,5.4-1.9,7.5
		c-1.3,2.1-2.9,3.7-5,5c-2,1.3-4.3,2.2-6.9,2.8c-2.5,0.6-5.1,0.9-7.7,0.9c-3,0-5.9-0.3-8.4-0.9c-2.6-0.6-4.8-1.5-6.7-2.9
		c-1.9-1.4-3.3-3.2-4.4-5.4c-1.1-2.3-1.6-5.1-1.6-8.5h8.5c-0.1,1.9,0.2,3.5,0.9,4.8c0.7,1.3,1.7,2.4,2.9,3.2
		c1.3,0.8,2.7,1.3,4.4,1.7c1.7,0.3,3.4,0.5,5.2,0.5c1.4,0,2.8-0.1,4.3-0.4c1.4-0.3,2.7-0.7,3.9-1.4c1.2-0.6,2.1-1.5,2.8-2.5
		c0.7-1,1.1-2.3,1.1-3.8c0-1.3-0.4-2.4-1.2-3.3c-0.8-0.9-1.9-1.7-3.2-2.5c-1.3-0.7-2.8-1.4-4.4-2.1c-1.7-0.6-3.3-1.3-5-2.1
		c-1.8-0.7-3.5-1.4-5.1-2.2c-1.7-0.8-3.2-1.8-4.5-2.9c-1.3-1.1-2.4-2.4-3.2-3.9c-0.8-1.5-1.2-3.2-1.2-5.2c0-2.4,0.6-4.6,1.7-6.5
		c1.1-1.9,2.6-3.5,4.4-4.7c1.8-1.3,3.9-2.2,6.3-2.9c2.3-0.7,4.7-1,7.2-1c2.4,0,4.8,0.3,7.2,0.9c2.4,0.6,4.5,1.5,6.4,2.8
		c1.9,1.3,3.4,3,4.5,5.2c1.2,2.1,1.7,4.7,1.7,7.8h-8.6C378.1,260.9,377,258.7,374.9,257.2z"/>
	<path class="st2" d="M414.2,228.4l-6.2,27.8l0.2,0.2c2.2-3,4.9-5.3,8.2-6.9c3.3-1.5,6.8-2.3,10.5-2.3c4.9,0,8.6,1.1,11,3.3
		c2.4,2.2,3.6,5.6,3.6,10.3c0,1.2-0.1,2.6-0.4,4.5c-0.3,1.8-0.6,3.8-1.1,5.8l-6.4,30H425l6.7-30.7c0.1-0.5,0.2-1.2,0.3-1.9
		c0.1-0.7,0.3-1.5,0.4-2.2c0.1-0.8,0.3-1.5,0.4-2.2c0.1-0.7,0.2-1.3,0.2-1.8c0-2.5-0.9-4.4-2.6-5.5c-1.8-1.2-3.9-1.8-6.5-1.8
		c-2.4,0-4.7,0.6-7.1,1.7c-2.3,1.2-4.3,2.6-5.9,4.4c-1.6,1.4-2.8,3-3.7,4.9c-0.9,1.9-1.6,3.9-2.1,6l-6.1,29.1h-8.5l15.2-72.6H414.2z
		"/>
</g>
<g>
	<g>
		<path class="st3" d="M701,216.6c-2.2,1.6-4.4,3.2-6.7,4.7c4.9,4,9.8,7.9,14.7,11.8c0,0,0,0,0,0.1c-8.6-3.5-17.1-7.1-25.7-10.6
			c1.9-1.6,3.8-3.1,5.8-4.7c-4.9-3.9-9.8-7.7-14.6-11.5v-0.1C683.2,209.8,692.1,213.2,701,216.6z"/>
		<path class="st4" d="M568.3,318.8c0,0,3.8-18.4-16.8-6c-20.6,12.5-30.7,24.7-30.7,26.4c0,1.7-1.8,5.2,4.7,3.1
			c6.5-2.2,21.8-15.6,21.8-15.6s-18.4,16.3-18.4,24.5c0,0,1.9,4.1,23.6-17.7c0,0-10.3,10.5-11,23.8c0,0,1.6,4.7,20-24.4l2.7-5.1
			c0,0,8.1,8.3,15.3,10.1c7.2,1.8,9.7,3.2,15-4.9c5.2-8.1,6-12.2,6-12.2l-15.7-6.7c0,0-2.2,12.5-4.7,12.5S568.3,318.8,568.3,318.8z"
			/>
		<path class="st5" d="M623,314.7c0,0,17.9,5.4,23.7,5.4c0,0,8.7-3.2,11.9-10.8c0,0,1.5-11.5-1.2-14.3"/>
		<path class="st5" d="M690.7,235.1c0,0-116.6-53.1-116.6,55.6c0,0,2.3-5.2,9-11.9c0,0-6.9,22-5.1,31.1c0,0-0.1,8.7,6.1,11.6
			c0,0,10.5,7.2,19.6,3.6c0,0,18.4-10.5,23.1-22c0,0-5.2,11.4-7.2,13.4c0,0,22.6-0.3,38.3-23.1c0,0,8.2-13.6,16.2-21.7
			c0,0,15.5-10.8,18.8-10.8c0,0,20.9,15.5,37.9-6.1c0,0,30-17.3,90.3-3.2c0,0-9.4-13.7-37.6-15.5c0,0-49.3,2.3-52.7-1.1
			C727.3,231.4,710.9,214.9,690.7,235.1z"/>
		<g>
			<path class="st6" d="M783.4,235.9c0,0-38.2,1.8-49.7-0.1c1.9,5.7,2,11.6,0.7,17.1c9.7-4,38.5-12.8,86.6-1.5
				C821,251.4,811.6,237.7,783.4,235.9z"/>
			<path class="st2" d="M732.9,254.7l0.5-2.1c1.4-5.6,1.2-11.3-0.6-16.5l-0.6-1.7l1.8,0.3c11.2,1.9,49.1,0.1,49.5,0.1h0.1h0.1
				c28.4,1.8,38,15.4,38.4,16l1.6,2.3l-2.7-0.6c-47.5-11.1-75.9-2.7-85.9,1.5L732.9,254.7z M735.3,237.1c1.3,4.5,1.5,9.3,0.6,14.1
				c11.3-4.3,38.5-11.1,82-1.6c-4.2-3.9-14.5-11.3-34.4-12.6C781.3,237.1,748.2,238.6,735.3,237.1z"/>
		</g>
		<path class="st4" d="M657.5,310.2l-10.7,9.7l20.6,16.1c0,0-4.1,7.3,1.5,9.7c2.8,1.2,6.1-1.1,29.3-12.6
			c22.2-11,24.2-17.5,24.2-17.5s-1.1-6.5-28.5,10.9c0,0,17.3-13.7,21.7-21.8c0,0,1.6-12.3-31,15.3c0,0,14.2-14.1,12.9-17
			c-1.3-2.9-20.2,10.5-22.6,19C675,321.9,668.9,324.8,657.5,310.2z"/>
		<g>
			<path class="st7" d="M690.7,235.2c0,0-116.6-53.1-116.6,55.6c0,0,2.3-5.2,9-11.9c0,0-3.8,12.3-5,22.2
				c6.1,5.5,14.9,11.6,23.8,14.4c4.3,0.4,8.5,0.9,12.8,1.6c0.1,0,0.2,0.1,0.4,0.1c4.7-3.9,9.6-8.9,11.7-14.1c0,0-5.2,11.4-7.2,13.4
				c0,0,22.6-0.3,38.3-23.1c0,0,8.2-13.6,16.2-21.7c0,0,14.1-9.9,18.2-10.7c-0.2-0.5-0.3-1.1-0.5-1.6c-5.5-7.5-3.4-20.3,6.1-24
				c0.3-2.2,0.7-4.4,1-6.6C696.3,230.2,693.5,232.3,690.7,235.2z"/>
			<path class="st8" d="M698.5,227.7c-2.7,1.6-5.4,3.6-8,6.2c-3.1-1.3-16.3-6.8-32.6-10.1c-17.2-3.5-41.5-5.2-59.5,6.4
				C581.5,241,573,261.4,573,290.8v5l2.1-4.6c0,0,1.6-3.5,5.7-8.3c-1.2,4.3-2.9,11.2-3.7,17.4c0.2,0.2,0.4,0.3,0.7,0.5
				c0.4,0.4,0.9,0.8,1.3,1.2c1.1-9.8,5-22.6,5-22.8l1.3-4.2l-3.1,3.1c-3.4,3.4-5.7,6.4-7.1,8.6c0.8-26.4,8.9-44.8,24.3-54.7
				c33.3-21.5,90.2,3.9,90.7,4.2l0.7,0.3l0.5-0.5c2-2,4-3.7,6.1-5.1c-0.3,1.7-0.5,3.3-0.7,4.9c0.7-0.4,1.5-0.7,2.3-0.9
				c0.3-1.9,0.6-3.9,1-6l0.4-2.3L698.5,227.7z"/>
			<path class="st8" d="M692,259.9c-4.4,1.1-16.1,9.2-18.7,11c-8,8-16.1,21.3-16.4,21.8c-12.3,17.9-29.1,21.6-35.1,22.4
				c1.7-2.8,3.9-7.2,5.1-9.8c0.3-0.6,0.6-1.2,0.9-1.9l-2-0.9c-0.3,0.5-0.5,1.1-0.8,1.7c-2.5,4.7-7,9.1-11.4,12.5
				c0.4,0.1,0.7,0.1,1.1,0.1c0.6,0.1,1.1,0.3,1.6,0.5c1.1-1,2.3-2,3.4-3c-0.3,0.5-0.6,0.9-0.9,1.1l-1.9,1.9h2.7
				c0.2,0,23.3-0.6,39.2-23.6c0.1-0.1,8.2-13.6,15.9-21.3c6.1-4.2,15.3-10.1,17.9-10.6c0.1,0,0.1,0.1,0.2,0.2
				C692.5,261.4,692.2,260.6,692,259.9z"/>
		</g>
		<path class="st9" d="M732.7,235.2c0,0,3.1,17.9-39.9,24.7c0,0-10.6-5.4-2.2-25.6C690.7,234.2,708,210.4,732.7,235.2z"/>
		<g>
			<circle class="st10" cx="716.4" cy="241" r="10.2"/>
			<ellipse class="st2" cx="720.6" cy="239.3" rx="6" ry="6"/>
		</g>
		<path class="st3" d="M692.5,221.4c-2.2,1.6-4.4,3.2-6.7,4.7c4.9,4,9.8,7.9,14.7,11.8c0,0,0,0,0,0.1c-8.6-3.5-17.1-7.1-25.7-10.6
			c1.9-1.6,3.8-3.1,5.8-4.7c-4.9-3.9-9.8-7.7-14.6-11.5v-0.1C674.7,214.5,683.6,218,692.5,221.4z"/>
		<circle class="st3" cx="698.9" cy="235.8" r="3.4"/>
		<g>
			<g>
				<defs>
					<path id="SVGID_1_" d="M690.9,235.2c0,0-116.6-53.1-116.6,55.6c0,0,2.3-5.2,9-11.9c0,0-3.8,12.3-5,22.2
						c6.1,5.5,14.9,11.6,23.8,14.4c4.3,0.4,8.5,0.9,12.8,1.6c0.1,0,0.2,0.1,0.4,0.1c4.7-3.9,9.6-8.9,11.7-14.1
						c0,0-5.2,11.4-7.2,13.4c0,0,22.6-0.3,38.3-23.1c0,0,8.2-13.6,16.2-21.7c0,0,14.1-9.9,18.2-10.7c-0.2-0.5-0.3-1.1-0.5-1.6
						c-5.5-7.5-3.4-20.3,6.1-24c0.3-2.2,0.7-4.4,1-6.6C696.5,230.2,693.7,232.3,690.9,235.2z"/>
				</defs>
				<clipPath id="SVGID_2_">
					<use xlink:href="#SVGID_1_"  style="overflow:visible;"/>
				</clipPath>
				<path class="st11" d="M662.6,295.4c-1.8-3.8-3.5-7.4-5.3-11.2c-7.2,6.2-14.3,12.4-21.4,18.6l-0.1-0.1
					c7.5-11.8,15-23.5,22.6-35.4c1.8,3.3,3.6,6.5,5.4,9.8c7-6.2,14-12.4,21-18.6l0.1,0.1C677.5,270.8,670.1,283,662.6,295.4z"/>
			</g>
		</g>
	</g>
	<g>
		<polygon class="st12" points="575.7,239 457.3,238 575.7,237 		"/>
	</g>
	<g>
		<polygon class="st12" points="551.6,253.9 532.1,252.9 551.6,251.9 		"/>
	</g>
	<g>
		<polygon class="st12" points="532.1,275.1 457.3,274.1 532.1,273.1 		"/>
	</g>
	<g>
		<polygon class="st12" points="541.8,296 501.4,295 541.8,294 		"/>
	</g>
</g>
<rect x="-32.3" y="327.6" class="st0" width="546.4" height="67.8"/>
<g class="st1">
	<path class="st2" d="M-32.3,330.5v-2.9h20.8v2.9h-8.7v23.1h-3.5v-23.1H-32.3z"/>
	<path class="st2" d="M-5.9,327.6v10h0.1c0.2-0.6,0.6-1.1,1-1.5s0.9-0.7,1.5-1c0.5-0.3,1.1-0.4,1.7-0.6c0.6-0.1,1.2-0.2,1.7-0.2
		c1.2,0,2.3,0.2,3.1,0.5c0.8,0.3,1.5,0.8,2,1.4s0.9,1.3,1.1,2.2c0.2,0.8,0.3,1.8,0.3,2.8v12.4H3.5v-12.8c0-1.2-0.3-2.1-1-2.8
		c-0.7-0.7-1.6-1-2.8-1c-0.9,0-1.8,0.1-2.5,0.4c-0.7,0.3-1.3,0.7-1.7,1.2c-0.5,0.5-0.8,1.2-1,1.9c-0.2,0.7-0.3,1.5-0.3,2.4v10.7H-9
		v-26.1H-5.9z"/>
	<path class="st2" d="M24.6,352.5c-1.4,1.1-3.2,1.6-5.3,1.6c-1.5,0-2.8-0.2-3.9-0.7c-1.1-0.5-2-1.2-2.8-2c-0.8-0.9-1.3-1.9-1.7-3.1
		c-0.4-1.2-0.6-2.5-0.6-4c0-1.4,0.2-2.7,0.7-3.9c0.4-1.2,1.1-2.2,1.8-3.1c0.8-0.9,1.7-1.6,2.8-2c1.1-0.5,2.3-0.7,3.6-0.7
		c1.7,0,3.1,0.3,4.2,1c1.1,0.7,2,1.6,2.7,2.6c0.7,1.1,1.1,2.2,1.4,3.5c0.3,1.3,0.4,2.5,0.3,3.6H13.5c0,0.8,0.1,1.6,0.3,2.4
		c0.2,0.7,0.6,1.4,1.1,2c0.5,0.6,1.1,1,1.9,1.4c0.8,0.3,1.6,0.5,2.7,0.5c1.3,0,2.4-0.3,3.2-0.9c0.8-0.6,1.4-1.5,1.7-2.8h3.1
		C26.9,349.8,26,351.4,24.6,352.5z M23.9,340.4c-0.3-0.7-0.7-1.2-1.1-1.7c-0.5-0.5-1-0.9-1.7-1.1c-0.6-0.3-1.4-0.4-2.1-0.4
		c-0.8,0-1.5,0.1-2.2,0.4c-0.6,0.3-1.2,0.7-1.7,1.1c-0.5,0.5-0.8,1.1-1.1,1.7s-0.4,1.3-0.5,2.1h10.8C24.3,341.7,24.1,341,23.9,340.4
		z"/>
	<path class="st2" d="M39.1,337.5v-2.7h3.2V332c0-1.5,0.4-2.7,1.3-3.5c0.9-0.8,2.2-1.2,3.9-1.2c0.3,0,0.6,0,1,0.1
		c0.4,0,0.7,0.1,1,0.2v2.7c-0.3-0.1-0.6-0.2-0.9-0.2c-0.3,0-0.6-0.1-0.9-0.1c-0.8,0-1.3,0.1-1.8,0.4c-0.4,0.3-0.6,0.9-0.6,1.7v2.6
		H49v2.7h-3.6v16.1h-3.1v-16.1H39.1z"/>
	<path class="st2" d="M68.5,353.6c-0.5,0.3-1.3,0.5-2.2,0.5c-0.8,0-1.4-0.2-1.9-0.7c-0.5-0.5-0.7-1.2-0.7-2.2c-0.9,1-1.8,1.8-3,2.2
		c-1.1,0.4-2.4,0.7-3.7,0.7c-0.9,0-1.7-0.1-2.4-0.3c-0.8-0.2-1.4-0.5-2-0.9c-0.6-0.4-1-1-1.3-1.6s-0.5-1.5-0.5-2.4
		c0-1.1,0.2-1.9,0.5-2.6s0.8-1.2,1.4-1.7c0.6-0.4,1.3-0.7,2-1s1.6-0.4,2.4-0.5c0.9-0.2,1.7-0.3,2.4-0.4c0.8-0.1,1.4-0.2,2-0.4
		c0.6-0.2,1-0.4,1.4-0.7c0.3-0.3,0.5-0.7,0.5-1.3c0-0.7-0.1-1.2-0.4-1.6c-0.3-0.4-0.6-0.7-1-0.9c-0.4-0.2-0.9-0.4-1.4-0.4
		c-0.5-0.1-1-0.1-1.5-0.1c-1.3,0-2.4,0.2-3.3,0.7c-0.9,0.5-1.4,1.4-1.4,2.8h-3.1c0-1.2,0.3-2.2,0.7-3c0.4-0.8,1-1.5,1.8-2
		c0.7-0.5,1.6-0.9,2.5-1.1c0.9-0.2,1.9-0.3,3-0.3c0.9,0,1.7,0.1,2.5,0.2c0.8,0.1,1.6,0.4,2.3,0.7c0.7,0.4,1.2,0.9,1.6,1.6
		c0.4,0.7,0.6,1.6,0.6,2.7v9.7c0,0.7,0,1.3,0.1,1.6c0.1,0.3,0.4,0.5,0.9,0.5c0.3,0,0.6,0,0.9-0.1V353.6z M63.5,343.9
		c-0.4,0.3-0.9,0.5-1.5,0.6c-0.6,0.1-1.3,0.2-2,0.3c-0.7,0.1-1.4,0.2-2.1,0.3c-0.7,0.1-1.3,0.3-1.9,0.5c-0.6,0.2-1,0.6-1.4,1
		c-0.4,0.4-0.5,1.1-0.5,1.8c0,0.5,0.1,0.9,0.3,1.3c0.2,0.4,0.5,0.6,0.8,0.9c0.3,0.2,0.7,0.4,1.1,0.5s0.9,0.1,1.4,0.1
		c1,0,1.9-0.1,2.6-0.4s1.3-0.6,1.8-1.1c0.5-0.4,0.8-0.9,1-1.4c0.2-0.5,0.3-1,0.3-1.4V343.9z"/>
	<path class="st2" d="M73.8,349.5c0.3,0.5,0.7,0.9,1.1,1.1c0.5,0.3,1,0.5,1.6,0.6s1.2,0.2,1.8,0.2c0.5,0,1,0,1.5-0.1
		c0.5-0.1,1-0.2,1.5-0.4c0.5-0.2,0.8-0.5,1.1-0.9c0.3-0.4,0.4-0.9,0.4-1.4c0-0.8-0.3-1.4-0.9-1.8c-0.6-0.4-1.4-0.7-2.3-1
		c-0.9-0.3-1.9-0.5-3-0.7c-1.1-0.2-2.1-0.5-3-0.9c-0.9-0.4-1.7-0.9-2.3-1.6c-0.6-0.7-0.9-1.6-0.9-2.8c0-0.9,0.2-1.8,0.6-2.4
		c0.4-0.7,1-1.2,1.6-1.7c0.7-0.4,1.4-0.7,2.3-0.9s1.7-0.3,2.5-0.3c1.1,0,2.1,0.1,3,0.3c0.9,0.2,1.7,0.5,2.4,0.9s1.2,1.1,1.7,1.8
		c0.4,0.8,0.7,1.7,0.7,2.9h-3.1c0-0.6-0.2-1.1-0.5-1.5c-0.3-0.4-0.6-0.7-1-1c-0.4-0.2-0.9-0.4-1.4-0.5c-0.5-0.1-1-0.2-1.5-0.2
		c-0.5,0-0.9,0-1.4,0.1c-0.5,0.1-0.9,0.2-1.3,0.4c-0.4,0.2-0.7,0.4-0.9,0.7c-0.2,0.3-0.4,0.7-0.4,1.2c0,0.5,0.2,1,0.6,1.3
		c0.4,0.4,0.9,0.6,1.4,0.9s1.2,0.4,2,0.6c0.7,0.2,1.5,0.3,2.2,0.5c0.8,0.2,1.5,0.4,2.3,0.6c0.7,0.2,1.4,0.6,2,1
		c0.6,0.4,1,0.9,1.4,1.5c0.4,0.6,0.5,1.4,0.5,2.3c0,1.1-0.2,2.1-0.7,2.8c-0.5,0.8-1.1,1.4-1.9,1.8c-0.8,0.5-1.6,0.8-2.6,1
		c-1,0.2-1.9,0.3-2.9,0.3c-1,0-2-0.1-3-0.3s-1.8-0.6-2.5-1.1c-0.7-0.5-1.3-1.2-1.8-2c-0.4-0.8-0.7-1.8-0.7-3h3.1
		C73.3,348.4,73.5,349,73.8,349.5z"/>
	<path class="st2" d="M97.7,334.8v2.7h-3.8v11.7c0,0.4,0,0.7,0.1,0.9c0.1,0.2,0.2,0.4,0.3,0.5c0.2,0.1,0.4,0.2,0.7,0.2
		c0.3,0,0.7,0.1,1.2,0.1h1.4v2.7h-2.4c-0.8,0-1.5-0.1-2.1-0.2c-0.6-0.1-1-0.3-1.4-0.6s-0.6-0.7-0.8-1.2c-0.2-0.5-0.3-1.2-0.3-2.1
		v-12h-3.2v-2.7h3.2v-5.7h3.1v5.7H97.7z"/>
	<path class="st2" d="M114.5,352.5c-1.4,1.1-3.2,1.6-5.3,1.6c-1.5,0-2.8-0.2-3.9-0.7c-1.1-0.5-2-1.2-2.8-2c-0.8-0.9-1.3-1.9-1.7-3.1
		c-0.4-1.2-0.6-2.5-0.6-4c0-1.4,0.2-2.7,0.7-3.9c0.4-1.2,1.1-2.2,1.8-3.1c0.8-0.9,1.7-1.6,2.8-2c1.1-0.5,2.3-0.7,3.6-0.7
		c1.7,0,3.1,0.3,4.2,1c1.1,0.7,2,1.6,2.7,2.6c0.7,1.1,1.1,2.2,1.4,3.5c0.3,1.3,0.4,2.5,0.3,3.6h-14.1c0,0.8,0.1,1.6,0.3,2.4
		c0.2,0.7,0.6,1.4,1.1,2c0.5,0.6,1.1,1,1.9,1.4c0.8,0.3,1.6,0.5,2.7,0.5c1.3,0,2.4-0.3,3.2-0.9c0.8-0.6,1.4-1.5,1.7-2.8h3.1
		C116.8,349.8,115.9,351.4,114.5,352.5z M113.7,340.4c-0.3-0.7-0.7-1.2-1.1-1.7c-0.5-0.5-1-0.9-1.7-1.1c-0.6-0.3-1.4-0.4-2.1-0.4
		c-0.8,0-1.5,0.1-2.2,0.4c-0.6,0.3-1.2,0.7-1.7,1.1c-0.5,0.5-0.8,1.1-1.1,1.7s-0.4,1.3-0.5,2.1h10.8
		C114.2,341.7,114,341,113.7,340.4z"/>
	<path class="st2" d="M123.1,349.5c0.3,0.5,0.7,0.9,1.1,1.1c0.5,0.3,1,0.5,1.6,0.6s1.2,0.2,1.8,0.2c0.5,0,1,0,1.5-0.1
		c0.5-0.1,1-0.2,1.5-0.4c0.5-0.2,0.8-0.5,1.1-0.9c0.3-0.4,0.4-0.9,0.4-1.4c0-0.8-0.3-1.4-0.9-1.8c-0.6-0.4-1.4-0.7-2.3-1
		c-0.9-0.3-1.9-0.5-3-0.7c-1.1-0.2-2.1-0.5-3-0.9c-0.9-0.4-1.7-0.9-2.3-1.6c-0.6-0.7-0.9-1.6-0.9-2.8c0-0.9,0.2-1.8,0.6-2.4
		c0.4-0.7,1-1.2,1.6-1.7c0.7-0.4,1.4-0.7,2.3-0.9s1.7-0.3,2.5-0.3c1.1,0,2.1,0.1,3,0.3c0.9,0.2,1.7,0.5,2.4,0.9s1.2,1.1,1.7,1.8
		c0.4,0.8,0.7,1.7,0.7,2.9h-3.1c0-0.6-0.2-1.1-0.5-1.5c-0.3-0.4-0.6-0.7-1-1c-0.4-0.2-0.9-0.4-1.4-0.5c-0.5-0.1-1-0.2-1.5-0.2
		c-0.5,0-0.9,0-1.4,0.1c-0.5,0.1-0.9,0.2-1.3,0.4c-0.4,0.2-0.7,0.4-0.9,0.7c-0.2,0.3-0.4,0.7-0.4,1.2c0,0.5,0.2,1,0.6,1.3
		c0.4,0.4,0.9,0.6,1.4,0.9s1.2,0.4,2,0.6c0.7,0.2,1.5,0.3,2.2,0.5c0.8,0.2,1.5,0.4,2.3,0.6c0.7,0.2,1.4,0.6,2,1
		c0.6,0.4,1,0.9,1.4,1.5c0.4,0.6,0.5,1.4,0.5,2.3c0,1.1-0.2,2.1-0.7,2.8c-0.5,0.8-1.1,1.4-1.9,1.8c-0.8,0.5-1.6,0.8-2.6,1
		c-1,0.2-1.9,0.3-2.9,0.3c-1,0-2-0.1-3-0.3s-1.8-0.6-2.5-1.1c-0.7-0.5-1.3-1.2-1.8-2c-0.4-0.8-0.7-1.8-0.7-3h3.1
		C122.7,348.4,122.8,349,123.1,349.5z"/>
	<path class="st2" d="M147,334.8v2.7h-3.8v11.7c0,0.4,0,0.7,0.1,0.9c0.1,0.2,0.2,0.4,0.3,0.5c0.2,0.1,0.4,0.2,0.7,0.2
		c0.3,0,0.7,0.1,1.2,0.1h1.4v2.7h-2.4c-0.8,0-1.5-0.1-2.1-0.2c-0.6-0.1-1-0.3-1.4-0.6s-0.6-0.7-0.8-1.2c-0.2-0.5-0.3-1.2-0.3-2.1
		v-12H137v-2.7h3.2v-5.7h3.1v5.7H147z"/>
	<path class="st2" d="M176,353.7l-3.8-15h-0.1l-3.8,15H165l-6.1-18.9h3.4l4.3,15.4h0.1l3.8-15.4h3.4l3.9,15.4h0.1l4.2-15.4h3.2
		l-6,18.9H176z"/>
	<path class="st2" d="M205,353.6c-0.5,0.3-1.3,0.5-2.2,0.5c-0.8,0-1.4-0.2-1.9-0.7c-0.5-0.5-0.7-1.2-0.7-2.2c-0.9,1-1.8,1.8-3,2.2
		c-1.1,0.4-2.4,0.7-3.7,0.7c-0.9,0-1.7-0.1-2.4-0.3c-0.8-0.2-1.4-0.5-2-0.9c-0.6-0.4-1-1-1.3-1.6s-0.5-1.5-0.5-2.4
		c0-1.1,0.2-1.9,0.5-2.6s0.8-1.2,1.4-1.7c0.6-0.4,1.3-0.7,2-1s1.6-0.4,2.4-0.5c0.9-0.2,1.7-0.3,2.4-0.4c0.8-0.1,1.4-0.2,2-0.4
		c0.6-0.2,1-0.4,1.4-0.7c0.3-0.3,0.5-0.7,0.5-1.3c0-0.7-0.1-1.2-0.4-1.6c-0.3-0.4-0.6-0.7-1-0.9c-0.4-0.2-0.9-0.4-1.4-0.4
		c-0.5-0.1-1-0.1-1.5-0.1c-1.3,0-2.4,0.2-3.3,0.7c-0.9,0.5-1.4,1.4-1.4,2.8H188c0-1.2,0.3-2.2,0.7-3c0.4-0.8,1-1.5,1.8-2
		c0.7-0.5,1.6-0.9,2.5-1.1c0.9-0.2,1.9-0.3,3-0.3c0.9,0,1.7,0.1,2.5,0.2c0.8,0.1,1.6,0.4,2.3,0.7c0.7,0.4,1.2,0.9,1.6,1.6
		c0.4,0.7,0.6,1.6,0.6,2.7v9.7c0,0.7,0,1.3,0.1,1.6c0.1,0.3,0.4,0.5,0.9,0.5c0.3,0,0.6,0,0.9-0.1V353.6z M200,343.9
		c-0.4,0.3-0.9,0.5-1.5,0.6c-0.6,0.1-1.3,0.2-2,0.3c-0.7,0.1-1.4,0.2-2.1,0.3c-0.7,0.1-1.3,0.3-1.9,0.5c-0.6,0.2-1,0.6-1.4,1
		c-0.4,0.4-0.5,1.1-0.5,1.8c0,0.5,0.1,0.9,0.3,1.3c0.2,0.4,0.5,0.6,0.8,0.9c0.3,0.2,0.7,0.4,1.1,0.5s0.9,0.1,1.4,0.1
		c1,0,1.9-0.1,2.6-0.4s1.3-0.6,1.8-1.1c0.5-0.4,0.8-0.9,1-1.4c0.2-0.5,0.3-1,0.3-1.4V343.9z"/>
	<path class="st2" d="M215.3,356.2c-0.4,0.9-0.7,1.7-1.1,2.3c-0.4,0.6-0.7,1.1-1.2,1.6c-0.4,0.4-0.9,0.7-1.4,0.9
		c-0.5,0.2-1.1,0.3-1.8,0.3c-0.4,0-0.7,0-1.1-0.1c-0.4,0-0.7-0.1-1.1-0.3v-2.8c0.3,0.1,0.6,0.2,0.9,0.3c0.4,0.1,0.7,0.1,0.9,0.1
		c0.6,0,1.2-0.2,1.6-0.5c0.4-0.3,0.7-0.7,1-1.3l1.3-3.2l-7.5-18.8h3.5l5.5,15.4h0.1l5.3-15.4h3.3L215.3,356.2z"/>
	<path class="st2" d="M244.3,334.8v2.7h-3.8v11.7c0,0.4,0,0.7,0.1,0.9c0.1,0.2,0.2,0.4,0.3,0.5c0.2,0.1,0.4,0.2,0.7,0.2
		c0.3,0,0.7,0.1,1.2,0.1h1.4v2.7H242c-0.8,0-1.5-0.1-2.1-0.2c-0.6-0.1-1-0.3-1.4-0.6s-0.6-0.7-0.8-1.2c-0.2-0.5-0.3-1.2-0.3-2.1v-12
		h-3.2v-2.7h3.2v-5.7h3.1v5.7H244.3z"/>
	<path class="st2" d="M247.3,340.4c0.4-1.2,1-2.2,1.8-3.1c0.8-0.9,1.7-1.6,2.9-2.1c1.1-0.5,2.5-0.8,3.9-0.8c1.5,0,2.8,0.3,4,0.8
		s2.1,1.2,2.9,2.1c0.8,0.9,1.4,1.9,1.8,3.1c0.4,1.2,0.6,2.5,0.6,3.9s-0.2,2.7-0.6,3.9c-0.4,1.2-1,2.2-1.8,3.1
		c-0.8,0.9-1.7,1.6-2.9,2.1s-2.5,0.7-4,0.7c-1.5,0-2.8-0.2-3.9-0.7c-1.1-0.5-2.1-1.2-2.9-2.1c-0.8-0.9-1.4-1.9-1.8-3.1
		c-0.4-1.2-0.6-2.5-0.6-3.9S246.9,341.6,247.3,340.4z M250.5,347.3c0.3,0.9,0.7,1.6,1.3,2.2c0.5,0.6,1.2,1.1,1.9,1.4
		c0.7,0.3,1.5,0.5,2.3,0.5c0.8,0,1.6-0.2,2.3-0.5c0.7-0.3,1.3-0.8,1.9-1.4c0.5-0.6,1-1.3,1.3-2.2c0.3-0.9,0.5-1.9,0.5-3
		s-0.2-2.2-0.5-3c-0.3-0.9-0.7-1.6-1.3-2.2c-0.5-0.6-1.2-1.1-1.9-1.4c-0.7-0.3-1.5-0.5-2.3-0.5c-0.8,0-1.6,0.2-2.3,0.5
		c-0.7,0.3-1.3,0.8-1.9,1.4c-0.5,0.6-1,1.4-1.3,2.2c-0.3,0.9-0.5,1.9-0.5,3S250.2,346.4,250.5,347.3z"/>
	<path class="st2" d="M277,337.5v-2.7h3.2V332c0-1.5,0.4-2.7,1.3-3.5c0.9-0.8,2.2-1.2,3.9-1.2c0.3,0,0.6,0,1,0.1
		c0.4,0,0.7,0.1,1,0.2v2.7c-0.3-0.1-0.6-0.2-0.9-0.2c-0.3,0-0.6-0.1-0.9-0.1c-0.8,0-1.3,0.1-1.8,0.4c-0.4,0.3-0.6,0.9-0.6,1.7v2.6
		h3.6v2.7h-3.6v16.1h-3.1v-16.1H277z"/>
	<path class="st2" d="M289.9,331.4v-3.8h3.1v3.8H289.9z M293,334.8v18.9h-3.1v-18.9H293z"/>
</g>
<g class="st1">
	<path class="st2" d="M300.7,334.8v3h0.1c1.3-2.3,3.3-3.4,6.1-3.4c1.2,0,2.3,0.2,3.1,0.5c0.8,0.3,1.5,0.8,2,1.4s0.9,1.3,1.1,2.2
		c0.2,0.8,0.3,1.8,0.3,2.8v12.4h-3.1v-12.8c0-1.2-0.3-2.1-1-2.8c-0.7-0.7-1.6-1-2.8-1c-0.9,0-1.8,0.1-2.5,0.4
		c-0.7,0.3-1.3,0.7-1.7,1.2c-0.5,0.5-0.8,1.2-1,1.9c-0.2,0.7-0.3,1.5-0.3,2.4v10.7h-3.1v-18.9H300.7z"/>
</g>
<g class="st1">
	<path class="st2" d="M331.1,353.7v-2.6H331c-0.5,1-1.3,1.8-2.4,2.3c-1.1,0.5-2.3,0.7-3.6,0.7c-1.5,0-2.7-0.3-3.8-0.8
		c-1.1-0.5-2-1.3-2.7-2.2c-0.7-0.9-1.3-1.9-1.6-3.1s-0.5-2.5-0.5-3.8c0-1.3,0.2-2.6,0.5-3.8c0.4-1.2,0.9-2.2,1.6-3.1
		c0.7-0.9,1.6-1.6,2.7-2.1s2.3-0.8,3.8-0.8c0.5,0,1,0,1.6,0.1c0.6,0.1,1.1,0.3,1.7,0.5c0.6,0.2,1.1,0.5,1.6,0.9
		c0.5,0.4,0.9,0.8,1.3,1.4h0.1v-9.7h3.1v26.1H331.1z M319.9,347c0.2,0.8,0.6,1.6,1.1,2.2c0.5,0.7,1.1,1.2,1.8,1.6
		c0.7,0.4,1.6,0.6,2.6,0.6c1,0,1.9-0.2,2.7-0.6c0.7-0.4,1.3-1,1.8-1.6c0.5-0.7,0.8-1.4,1-2.3c0.2-0.9,0.3-1.7,0.3-2.6
		c0-0.9-0.1-1.8-0.3-2.7c-0.2-0.9-0.6-1.6-1-2.3c-0.5-0.7-1.1-1.2-1.8-1.6c-0.8-0.4-1.7-0.6-2.7-0.6c-1,0-1.9,0.2-2.7,0.6
		c-0.7,0.4-1.3,1-1.8,1.6c-0.4,0.7-0.8,1.5-0.9,2.3c-0.2,0.9-0.3,1.8-0.3,2.7C319.6,345.3,319.7,346.1,319.9,347z"/>
	<path class="st2" d="M365.8,353.6c-0.5,0.3-1.3,0.5-2.2,0.5c-0.8,0-1.4-0.2-1.9-0.7c-0.5-0.5-0.7-1.2-0.7-2.2c-0.9,1-1.8,1.8-3,2.2
		c-1.1,0.4-2.4,0.7-3.7,0.7c-0.9,0-1.7-0.1-2.4-0.3c-0.8-0.2-1.4-0.5-2-0.9c-0.6-0.4-1-1-1.3-1.6s-0.5-1.5-0.5-2.4
		c0-1.1,0.2-1.9,0.5-2.6s0.8-1.2,1.4-1.7c0.6-0.4,1.3-0.7,2-1s1.6-0.4,2.4-0.5c0.9-0.2,1.7-0.3,2.4-0.4c0.8-0.1,1.4-0.2,2-0.4
		c0.6-0.2,1-0.4,1.4-0.7c0.3-0.3,0.5-0.7,0.5-1.3c0-0.7-0.1-1.2-0.4-1.6c-0.3-0.4-0.6-0.7-1-0.9c-0.4-0.2-0.9-0.4-1.4-0.4
		c-0.5-0.1-1-0.1-1.5-0.1c-1.3,0-2.4,0.2-3.3,0.7c-0.9,0.5-1.4,1.4-1.4,2.8h-3.1c0-1.2,0.3-2.2,0.7-3c0.4-0.8,1-1.5,1.8-2
		c0.7-0.5,1.6-0.9,2.5-1.1c0.9-0.2,1.9-0.3,3-0.3c0.9,0,1.7,0.1,2.5,0.2c0.8,0.1,1.6,0.4,2.3,0.7c0.7,0.4,1.2,0.9,1.6,1.6
		c0.4,0.7,0.6,1.6,0.6,2.7v9.7c0,0.7,0,1.3,0.1,1.6c0.1,0.3,0.4,0.5,0.9,0.5c0.3,0,0.6,0,0.9-0.1V353.6z M360.8,343.9
		c-0.4,0.3-0.9,0.5-1.5,0.6c-0.6,0.1-1.3,0.2-2,0.3c-0.7,0.1-1.4,0.2-2.1,0.3c-0.7,0.1-1.3,0.3-1.9,0.5c-0.6,0.2-1,0.6-1.4,1
		c-0.4,0.4-0.5,1.1-0.5,1.8c0,0.5,0.1,0.9,0.3,1.3c0.2,0.4,0.5,0.6,0.8,0.9c0.3,0.2,0.7,0.4,1.1,0.5s0.9,0.1,1.4,0.1
		c1,0,1.9-0.1,2.6-0.4s1.3-0.6,1.8-1.1c0.5-0.4,0.8-0.9,1-1.4c0.2-0.5,0.3-1,0.3-1.4V343.9z"/>
	<path class="st2" d="M382.1,327.6v9.7h0.1c0.5-1,1.3-1.8,2.4-2.3c1.1-0.5,2.3-0.7,3.6-0.7c1.5,0,2.7,0.3,3.8,0.8
		c1.1,0.5,2,1.3,2.7,2.2s1.3,2,1.6,3.2c0.4,1.2,0.5,2.5,0.5,3.8c0,1.3-0.2,2.6-0.5,3.8c-0.4,1.2-0.9,2.2-1.6,3.1
		c-0.7,0.9-1.6,1.6-2.7,2.1c-1.1,0.5-2.3,0.8-3.8,0.8c-0.5,0-1,0-1.6-0.1c-0.6-0.1-1.1-0.3-1.7-0.5c-0.6-0.2-1.1-0.5-1.6-0.9
		c-0.5-0.4-0.9-0.8-1.3-1.4h-0.1v2.5h-3.1v-26.1H382.1z M393.2,341.5c-0.2-0.8-0.6-1.6-1.1-2.2s-1.1-1.2-1.8-1.6
		c-0.7-0.4-1.6-0.6-2.6-0.6c-1,0-1.9,0.2-2.7,0.6c-0.7,0.4-1.3,1-1.8,1.6c-0.5,0.7-0.8,1.4-1,2.3c-0.2,0.9-0.3,1.7-0.3,2.6
		c0,0.9,0.1,1.8,0.3,2.7c0.2,0.9,0.6,1.6,1,2.3c0.5,0.7,1.1,1.2,1.8,1.6c0.8,0.4,1.7,0.6,2.7,0.6c1.1,0,2-0.2,2.7-0.6
		c0.7-0.4,1.3-1,1.7-1.6c0.4-0.7,0.8-1.5,0.9-2.3c0.2-0.9,0.3-1.8,0.3-2.7C393.5,343.2,393.4,342.3,393.2,341.5z"/>
	<path class="st2" d="M417.2,353.6c-0.5,0.3-1.3,0.5-2.2,0.5c-0.8,0-1.4-0.2-1.9-0.7c-0.5-0.5-0.7-1.2-0.7-2.2c-0.9,1-1.8,1.8-3,2.2
		c-1.1,0.4-2.4,0.7-3.7,0.7c-0.9,0-1.7-0.1-2.4-0.3c-0.8-0.2-1.4-0.5-2-0.9c-0.6-0.4-1-1-1.3-1.6c-0.3-0.7-0.5-1.5-0.5-2.4
		c0-1.1,0.2-1.9,0.5-2.6c0.4-0.7,0.8-1.2,1.4-1.7c0.6-0.4,1.3-0.7,2-1s1.6-0.4,2.4-0.5c0.9-0.2,1.7-0.3,2.4-0.4
		c0.8-0.1,1.4-0.2,2-0.4c0.6-0.2,1-0.4,1.4-0.7c0.3-0.3,0.5-0.7,0.5-1.3c0-0.7-0.1-1.2-0.4-1.6c-0.3-0.4-0.6-0.7-1-0.9
		c-0.4-0.2-0.9-0.4-1.4-0.4c-0.5-0.1-1-0.1-1.5-0.1c-1.3,0-2.4,0.2-3.3,0.7c-0.9,0.5-1.4,1.4-1.4,2.8h-3.1c0-1.2,0.3-2.2,0.7-3
		c0.4-0.8,1-1.5,1.8-2c0.7-0.5,1.6-0.9,2.5-1.1c0.9-0.2,1.9-0.3,3-0.3c0.9,0,1.7,0.1,2.5,0.2c0.8,0.1,1.6,0.4,2.3,0.7
		c0.7,0.4,1.2,0.9,1.6,1.6c0.4,0.7,0.6,1.6,0.6,2.7v9.7c0,0.7,0,1.3,0.1,1.6s0.4,0.5,0.9,0.5c0.3,0,0.6,0,0.9-0.1V353.6z
		 M412.2,343.9c-0.4,0.3-0.9,0.5-1.5,0.6c-0.6,0.1-1.3,0.2-2,0.3c-0.7,0.1-1.4,0.2-2.1,0.3c-0.7,0.1-1.3,0.3-1.9,0.5
		c-0.6,0.2-1,0.6-1.4,1c-0.4,0.4-0.5,1.1-0.5,1.8c0,0.5,0.1,0.9,0.3,1.3s0.5,0.6,0.8,0.9c0.3,0.2,0.7,0.4,1.1,0.5
		c0.4,0.1,0.9,0.1,1.4,0.1c1,0,1.9-0.1,2.6-0.4c0.7-0.3,1.3-0.6,1.8-1.1c0.5-0.4,0.8-0.9,1-1.4c0.2-0.5,0.3-1,0.3-1.4V343.9z"/>
</g>
<g class="st1">
	<path class="st2" d="M422.9,334.8v4h0.1c0.8-1.5,1.7-2.7,2.8-3.4c1.1-0.7,2.5-1.1,4.2-1v3.3c-1.2,0-2.3,0.2-3.2,0.5
		s-1.6,0.8-2.1,1.5s-0.9,1.5-1.2,2.4s-0.4,2-0.4,3.2v8.4H420v-18.9H422.9z"/>
</g>
<g class="st1">
	<path class="st2" d="M446.2,359c-1.4,1.5-3.6,2.3-6.6,2.3c-0.9,0-1.8-0.1-2.7-0.3c-0.9-0.2-1.7-0.5-2.5-0.9c-0.7-0.4-1.4-1-1.8-1.7
		c-0.5-0.7-0.8-1.6-0.8-2.6h3.1c0,0.6,0.2,1,0.5,1.4c0.3,0.4,0.7,0.7,1.2,0.9c0.5,0.2,1,0.4,1.6,0.5c0.6,0.1,1.1,0.2,1.6,0.2
		c1,0,1.9-0.2,2.6-0.5c0.7-0.4,1.3-0.8,1.8-1.5c0.5-0.6,0.8-1.4,1-2.2s0.3-1.8,0.3-2.9v-1.2h-0.1c-0.5,1.2-1.3,2-2.4,2.6
		c-1.1,0.5-2.2,0.8-3.4,0.8c-1.4,0-2.6-0.3-3.7-0.8c-1-0.5-1.9-1.2-2.6-2.1c-0.7-0.9-1.2-1.9-1.6-3s-0.5-2.4-0.5-3.7
		c0-1.1,0.1-2.3,0.4-3.4c0.3-1.2,0.8-2.2,1.5-3.2c0.7-1,1.6-1.8,2.7-2.4s2.5-0.9,4.1-0.9c1.2,0,2.3,0.3,3.3,0.8
		c1,0.5,1.8,1.3,2.3,2.4h0v-2.7h2.9v17.3C448.3,355.2,447.6,357.5,446.2,359z M442.2,350.5c0.7-0.4,1.3-1,1.7-1.7
		c0.4-0.7,0.8-1.5,1-2.4c0.2-0.9,0.3-1.8,0.3-2.6c0-0.8-0.1-1.6-0.3-2.4s-0.5-1.5-0.9-2.2c-0.4-0.6-1-1.2-1.7-1.6
		c-0.7-0.4-1.5-0.6-2.5-0.6c-1,0-1.8,0.2-2.6,0.6c-0.7,0.4-1.3,0.9-1.7,1.5c-0.5,0.6-0.8,1.4-1,2.2s-0.3,1.7-0.3,2.6
		c0,0.9,0.1,1.7,0.3,2.6s0.5,1.6,0.9,2.3s1,1.3,1.6,1.7c0.7,0.4,1.5,0.6,2.6,0.6S441.5,350.9,442.2,350.5z"/>
	<path class="st2" d="M469.7,353.6c-0.5,0.3-1.3,0.5-2.2,0.5c-0.8,0-1.4-0.2-1.9-0.7c-0.5-0.5-0.7-1.2-0.7-2.2c-0.9,1-1.8,1.8-3,2.2
		c-1.1,0.4-2.4,0.7-3.7,0.7c-0.9,0-1.7-0.1-2.4-0.3s-1.4-0.5-2-0.9s-1-1-1.3-1.6c-0.3-0.7-0.5-1.5-0.5-2.4c0-1.1,0.2-1.9,0.5-2.6
		c0.4-0.7,0.8-1.2,1.4-1.7c0.6-0.4,1.3-0.7,2-1s1.6-0.4,2.4-0.5c0.9-0.2,1.7-0.3,2.4-0.4s1.4-0.2,2-0.4c0.6-0.2,1-0.4,1.4-0.7
		c0.3-0.3,0.5-0.7,0.5-1.3c0-0.7-0.1-1.2-0.4-1.6c-0.3-0.4-0.6-0.7-1-0.9c-0.4-0.2-0.9-0.4-1.4-0.4s-1-0.1-1.5-0.1
		c-1.3,0-2.4,0.2-3.3,0.7c-0.9,0.5-1.4,1.4-1.4,2.8h-3.1c0-1.2,0.3-2.2,0.7-3c0.4-0.8,1-1.5,1.8-2c0.7-0.5,1.6-0.9,2.5-1.1
		c0.9-0.2,1.9-0.3,3-0.3c0.9,0,1.7,0.1,2.5,0.2s1.6,0.4,2.3,0.7c0.7,0.4,1.2,0.9,1.6,1.6c0.4,0.7,0.6,1.6,0.6,2.7v9.7
		c0,0.7,0,1.3,0.1,1.6c0.1,0.3,0.4,0.5,0.9,0.5c0.3,0,0.6,0,0.9-0.1V353.6z M464.6,343.9c-0.4,0.3-0.9,0.5-1.5,0.6
		c-0.6,0.1-1.3,0.2-2,0.3c-0.7,0.1-1.4,0.2-2.1,0.3c-0.7,0.1-1.3,0.3-1.9,0.5c-0.6,0.2-1,0.6-1.4,1s-0.5,1.1-0.5,1.8
		c0,0.5,0.1,0.9,0.3,1.3c0.2,0.4,0.5,0.6,0.8,0.9s0.7,0.4,1.1,0.5c0.4,0.1,0.9,0.1,1.4,0.1c1,0,1.9-0.1,2.6-0.4
		c0.7-0.3,1.3-0.6,1.8-1.1s0.8-0.9,1-1.4s0.3-1,0.3-1.4V343.9z"/>
	<path class="st2" d="M472.7,331.4v-3.8h3.1v3.8H472.7z M475.8,334.8v18.9h-3.1v-18.9H475.8z"/>
	<path class="st2" d="M483.6,334.8v3h0.1c1.3-2.3,3.3-3.4,6.1-3.4c1.2,0,2.3,0.2,3.1,0.5c0.8,0.3,1.5,0.8,2,1.4s0.9,1.3,1.1,2.2
		c0.2,0.8,0.3,1.8,0.3,2.8v12.4h-3.1v-12.8c0-1.2-0.3-2.1-1-2.8c-0.7-0.7-1.6-1-2.8-1c-0.9,0-1.8,0.1-2.5,0.4
		c-0.7,0.3-1.3,0.7-1.7,1.2c-0.5,0.5-0.8,1.2-1,1.9c-0.2,0.7-0.3,1.5-0.3,2.4v10.7h-3.1v-18.9H483.6z"/>
</g>
</svg>
