<?xml version="1.0" encoding="utf-8"?>
<!-- Generator: Adobe Illustrator 19.1.0, SVG Export Plug-In . SVG Version: 6.00 Build 0)  -->
<svg version="1.1" id="Layer_1" xmlns="http://www.w3.org/2000/svg" xmlns:xlink="http://www.w3.org/1999/xlink" x="0px" y="0px"
	 viewBox="0 0 879 172" style="enable-background:new 0 0 879 172;" xml:space="preserve">
<style type="text/css">
	.st0{fill:none;}
	.st1{fill:#231F20;}
	.st2{font-family:'HelveticaNeue-Bold';}
	.st3{font-size:101.6526px;}
	.st4{letter-spacing:4;}
	.st5{letter-spacing:2;}
	.st6{letter-spacing:-2;}
	.st7{letter-spacing:-18;}
	.st8{font-family:'HelveticaNeue-Italic';}
	.st9{fill:#F9EC31;stroke:#231F20;stroke-miterlimit:10;}
	.st10{fill:#FDCD08;stroke:#231F20;stroke-miterlimit:10;}
	.st11{fill:#4868B0;stroke:#231F20;stroke-miterlimit:10;}
	.st12{fill:#FDCE07;}
	.st13{fill:#DF2128;stroke:#231F20;stroke-miterlimit:10;}
	.st14{fill:#111212;}
	.st15{fill:#DF2128;stroke:#111212;stroke-miterlimit:10;}
	.st16{fill:#FFFFFF;stroke:#231F20;stroke-miterlimit:10;}
	.st17{clip-path:url(#SVGID_2_);fill:#F9EC31;stroke:#231F20;stroke-miterlimit:10;}
	.st18{fill:#DF2128;}
	.st19{font-family:'HelveticaNeue';}
	.st20{font-size:36.4963px;}
</style>
<rect x="8.3" y="33.4" class="st0" width="514.8" height="89.6"/>
<text transform="matrix(1 0 0 1 8.2859 106.0283)"><tspan x="0" y="0" class="st1 st2 st3 st4">t</tspan><tspan x="39.8" y="0" class="st1 st2 st3 st5">r</tspan><tspan x="81.4" y="0" class="st1 st2 st3 st6">ad</tspan><tspan x="197.8" y="0" class="st1 st2 st3 st7">e</tspan><tspan x="237.9" y="0" class="st1 st2 st3"> </tspan><tspan x="266.1" y="0" class="st1 st8 st3 st4">f</tspan><tspan x="300.3" y="0" class="st1 st8 st3 st6">l</tspan><tspan x="320.8" y="0" class="st1 st8 st3">ash</tspan></text>
<g>
	<g>
		<path class="st9" d="M741,21.6c-2.2,1.6-4.4,3.2-6.7,4.7c4.9,4,9.8,7.9,14.7,11.8c0,0,0,0,0,0.1c-8.6-3.5-17.1-7.1-25.7-10.6
			c1.9-1.6,3.8-3.1,5.8-4.7c-4.9-3.9-9.8-7.7-14.6-11.5c0,0,0-0.1,0-0.1C723.2,14.8,732.1,18.2,741,21.6z"/>
		<path class="st10" d="M608.3,123.8c0,0,3.8-18.4-16.8-6c-20.6,12.5-30.7,24.7-30.7,26.4s-1.8,5.2,4.7,3.1
			c6.5-2.2,21.8-15.6,21.8-15.6s-18.4,16.3-18.4,24.5c0,0,1.9,4.1,23.6-17.7c0,0-10.3,10.5-11,23.8c0,0,1.6,4.7,20-24.4l2.7-5.1
			c0,0,8.1,8.3,15.3,10.1c7.2,1.8,9.7,3.2,15-4.9c5.2-8.1,6-12.2,6-12.2l-15.7-6.7c0,0-2.2,12.5-4.7,12.5S608.3,123.8,608.3,123.8z"
			/>
		<path class="st11" d="M663,119.7c0,0,17.9,5.4,23.7,5.4c0,0,8.7-3.2,11.9-10.8c0,0,1.5-11.5-1.2-14.3"/>
		<path class="st11" d="M730.7,40.1c0,0-116.6-53.1-116.6,55.6c0,0,2.3-5.2,9-11.9c0,0-6.9,22-5.1,31.1c0,0-0.1,8.7,6.1,11.6
			c0,0,10.5,7.2,19.6,3.6c0,0,18.4-10.5,23.1-22c0,0-5.2,11.4-7.2,13.4c0,0,22.6-0.3,38.3-23.1c0,0,8.2-13.6,16.2-21.7
			c0,0,15.5-10.8,18.8-10.8c0,0,20.9,15.5,37.9-6.1c0,0,30-17.3,90.3-3.2c0,0-9.4-13.7-37.6-15.5c0,0-49.3,2.3-52.7-1.1
			C767.3,36.4,750.9,19.9,730.7,40.1z"/>
		<g>
			<path class="st12" d="M823.4,40.9c0,0-38.2,1.8-49.7-0.1c1.9,5.7,2,11.6,0.7,17.1c9.7-4,38.5-12.8,86.6-1.5
				C861,56.4,851.6,42.7,823.4,40.9z"/>
			<path class="st1" d="M772.9,59.7l0.5-2.1c1.4-5.6,1.2-11.3-0.6-16.5l-0.6-1.7l1.8,0.3c11.2,1.9,49.1,0.1,49.5,0.1l0.1,0l0.1,0
				c28.4,1.8,38,15.4,38.4,16l1.6,2.3l-2.7-0.6c-47.5-11.1-75.9-2.7-85.9,1.5L772.9,59.7z M775.3,42.1c1.3,4.5,1.5,9.3,0.6,14.1
				c11.3-4.3,38.5-11.1,82-1.6c-4.2-3.9-14.5-11.3-34.4-12.6C821.3,42.1,788.2,43.6,775.3,42.1z"/>
		</g>
		<path class="st10" d="M697.5,115.2l-10.7,9.7l20.6,16.1c0,0-4.1,7.3,1.5,9.7c2.8,1.2,6.1-1.1,29.3-12.6
			c22.2-11,24.2-17.5,24.2-17.5s-1.1-6.5-28.5,10.9c0,0,17.3-13.7,21.7-21.8c0,0,1.6-12.3-31,15.3c0,0,14.2-14.1,12.9-17
			s-20.2,10.5-22.6,19C715,126.9,708.9,129.8,697.5,115.2z"/>
		<g>
			<path class="st13" d="M730.7,40.2c0,0-116.6-53.1-116.6,55.6c0,0,2.3-5.2,9-11.9c0,0-3.8,12.3-5,22.2
				c6.1,5.5,14.9,11.6,23.8,14.4c4.3,0.4,8.5,0.9,12.8,1.6c0.1,0,0.2,0.1,0.4,0.1c4.7-3.9,9.6-8.9,11.7-14.1c0,0-5.2,11.4-7.2,13.4
				c0,0,22.6-0.3,38.3-23.1c0,0,8.2-13.6,16.2-21.7c0,0,14.1-9.9,18.2-10.7c-0.2-0.5-0.3-1.1-0.5-1.6c-5.5-7.5-3.4-20.3,6.1-24
				c0.3-2.2,0.7-4.4,1-6.6C736.3,35.2,733.5,37.3,730.7,40.2z"/>
			<path class="st14" d="M738.5,32.7c-2.7,1.6-5.4,3.6-8,6.2c-3.1-1.3-16.3-6.8-32.6-10.1c-17.2-3.5-41.5-5.2-59.5,6.4
				C621.5,46,613,66.4,613,95.8v5l2.1-4.6c0,0,1.6-3.5,5.7-8.3c-1.2,4.3-2.9,11.2-3.7,17.4c0.2,0.2,0.4,0.3,0.7,0.5
				c0.4,0.4,0.9,0.8,1.3,1.2c1.1-9.8,5-22.6,5-22.8l1.3-4.2l-3.1,3.1c-3.4,3.4-5.7,6.4-7.1,8.6c0.8-26.4,8.9-44.8,24.3-54.7
				c33.3-21.5,90.2,3.9,90.7,4.2l0.7,0.3l0.5-0.5c2-2,4-3.7,6.1-5.1c-0.3,1.7-0.5,3.3-0.7,4.9c0.7-0.4,1.5-0.7,2.3-0.9
				c0.3-1.9,0.6-3.9,1-6l0.4-2.3L738.5,32.7z"/>
			<path class="st14" d="M732,64.9c-4.4,1.1-16.1,9.2-18.7,11c-8,8-16.1,21.3-16.4,21.8c-12.3,17.9-29.1,21.6-35.1,22.4
				c1.7-2.8,3.9-7.2,5.1-9.8c0.3-0.6,0.6-1.2,0.9-1.9l-2-0.9c-0.3,0.5-0.5,1.1-0.8,1.7c-2.5,4.7-7,9.1-11.4,12.5
				c0.4,0.1,0.7,0.1,1.1,0.1c0.6,0.1,1.1,0.3,1.6,0.5c1.1-1,2.3-2,3.4-3c-0.3,0.5-0.6,0.9-0.9,1.1l-1.9,1.9l2.7,0
				c0.2,0,23.3-0.6,39.2-23.6c0.1-0.1,8.2-13.6,15.9-21.3c6.1-4.2,15.3-10.1,17.9-10.6c0.1,0,0.1,0.1,0.2,0.2
				C732.5,66.4,732.2,65.6,732,64.9z"/>
		</g>
		<path class="st15" d="M772.7,40.2c0,0,3.1,17.9-39.9,24.7c0,0-10.6-5.4-2.2-25.6C730.7,39.2,748,15.4,772.7,40.2z"/>
		<g>
			<circle class="st16" cx="756.4" cy="46" r="10.2"/>
			<ellipse class="st1" cx="760.6" cy="44.3" rx="6" ry="6"/>
		</g>
		<path class="st9" d="M732.5,26.4c-2.2,1.6-4.4,3.2-6.7,4.7c4.9,4,9.8,7.9,14.7,11.8c0,0,0,0,0,0.1c-8.6-3.5-17.1-7.1-25.7-10.6
			c1.9-1.6,3.8-3.1,5.8-4.7c-4.9-3.9-9.8-7.7-14.6-11.5c0,0,0-0.1,0-0.1C714.7,19.5,723.6,23,732.5,26.4z"/>
		<circle class="st9" cx="738.9" cy="40.8" r="3.4"/>
		<g>
			<defs>
				<path id="SVGID_1_" d="M730.9,40.2c0,0-116.6-53.1-116.6,55.6c0,0,2.3-5.2,9-11.9c0,0-3.8,12.3-5,22.2
					c6.1,5.5,14.9,11.6,23.8,14.4c4.3,0.4,8.5,0.9,12.8,1.6c0.1,0,0.2,0.1,0.4,0.1c4.7-3.9,9.6-8.9,11.7-14.1c0,0-5.2,11.4-7.2,13.4
					c0,0,22.6-0.3,38.3-23.1c0,0,8.2-13.6,16.2-21.7c0,0,14.1-9.9,18.2-10.7c-0.2-0.5-0.3-1.1-0.5-1.6c-5.5-7.5-3.4-20.3,6.1-24
					c0.3-2.2,0.7-4.4,1-6.6C736.5,35.2,733.7,37.3,730.9,40.2z"/>
			</defs>
			<clipPath id="SVGID_2_">
				<use xlink:href="#SVGID_1_"  style="overflow:visible;"/>
			</clipPath>
			<path class="st17" d="M702.6,100.4c-1.8-3.8-3.5-7.4-5.3-11.2c-7.2,6.2-14.3,12.4-21.4,18.6c0,0-0.1-0.1-0.1-0.1
				c7.5-11.8,15-23.5,22.6-35.4c1.8,3.3,3.6,6.5,5.4,9.8c7-6.2,14-12.4,21-18.6c0,0,0.1,0.1,0.1,0.1
				C717.5,75.8,710.1,88,702.6,100.4z"/>
		</g>
	</g>
	<g>
		<polygon class="st18" points="615.7,44 497.3,43 615.7,42 		"/>
	</g>
	<g>
		<polygon class="st18" points="591.6,58.9 572.1,57.9 591.6,56.9 		"/>
	</g>
	<g>
		<polygon class="st18" points="572.1,80.1 497.3,79.1 572.1,78.1 		"/>
	</g>
	<g>
		<polygon class="st18" points="581.8,101 541.4,100 581.8,99 		"/>
	</g>
</g>
<rect x="7.7" y="132.6" class="st0" width="546.4" height="67.8"/>
<text transform="matrix(1 0 0 1 7.6716 158.6772)"><tspan x="0" y="0" class="st1 st19 st20">The fastest way to fi</tspan><tspan x="327.8" y="0" class="st1 st19 st20">n</tspan><tspan x="347.3" y="0" class="st1 st19 st20">d a ba</tspan><tspan x="450.1" y="0" class="st1 st19 st20">r</tspan><tspan x="462" y="0" class="st1 st19 st20">gain</tspan></text>
</svg>
