<?xml version="1.0" encoding="utf-8"?>
<!-- Generator: Adobe Illustrator 19.1.0, SVG Export Plug-In . SVG Version: 6.00 Build 0)  -->
<svg version="1.1" id="Layer_1" xmlns="http://www.w3.org/2000/svg" xmlns:xlink="http://www.w3.org/1999/xlink" x="0px" y="0px"
	 viewBox="0 0 437.3 411" style="enable-background:new 0 0 437.3 411;" xml:space="preserve">
<style type="text/css">
	.st0{fill:#496AB2;}
	.st1{fill:#FFFFFF;}
</style>
<g>
	<path class="st0" d="M395.3,394.6H42.1c-6.6,0-12-5.4-12-12V29.5c0-6.6,5.4-12,12-12h353.2c6.6,0,12,5.4,12,12v353.2
		C407.3,389.2,401.9,394.6,395.3,394.6z"/>
</g>
<g>
	<path class="st1" d="M326.6,202.9c2.9-2.3,5.6-4.7,8.6-7.1c-2.9-3.5-5.7-6.8-8.5-10.2c2.9-3.4,5.7-6.8,8.5-10.2
		c-3.5-3-6.8-5.7-10.2-8.6c2.3-4,4.4-7.7,6.6-11.5c-3.9-2.3-7.6-4.4-11.5-6.7c1.5-4.2,3-8.3,4.5-12.5c-3.6-1.3-6.9-2.7-10.3-3.7
		c-1.8-0.6-2.2-1.4-1.8-3.1c0.7-3.5,1.8-7,2.5-10.7c-4.5-0.8-8.6-1.6-12.6-2.4c0-4.5,0-9.5,0-13.5c-5,0-9.9,0-14.3,0
		c-0.8-5-1.6-8.6-2.4-13c-3.9,0.7-7.5,1.3-11.1,2c-1.6,0.3-2.3,0-2.8-1.6c-1.1-3.5-2.5-6.9-3.8-10.5c-4.3,1.5-8.3,3-12.5,4.5
		c-2.3-3.9-4.5-7.6-6.7-11.5c-3.9,2.3-7.7,4.4-11.5,6.6c-2.9-3.5-5.7-6.8-8.6-10.1c-3.6,3-6.9,5.7-10.2,8.5
		c-3.5-2.9-6.8-5.7-10.2-8.5c-2.9,3.5-5.7,6.8-8.6,10.2c-3.9-2.3-7.6-4.4-11.5-6.6c-2.3,3.9-4.5,7.7-6.7,11.5
		c-4.2-1.5-8.3-3-12.5-4.5c-1.3,3.4-2.6,6.7-3.6,10c-0.6,2.1-1.6,2.5-3.6,2c-3.4-0.8-6.9-1.4-10.4-2c-0.8,4.5-1.6,8-2.4,13
		c-4.5,0-7.7,0-12.7,0c0,5,0,9.1,0,13.4c-5,0.8-9,1.6-13.4,2.4c0.6,3.8,0.9,7.3,1.8,10.8c0.5,2-0.2,2.7-1.9,3.2
		c-3.4,1.1-6.7,2.4-10.2,3.7c1.6,4.3,3,8.3,4.5,12.5c-3.9,2.3-7.7,4.5-11.5,6.7c2.3,4,4.4,7.7,6.6,11.5c-3.4,2.9-6.8,5.7-10.2,8.6
		c3,3.5,5.7,6.9,8.5,10.2c-2.9,3.5-5.7,6.8-8.5,10.2c3.5,3,6.8,5.7,10.1,8.6c-2.2,3.9-4.4,7.6-6.6,11.5c3.9,2.3,7.7,4.5,11.5,6.7
		c-1.5,4.2-3,8.3-4.5,12.5c3.6,1.3,6.8,2.7,10.2,3.7c2,0.6,2.3,1.6,1.9,3.5c-0.8,3.4-1,6.9-1.7,10.5c4.5,0.8,9.4,1.6,13.4,2.4
		c0,4.5,0,8.5,0,12.5c5,0,8.4,0,12.7,0c0.8,5,1.6,9.2,2.4,13.5c4-0.7,7.6-1.1,11.2-1.8c1.5-0.3,2.2,0.1,2.7,1.6
		c1.2,3.5,2.5,7,3.9,10.7c4.3-1.6,8.4-3,12.5-4.5c2.3,3.9,4.5,7.7,6.7,11.5c3-1.7,5.7-3.3,8.4-4.8c3.1-1.8,3.1-1.8,5.4,0.9
		c2.1,2.4,4.1,4.9,6.3,7.4c3.5-2.9,6.8-5.7,10.2-8.5c3.5,2.9,6.8,5.7,10.2,8.5c2.9-3.5,5.7-6.8,8.6-10.2c3.9,2.2,7.6,4.4,11.5,6.6
		c2.3-3.9,4.4-7.6,6.7-11.5c4.2,1.5,8.3,3,12.5,4.5c1.3-3.6,2.7-6.9,3.7-10.3c0.6-1.8,1.4-2.2,3.1-1.8c3.5,0.7,7,1,10.7,1.6
		c0.8-4.5,1.6-8.5,2.4-13.5c4.5,0,9.3,0,14.3,0c0-5,0-8.1,0-12.5c4-0.8,8.2-1.6,12.6-2.4c-0.7-3.9-1.5-7.5-2.3-11.1
		c-0.3-1.4-0.2-2.2,1.3-2.7c3.5-1.2,6.9-2.5,10.6-3.9c-1.5-4.3-3-8.4-4.5-12.5c3.9-2.3,7.7-4.5,11.5-6.7c-2-3.4-3.7-6.6-5.7-9.7
		C325.1,204.6,325.4,203.9,326.6,202.9z M183.5,208.5h-8.6l-21.5-34h0v34h-8v-47h8.6l21.5,34h0.8v-34h7V208.5z M228.5,208.5h-34v-47
		h34v7h-26v13h23v7h-23v13h26V208.5z M278.9,208.5h-8.4l-9.4-36H261l-9.6,36h-8.5l-12.4-47h8.4l8.5,36h0.1l9.5-36h8.5l9.2,36h0.1
		l8.8-36h8.4L278.9,208.5z"/>
</g>
<g>
	<path class="st1" d="M142.6,335.3h3.5l8.6,13.8h0.1v-13.8h3.1V354h-3.5l-8.5-13.8h-0.1V354h-3.1V335.3z"/>
	<path class="st1" d="M163.6,348c0,0.5,0.1,1,0.2,1.5c0.1,0.5,0.4,0.9,0.7,1.3c0.3,0.4,0.7,0.7,1.1,0.9c0.5,0.2,1,0.3,1.6,0.3
		c0.9,0,1.6-0.2,2.1-0.6c0.5-0.4,0.9-0.9,1.2-1.7h2.8c-0.2,0.7-0.4,1.4-0.8,2c-0.4,0.6-0.9,1.1-1.4,1.5c-0.5,0.4-1.2,0.7-1.8,0.9
		c-0.7,0.2-1.4,0.3-2.1,0.3c-1.1,0-2-0.2-2.8-0.5c-0.8-0.3-1.5-0.8-2.1-1.5c-0.6-0.6-1-1.4-1.3-2.3c-0.3-0.9-0.4-1.8-0.4-2.9
		c0-1,0.2-1.9,0.5-2.7c0.3-0.9,0.7-1.6,1.3-2.3c0.6-0.7,1.3-1.2,2.1-1.6c0.8-0.4,1.7-0.6,2.7-0.6c1.1,0,2,0.2,2.9,0.7
		c0.8,0.4,1.6,1,2.1,1.8c0.6,0.7,1,1.6,1.2,2.5c0.3,1,0.3,1.9,0.2,3H163.6z M170.6,346c0-0.5-0.1-0.9-0.3-1.4s-0.4-0.8-0.7-1.1
		c-0.3-0.3-0.6-0.6-1.1-0.8c-0.4-0.2-0.9-0.3-1.4-0.3c-0.5,0-1,0.1-1.4,0.3c-0.4,0.2-0.8,0.4-1.1,0.8c-0.3,0.3-0.6,0.7-0.7,1.1
		c-0.2,0.4-0.3,0.9-0.3,1.4H170.6z"/>
	<path class="st1" d="M174.7,340.4h3.2l2.7,10.2h0.1l2.6-10.2h3l2.4,10.2h0.1l2.8-10.2h3l-4.3,13.6h-3.1l-2.5-10.1h-0.1L182,354
		h-3.2L174.7,340.4z"/>
	<path class="st1" d="M204.1,335.3h3.3v15.9h9.5v2.8h-12.8V335.3z"/>
	<path class="st1" d="M218.9,335.3h3v2.8h-3V335.3z M218.9,340.4h3V354h-3V340.4z"/>
	<path class="st1" d="M227.4,349.7c0.1,0.9,0.4,1.5,1,1.8c0.6,0.4,1.3,0.5,2.1,0.5c0.3,0,0.6,0,1-0.1c0.4,0,0.7-0.1,1-0.2
		c0.3-0.1,0.6-0.3,0.8-0.5c0.2-0.2,0.3-0.5,0.3-0.9c0-0.4-0.2-0.7-0.4-0.9c-0.3-0.2-0.6-0.4-1-0.6c-0.4-0.1-0.9-0.3-1.4-0.4
		c-0.5-0.1-1.1-0.2-1.6-0.3c-0.6-0.1-1.1-0.3-1.6-0.4c-0.5-0.2-1-0.4-1.4-0.7s-0.7-0.7-1-1.1c-0.2-0.5-0.4-1-0.4-1.7
		c0-0.7,0.2-1.4,0.5-1.9c0.4-0.5,0.8-0.9,1.4-1.2c0.6-0.3,1.2-0.5,1.8-0.6s1.3-0.2,1.9-0.2c0.7,0,1.4,0.1,2,0.2
		c0.6,0.1,1.2,0.4,1.7,0.7c0.5,0.3,0.9,0.8,1.3,1.3c0.3,0.5,0.6,1.2,0.6,1.9h-3.1c-0.1-0.7-0.5-1.2-1-1.4c-0.5-0.2-1.1-0.4-1.8-0.4
		c-0.2,0-0.5,0-0.8,0.1s-0.6,0.1-0.8,0.2s-0.5,0.2-0.6,0.4c-0.2,0.2-0.3,0.4-0.3,0.7c0,0.4,0.1,0.7,0.4,0.9c0.3,0.2,0.6,0.4,1,0.6
		c0.4,0.1,0.9,0.3,1.4,0.4c0.5,0.1,1.1,0.2,1.6,0.3c0.5,0.1,1.1,0.3,1.6,0.4c0.5,0.2,1,0.4,1.4,0.7c0.4,0.3,0.7,0.7,1,1.1
		c0.3,0.5,0.4,1,0.4,1.7c0,0.8-0.2,1.5-0.6,2.1c-0.4,0.6-0.8,1-1.4,1.4c-0.6,0.4-1.2,0.6-2,0.8c-0.7,0.2-1.4,0.2-2.1,0.2
		c-0.9,0-1.7-0.1-2.4-0.3c-0.7-0.2-1.4-0.5-1.9-0.9s-1-0.9-1.3-1.5c-0.3-0.6-0.5-1.3-0.5-2.1H227.4z"/>
	<path class="st1" d="M237.4,340.4h2.3v-4.1h3v4.1h2.7v2.2h-2.7v7.3c0,0.3,0,0.6,0,0.8c0,0.2,0.1,0.4,0.2,0.6
		c0.1,0.2,0.2,0.3,0.4,0.4c0.2,0.1,0.5,0.1,0.8,0.1c0.2,0,0.4,0,0.6,0c0.2,0,0.4,0,0.6-0.1v2.3c-0.3,0-0.7,0.1-1,0.1
		c-0.3,0-0.6,0.1-1,0.1c-0.8,0-1.4-0.1-1.9-0.2c-0.5-0.1-0.9-0.4-1.1-0.7c-0.3-0.3-0.5-0.7-0.6-1.1c-0.1-0.4-0.2-0.9-0.2-1.5v-8
		h-2.3V340.4z"/>
	<path class="st1" d="M247.6,335.3h3v2.8h-3V335.3z M247.6,340.4h3V354h-3V340.4z"/>
	<path class="st1" d="M253.9,340.4h2.8v2l0.1,0.1c0.5-0.8,1.1-1.3,1.8-1.8s1.6-0.6,2.4-0.6c1.5,0,2.7,0.4,3.5,1.2
		c0.9,0.8,1.3,1.9,1.3,3.5v9.3h-3v-8.5c0-1.1-0.3-1.8-0.7-2.3c-0.4-0.5-1.1-0.7-2-0.7c-0.5,0-1,0.1-1.4,0.3c-0.4,0.2-0.7,0.4-1,0.8
		s-0.5,0.7-0.7,1.1s-0.2,0.9-0.2,1.4v8h-3V340.4z"/>
	<path class="st1" d="M281.5,353.3c0,2.1-0.6,3.6-1.7,4.6c-1.1,1-2.8,1.5-5,1.5c-0.7,0-1.4-0.1-2.1-0.2c-0.7-0.1-1.3-0.4-1.9-0.7
		c-0.6-0.3-1-0.8-1.4-1.3c-0.4-0.5-0.6-1.2-0.7-2h3c0.1,0.4,0.2,0.8,0.4,1s0.5,0.5,0.7,0.6c0.3,0.1,0.6,0.2,1,0.3s0.7,0.1,1.1,0.1
		c1.2,0,2.1-0.3,2.7-0.9c0.6-0.6,0.8-1.5,0.8-2.6v-2.1h-0.1c-0.4,0.8-1,1.3-1.7,1.8s-1.5,0.6-2.4,0.6c-1.1,0-2-0.2-2.8-0.6
		s-1.4-0.9-1.9-1.6c-0.5-0.7-0.9-1.4-1.1-2.3c-0.2-0.9-0.3-1.8-0.3-2.8c0-0.9,0.1-1.8,0.4-2.6c0.3-0.8,0.7-1.5,1.2-2.2
		c0.5-0.6,1.2-1.1,1.9-1.5c0.8-0.4,1.6-0.6,2.6-0.6c0.9,0,1.6,0.2,2.4,0.5c0.7,0.4,1.3,0.9,1.7,1.7h0.1v-1.9h3V353.3z M274.9,351.7
		c0.7,0,1.2-0.1,1.7-0.4c0.5-0.3,0.8-0.6,1.1-1.1c0.3-0.4,0.5-1,0.6-1.5c0.1-0.6,0.2-1.1,0.2-1.7c0-0.6-0.1-1.1-0.2-1.7
		c-0.1-0.5-0.4-1-0.6-1.4c-0.3-0.4-0.7-0.8-1.1-1c-0.5-0.2-1-0.4-1.7-0.4c-0.7,0-1.2,0.1-1.7,0.4s-0.8,0.6-1.1,1.1s-0.5,1-0.6,1.5
		c-0.1,0.6-0.2,1.1-0.2,1.7c0,0.6,0.1,1.1,0.2,1.6c0.1,0.5,0.4,1,0.6,1.4c0.3,0.4,0.7,0.8,1.1,1
		C273.7,351.5,274.2,351.7,274.9,351.7z"/>
	<path class="st1" d="M286.8,349.7c0.1,0.9,0.4,1.5,1,1.8s1.3,0.5,2.1,0.5c0.3,0,0.6,0,1-0.1c0.4,0,0.7-0.1,1-0.2
		c0.3-0.1,0.6-0.3,0.8-0.5c0.2-0.2,0.3-0.5,0.3-0.9c0-0.4-0.2-0.7-0.4-0.9c-0.3-0.2-0.6-0.4-1-0.6c-0.4-0.1-0.9-0.3-1.4-0.4
		c-0.5-0.1-1.1-0.2-1.6-0.3c-0.6-0.1-1.1-0.3-1.6-0.4c-0.5-0.2-1-0.4-1.4-0.7s-0.7-0.7-1-1.1c-0.2-0.5-0.4-1-0.4-1.7
		c0-0.7,0.2-1.4,0.5-1.9c0.4-0.5,0.8-0.9,1.4-1.2c0.6-0.3,1.2-0.5,1.8-0.6s1.3-0.2,1.9-0.2c0.7,0,1.4,0.1,2,0.2
		c0.6,0.1,1.2,0.4,1.7,0.7c0.5,0.3,0.9,0.8,1.3,1.3c0.3,0.5,0.6,1.2,0.6,1.9h-3.1c-0.1-0.7-0.5-1.2-1-1.4c-0.5-0.2-1.1-0.4-1.8-0.4
		c-0.2,0-0.5,0-0.7,0.1c-0.3,0-0.6,0.1-0.8,0.2c-0.3,0.1-0.5,0.2-0.6,0.4c-0.2,0.2-0.3,0.4-0.3,0.7c0,0.4,0.1,0.7,0.4,0.9
		c0.3,0.2,0.6,0.4,1,0.6c0.4,0.1,0.9,0.3,1.4,0.4c0.5,0.1,1.1,0.2,1.6,0.3c0.5,0.1,1.1,0.3,1.6,0.4c0.5,0.2,1,0.4,1.4,0.7
		s0.7,0.7,1,1.1s0.4,1,0.4,1.7c0,0.8-0.2,1.5-0.6,2.1c-0.4,0.6-0.8,1-1.4,1.4c-0.6,0.4-1.2,0.6-2,0.8c-0.7,0.2-1.4,0.2-2.1,0.2
		c-0.9,0-1.7-0.1-2.4-0.3c-0.7-0.2-1.4-0.5-1.9-0.9c-0.5-0.4-1-0.9-1.3-1.5s-0.5-1.3-0.5-2.1H286.8z"/>
</g>
</svg>
