<?xml version="1.0" encoding="utf-8"?>
<!-- Generator: Adobe Illustrator 19.1.0, SVG Export Plug-In . SVG Version: 6.00 Build 0)  -->
<svg version="1.1" id="Layer_1" xmlns="http://www.w3.org/2000/svg" xmlns:xlink="http://www.w3.org/1999/xlink" x="0px" y="0px"
	 viewBox="0 0 437.3 411" style="enable-background:new 0 0 437.3 411;" xml:space="preserve">
<style type="text/css">
	.st0{fill:#496AB2;}
	.st1{fill:#FFFFFF;}
</style>
<g>
	<path class="st0" d="M394.6,394.6H41.5c-6.6,0-12-5.4-12-12V29.5c0-6.6,5.4-12,12-12h353.2c6.6,0,12,5.4,12,12v353.2
		C406.6,389.2,401.2,394.6,394.6,394.6z"/>
</g>
<g>
	<g>
		<path class="st1" d="M298.3,282.9c0-7.2,0-14,0-21c-0.8,0-1.5-0.1-2.2-0.1c-5.4,0-10.8-0.1-16.2,0c-15.4,0.4-28.8-4.8-40.9-14
			c-12-9-21.6-20.3-30.9-31.9c-9.2-11.5-18.2-23.2-27.6-34.6c-6.3-7.7-13.5-14.6-22.1-19.7c-6-3.5-12.4-5.4-19.4-5.4
			c-11.2,0-22.4,0-33.5,0c-6.6,0-7.5-1-7.6-7.6c0-9,0-18,0-27c0-0.8,0-1.5,0.1-2.3c0.3-3.8,1.4-5.1,5.2-5.1
			c13.6-0.1,27.3-0.3,40.9,0.2c12.8,0.5,24,5.9,34.3,13.3c12.8,9.2,23.2,20.8,33.1,32.9c9,11,17.8,22.3,27,33.3
			c6.4,7.7,13.4,15,22.1,20.4c5.6,3.5,11.7,5.5,18.3,5.4c6.4-0.1,12.8,0,19.4,0c0-7,0-13.8,0-21.1c17.8,14.2,35.1,28.1,52.8,42.2
			C333.4,254.8,316,268.7,298.3,282.9z"/>
	</g>
	<g>
		<path class="st1" d="M298.3,177.4c0-7.3,0-14,0-20.7c-0.2-0.2-0.3-0.3-0.4-0.3c-8.1,0.1-16.3-0.3-24.4,0.4
			c-8.3,0.7-15,5.3-21.1,10.7c-2.2,1.9-4.2,4-6.4,6.1c-7.8-9.7-15.7-19.6-23.8-29.7c3.7-3.8,7.3-7.7,11.1-11.3
			c10.2-9.2,21.7-15.7,35.5-17.8c2.9-0.4,5.9-0.6,8.8-0.6c6.8-0.1,13.6,0,20.7,0c0-6.9,0-13.8,0-21.1c17.8,14.2,35.1,28.1,52.8,42.2
			C333.4,149.3,316,163.2,298.3,177.4z"/>
	</g>
	<g>
		<path class="st1" d="M174.5,200.7c7.9,10.1,15.6,19.8,23.3,29.7c-12.9,14.5-27.4,26.4-47,30.3c-3.3,0.7-6.7,1-10,1
			c-11.8,0.1-23.6,0.1-35.4,0c-6.6,0-7.5-1-7.5-7.6c0-9,0-18,0-27c0-0.5,0-1,0-1.5c0.2-4.8,1.3-6,6.1-6.1c10.9-0.1,21.8-0.3,32.7,0
			c11.9,0.4,21.8-3.9,30.6-11.5C169.7,206,171.9,203.4,174.5,200.7z"/>
	</g>
</g>
<g>
	<path class="st1" d="M153.5,347.8c0,0.7,0.1,1.3,0.4,1.8c0.2,0.5,0.6,0.9,1,1.2c0.4,0.3,0.9,0.6,1.5,0.7c0.6,0.1,1.2,0.2,1.9,0.2
		c0.7,0,1.3-0.1,1.8-0.2c0.5-0.2,0.9-0.4,1.2-0.6c0.3-0.3,0.5-0.6,0.7-0.9s0.2-0.7,0.2-1c0-0.7-0.2-1.2-0.5-1.6
		c-0.3-0.3-0.7-0.6-1.1-0.7c-0.7-0.2-1.4-0.5-2.3-0.7c-0.9-0.2-2-0.5-3.3-0.9c-0.8-0.2-1.5-0.5-2-0.8c-0.5-0.3-1-0.7-1.3-1.1
		c-0.3-0.4-0.5-0.9-0.7-1.3c-0.1-0.5-0.2-1-0.2-1.4c0-0.9,0.2-1.8,0.6-2.5s0.9-1.3,1.6-1.7c0.6-0.5,1.4-0.8,2.2-1
		c0.8-0.2,1.7-0.3,2.5-0.3c1,0,1.9,0.1,2.8,0.4c0.9,0.3,1.6,0.6,2.3,1.1c0.7,0.5,1.2,1.1,1.6,1.9s0.6,1.6,0.6,2.6h-3.3
		c-0.1-1.2-0.5-2.1-1.2-2.6s-1.7-0.8-2.8-0.8c-0.4,0-0.8,0-1.2,0.1c-0.4,0.1-0.8,0.2-1.1,0.4c-0.3,0.2-0.6,0.4-0.8,0.7
		s-0.3,0.7-0.3,1.2c0,0.7,0.2,1.2,0.6,1.6c0.4,0.4,1,0.7,1.6,0.9c0.1,0,0.3,0.1,0.8,0.2c0.5,0.1,1,0.3,1.6,0.4
		c0.6,0.2,1.2,0.3,1.7,0.5c0.6,0.1,1,0.3,1.2,0.3c0.6,0.2,1.1,0.5,1.6,0.8s0.8,0.7,1.1,1.1c0.3,0.4,0.5,0.9,0.7,1.4
		c0.1,0.5,0.2,1,0.2,1.5c0,1.1-0.2,2-0.6,2.7c-0.4,0.7-1,1.4-1.7,1.8c-0.7,0.5-1.5,0.8-2.4,1s-1.8,0.3-2.7,0.3c-1.1,0-2.1-0.1-3-0.4
		s-1.8-0.7-2.5-1.2c-0.7-0.5-1.3-1.2-1.7-2.1c-0.4-0.8-0.6-1.9-0.7-3H153.5z"/>
	<path class="st1" d="M179.9,354H177v-1.9h-0.1c-0.4,0.7-0.9,1.2-1.6,1.6c-0.7,0.4-1.5,0.6-2.2,0.6c-1.8,0-3.1-0.4-3.9-1.3
		c-0.8-0.9-1.2-2.2-1.2-4v-8.6h3v8.3c0,1.2,0.2,2,0.7,2.5c0.5,0.5,1.1,0.7,1.9,0.7c0.6,0,1.2-0.1,1.6-0.3c0.4-0.2,0.8-0.5,1-0.8
		c0.3-0.3,0.5-0.7,0.6-1.2c0.1-0.5,0.2-0.9,0.2-1.5v-7.9h3V354z"/>
	<path class="st1" d="M183.2,340.4h2.8v1.8h0.1c0.4-0.8,1-1.4,1.8-1.7c0.8-0.3,1.6-0.5,2.4-0.5c1.1,0,2,0.2,2.8,0.6
		c0.8,0.4,1.5,0.9,2,1.6c0.5,0.7,0.9,1.4,1.2,2.3c0.3,0.9,0.4,1.8,0.4,2.8c0,0.9-0.1,1.8-0.4,2.7c-0.2,0.9-0.6,1.6-1.1,2.3
		c-0.5,0.7-1.1,1.2-1.8,1.6s-1.6,0.6-2.6,0.6c-0.4,0-0.9,0-1.3-0.1c-0.4-0.1-0.9-0.2-1.3-0.4c-0.4-0.2-0.8-0.4-1.1-0.7
		c-0.3-0.3-0.6-0.6-0.9-1h-0.1v6.8h-3V340.4z M193.6,347.2c0-0.6-0.1-1.2-0.2-1.8c-0.2-0.6-0.4-1.1-0.7-1.5
		c-0.3-0.4-0.7-0.8-1.2-1.1c-0.5-0.3-1-0.4-1.6-0.4c-1.3,0-2.2,0.4-2.9,1.3c-0.6,0.9-1,2-1,3.5c0,0.7,0.1,1.3,0.2,1.9
		c0.2,0.6,0.4,1.1,0.7,1.5c0.3,0.4,0.7,0.8,1.2,1c0.5,0.2,1,0.4,1.6,0.4c0.7,0,1.3-0.1,1.7-0.4c0.5-0.3,0.9-0.6,1.2-1.1
		s0.5-1,0.7-1.5C193.6,348.4,193.6,347.8,193.6,347.2z"/>
	<path class="st1" d="M199.1,340.4h2.8v2.6h0.1c0.1-0.4,0.3-0.7,0.5-1.1c0.3-0.4,0.6-0.7,0.9-1c0.4-0.3,0.8-0.5,1.2-0.7
		c0.4-0.2,0.9-0.3,1.3-0.3c0.4,0,0.6,0,0.7,0c0.1,0,0.3,0,0.4,0.1v2.9c-0.2,0-0.4-0.1-0.6-0.1s-0.4,0-0.6,0c-0.5,0-1,0.1-1.4,0.3
		c-0.4,0.2-0.8,0.5-1.2,0.9c-0.3,0.4-0.6,0.9-0.8,1.5c-0.2,0.6-0.3,1.2-0.3,2v6.5h-3V340.4z"/>
	<path class="st1" d="M208.5,335.3h3v2.8h-3V335.3z M208.5,340.4h3V354h-3V340.4z"/>
	<path class="st1" d="M217,349.7c0.1,0.9,0.4,1.5,1,1.8c0.6,0.4,1.3,0.5,2.1,0.5c0.3,0,0.6,0,1-0.1c0.4,0,0.7-0.1,1-0.2
		c0.3-0.1,0.6-0.3,0.8-0.5c0.2-0.2,0.3-0.5,0.3-0.9c0-0.4-0.2-0.7-0.4-0.9c-0.3-0.2-0.6-0.4-1-0.6c-0.4-0.1-0.9-0.3-1.4-0.4
		c-0.5-0.1-1.1-0.2-1.6-0.3c-0.6-0.1-1.1-0.3-1.6-0.4c-0.5-0.2-1-0.4-1.4-0.7s-0.7-0.7-1-1.1c-0.2-0.5-0.4-1-0.4-1.7
		c0-0.7,0.2-1.4,0.5-1.9c0.4-0.5,0.8-0.9,1.4-1.2s1.2-0.5,1.8-0.6c0.7-0.1,1.3-0.2,1.9-0.2c0.7,0,1.4,0.1,2,0.2
		c0.6,0.1,1.2,0.4,1.7,0.7c0.5,0.3,0.9,0.8,1.3,1.3c0.3,0.5,0.6,1.2,0.6,1.9h-3.1c-0.1-0.7-0.5-1.2-1-1.4c-0.5-0.2-1.1-0.4-1.8-0.4
		c-0.2,0-0.5,0-0.8,0.1s-0.6,0.1-0.8,0.2c-0.3,0.1-0.5,0.2-0.6,0.4c-0.2,0.2-0.3,0.4-0.3,0.7c0,0.4,0.1,0.7,0.4,0.9
		c0.3,0.2,0.6,0.4,1,0.6c0.4,0.1,0.9,0.3,1.4,0.4c0.5,0.1,1.1,0.2,1.6,0.3c0.5,0.1,1.1,0.3,1.6,0.4c0.5,0.2,1,0.4,1.4,0.7
		c0.4,0.3,0.7,0.7,1,1.1c0.3,0.5,0.4,1,0.4,1.7c0,0.8-0.2,1.5-0.6,2.1c-0.4,0.6-0.8,1-1.4,1.4c-0.6,0.4-1.2,0.6-2,0.8
		c-0.7,0.2-1.4,0.2-2.1,0.2c-0.9,0-1.7-0.1-2.4-0.3c-0.7-0.2-1.4-0.5-1.9-0.9c-0.5-0.4-1-0.9-1.3-1.5c-0.3-0.6-0.5-1.3-0.5-2.1H217z
		"/>
	<path class="st1" d="M230.7,348c0,0.5,0.1,1,0.2,1.5c0.1,0.5,0.4,0.9,0.7,1.3s0.7,0.7,1.1,0.9c0.5,0.2,1,0.3,1.6,0.3
		c0.9,0,1.6-0.2,2.1-0.6s0.9-0.9,1.2-1.7h2.8c-0.2,0.7-0.4,1.4-0.8,2c-0.4,0.6-0.9,1.1-1.4,1.5c-0.5,0.4-1.2,0.7-1.8,0.9
		s-1.4,0.3-2.1,0.3c-1.1,0-2-0.2-2.8-0.5c-0.8-0.3-1.5-0.8-2.1-1.5c-0.6-0.6-1-1.4-1.3-2.3s-0.4-1.8-0.4-2.9c0-1,0.2-1.9,0.5-2.7
		c0.3-0.9,0.7-1.6,1.3-2.3c0.6-0.7,1.3-1.2,2.1-1.6s1.7-0.6,2.7-0.6c1.1,0,2,0.2,2.9,0.7s1.6,1,2.1,1.8c0.6,0.7,1,1.6,1.2,2.5
		c0.3,1,0.3,1.9,0.2,3H230.7z M237.7,346c0-0.5-0.1-0.9-0.3-1.4c-0.2-0.4-0.4-0.8-0.7-1.1c-0.3-0.3-0.6-0.6-1.1-0.8
		c-0.4-0.2-0.9-0.3-1.4-0.3c-0.5,0-1,0.1-1.4,0.3c-0.4,0.2-0.8,0.4-1.1,0.8s-0.6,0.7-0.7,1.1c-0.2,0.4-0.3,0.9-0.3,1.4H237.7z"/>
	<path class="st1" d="M250.7,335.3h4.6l5.2,14.7h0.1l5-14.7h4.6V354H267v-14.5H267l-5.2,14.5h-2.7l-5.2-14.5h-0.1V354h-3.1V335.3z"
		/>
	<path class="st1" d="M276,348c0,0.5,0.1,1,0.2,1.5c0.1,0.5,0.4,0.9,0.7,1.3c0.3,0.4,0.7,0.7,1.1,0.9c0.5,0.2,1,0.3,1.6,0.3
		c0.9,0,1.6-0.2,2.1-0.6c0.5-0.4,0.9-0.9,1.2-1.7h2.8c-0.2,0.7-0.4,1.4-0.8,2c-0.4,0.6-0.9,1.1-1.4,1.5c-0.5,0.4-1.2,0.7-1.8,0.9
		c-0.7,0.2-1.4,0.3-2.1,0.3c-1.1,0-2-0.2-2.8-0.5c-0.8-0.3-1.5-0.8-2.1-1.5c-0.6-0.6-1-1.4-1.3-2.3c-0.3-0.9-0.4-1.8-0.4-2.9
		c0-1,0.2-1.9,0.5-2.7c0.3-0.9,0.7-1.6,1.3-2.3c0.6-0.7,1.3-1.2,2.1-1.6c0.8-0.4,1.7-0.6,2.7-0.6c1.1,0,2,0.2,2.9,0.7
		c0.8,0.4,1.6,1,2.1,1.8c0.6,0.7,1,1.6,1.2,2.5c0.3,1,0.3,1.9,0.2,3H276z M283,346c0-0.5-0.1-0.9-0.3-1.4s-0.4-0.8-0.7-1.1
		c-0.3-0.3-0.6-0.6-1.1-0.8c-0.4-0.2-0.9-0.3-1.4-0.3c-0.5,0-1,0.1-1.4,0.3c-0.4,0.2-0.8,0.4-1.1,0.8c-0.3,0.3-0.6,0.7-0.7,1.1
		c-0.2,0.4-0.3,0.9-0.3,1.4H283z"/>
</g>
</svg>
