<?xml version="1.0" encoding="utf-8"?>
<!-- Generator: Adobe Illustrator 19.1.0, SVG Export Plug-In . SVG Version: 6.00 Build 0)  -->
<svg version="1.1" id="Layer_1" xmlns="http://www.w3.org/2000/svg" xmlns:xlink="http://www.w3.org/1999/xlink" x="0px" y="0px"
	 viewBox="0 0 437.3 411" style="enable-background:new 0 0 437.3 411;" xml:space="preserve">
<style type="text/css">
	.st0{fill:#FBE171;}
	.st1{fill:#496AB2;}
</style>
<g>
	<path class="st0" d="M394.6,394.6H41.5c-6.6,0-12-5.4-12-12V29.5c0-6.6,5.4-12,12-12h353.2c6.6,0,12,5.4,12,12v353.2
		C406.6,389.2,401.2,394.6,394.6,394.6z"/>
</g>
<g>
	<g>
		<path class="st1" d="M298.3,282.9c0-7.2,0-14,0-21c-0.8,0-1.5-0.1-2.2-0.1c-5.4,0-10.8-0.1-16.2,0c-15.4,0.4-28.8-4.8-40.9-14
			c-12-9-21.6-20.3-30.9-31.9c-9.2-11.5-18.2-23.2-27.6-34.6c-6.3-7.7-13.5-14.6-22.1-19.7c-6-3.5-12.4-5.4-19.4-5.4
			c-11.2,0-22.4,0-33.5,0c-6.6,0-7.5-1-7.6-7.6c0-9,0-18,0-27c0-0.8,0-1.5,0.1-2.3c0.3-3.8,1.4-5.1,5.2-5.1
			c13.6-0.1,27.3-0.3,40.9,0.2c12.8,0.5,24,5.9,34.3,13.3c12.8,9.2,23.2,20.8,33.1,32.9c9,11,17.8,22.3,27,33.3
			c6.4,7.7,13.4,15,22.1,20.4c5.6,3.5,11.7,5.5,18.3,5.4c6.4-0.1,12.8,0,19.4,0c0-7,0-13.8,0-21.1c17.8,14.2,35.1,28.1,52.8,42.2
			C333.4,254.8,316,268.7,298.3,282.9z"/>
	</g>
	<g>
		<path class="st1" d="M298.3,177.4c0-7.3,0-14,0-20.7c-0.2-0.2-0.3-0.3-0.4-0.3c-8.1,0.1-16.3-0.3-24.4,0.4
			c-8.3,0.7-15,5.3-21.1,10.7c-2.2,1.9-4.2,4-6.4,6.1c-7.8-9.7-15.7-19.6-23.8-29.7c3.7-3.8,7.3-7.7,11.1-11.3
			c10.2-9.2,21.7-15.7,35.5-17.8c2.9-0.4,5.9-0.6,8.8-0.6c6.8-0.1,13.6,0,20.7,0c0-6.9,0-13.8,0-21.1c17.8,14.2,35.1,28.1,52.8,42.2
			C333.4,149.3,316,163.2,298.3,177.4z"/>
	</g>
	<g>
		<path class="st1" d="M174.5,200.7c7.9,10.1,15.6,19.8,23.3,29.7c-12.9,14.5-27.4,26.4-47,30.3c-3.3,0.7-6.7,1-10,1
			c-11.8,0.1-23.6,0.1-35.4,0c-6.6,0-7.5-1-7.5-7.6c0-9,0-18,0-27c0-0.5,0-1,0-1.5c0.2-4.8,1.3-6,6.1-6.1c10.9-0.1,21.8-0.3,32.7,0
			c11.9,0.4,21.8-3.9,30.6-11.5C169.7,206,171.9,203.4,174.5,200.7z"/>
	</g>
</g>
<g>
	<path class="st1" d="M162.8,337.8c-0.8-0.6-1.9-0.9-3.2-0.9c-0.5,0-1,0.1-1.6,0.2c-0.5,0.1-1,0.3-1.4,0.5c-0.4,0.2-0.7,0.6-0.9,1
		s-0.4,0.9-0.4,1.5c0,0.6,0.2,1,0.5,1.4s0.8,0.7,1.4,0.9s1.2,0.4,1.9,0.6c0.7,0.1,1.5,0.3,2.2,0.5c0.7,0.2,1.5,0.4,2.2,0.6
		c0.7,0.2,1.4,0.6,1.9,1c0.6,0.4,1,0.9,1.4,1.5c0.3,0.6,0.5,1.4,0.5,2.3c0,1-0.2,1.9-0.7,2.6c-0.4,0.7-1,1.3-1.7,1.7
		c-0.7,0.4-1.5,0.8-2.4,1s-1.7,0.3-2.6,0.3c-1.1,0-2-0.1-3-0.4s-1.8-0.7-2.5-1.2s-1.3-1.2-1.7-2.1c-0.4-0.8-0.6-1.8-0.6-3h2.4
		c0,0.8,0.2,1.5,0.5,2s0.7,1,1.2,1.4c0.5,0.4,1.1,0.6,1.7,0.8c0.7,0.2,1.3,0.3,2.1,0.3c0.6,0,1.1-0.1,1.7-0.2s1.1-0.3,1.5-0.5
		c0.5-0.3,0.8-0.6,1.1-1c0.3-0.4,0.4-1,0.4-1.7c0-0.6-0.2-1.2-0.5-1.6c-0.3-0.4-0.8-0.7-1.4-1c-0.6-0.3-1.2-0.5-1.9-0.6
		c-0.7-0.2-1.5-0.3-2.2-0.5c-0.7-0.2-1.5-0.4-2.2-0.6c-0.7-0.2-1.4-0.5-1.9-0.9c-0.6-0.4-1-0.8-1.4-1.4c-0.3-0.6-0.5-1.3-0.5-2.1
		c0-0.9,0.2-1.8,0.6-2.5s0.9-1.3,1.5-1.7c0.6-0.4,1.4-0.8,2.2-1c0.8-0.2,1.7-0.3,2.5-0.3c1,0,1.9,0.1,2.7,0.3s1.5,0.6,2.2,1.1
		c0.6,0.5,1.1,1.1,1.5,1.9c0.4,0.7,0.6,1.6,0.6,2.7h-2.4C164.1,339.4,163.6,338.4,162.8,337.8z"/>
	<path class="st1" d="M179.2,354v-2.2h-0.1c-0.5,0.8-1.1,1.5-1.8,1.9s-1.6,0.6-2.6,0.6c-0.9,0-1.6-0.1-2.2-0.4
		c-0.6-0.2-1.1-0.6-1.4-1s-0.6-1-0.8-1.6c-0.1-0.6-0.2-1.3-0.2-2v-8.9h2.2v9.2c0,0.8,0.2,1.5,0.7,2c0.5,0.5,1.2,0.7,2,0.7
		c0.7,0,1.3-0.1,1.8-0.3c0.5-0.2,0.9-0.5,1.2-0.9c0.3-0.4,0.6-0.8,0.7-1.4c0.2-0.5,0.2-1.1,0.2-1.7v-7.7h2.2V354H179.2z"/>
	<path class="st1" d="M187,340.4v1.8h0.1c0.4-0.8,0.9-1.3,1.7-1.6c0.8-0.3,1.7-0.5,2.6-0.5c1.1,0,2,0.2,2.7,0.6
		c0.8,0.4,1.4,0.9,1.9,1.6s0.9,1.4,1.2,2.3c0.3,0.9,0.4,1.8,0.4,2.7c0,1-0.1,1.9-0.4,2.7c-0.3,0.9-0.6,1.6-1.2,2.2
		c-0.5,0.6-1.2,1.1-1.9,1.5c-0.8,0.4-1.7,0.6-2.7,0.6c-0.3,0-0.7,0-1.1-0.1c-0.4-0.1-0.8-0.2-1.2-0.3c-0.4-0.2-0.8-0.4-1.1-0.6
		c-0.4-0.3-0.7-0.6-0.9-1H187v7h-2.2v-18.8H187z M195,345.3c-0.2-0.6-0.4-1.1-0.8-1.6c-0.3-0.5-0.8-0.9-1.3-1.1s-1.2-0.4-1.9-0.4
		c-0.8,0-1.4,0.1-1.9,0.4s-1,0.7-1.3,1.2s-0.6,1-0.7,1.6s-0.2,1.2-0.2,1.9c0,0.7,0.1,1.3,0.2,1.9s0.4,1.2,0.7,1.6s0.8,0.9,1.3,1.1
		c0.5,0.3,1.2,0.4,2,0.4c0.8,0,1.4-0.1,1.9-0.4s0.9-0.7,1.2-1.2c0.3-0.5,0.5-1.1,0.7-1.7c0.1-0.6,0.2-1.3,0.2-1.9
		C195.3,346.5,195.2,345.9,195,345.3z"/>
	<path class="st1" d="M202.3,340.4v2.9h0.1c0.5-1.1,1.2-1.9,2-2.4c0.8-0.5,1.8-0.8,3-0.7v2.4c-0.9,0-1.7,0.1-2.3,0.4
		c-0.6,0.2-1.1,0.6-1.5,1.1c-0.4,0.5-0.7,1-0.8,1.7s-0.3,1.5-0.3,2.3v6h-2.2v-13.6H202.3z"/>
	<path class="st1" d="M209.2,338v-2.7h2.2v2.7H209.2z M211.4,340.4V354h-2.2v-13.6H211.4z"/>
	<path class="st1" d="M216.6,351c0.2,0.3,0.5,0.6,0.8,0.8c0.3,0.2,0.7,0.3,1.2,0.4c0.4,0.1,0.9,0.1,1.3,0.1c0.4,0,0.7,0,1.1-0.1
		c0.4-0.1,0.7-0.1,1.1-0.3c0.3-0.1,0.6-0.3,0.8-0.6c0.2-0.3,0.3-0.6,0.3-1c0-0.6-0.2-1-0.7-1.3c-0.4-0.3-1-0.5-1.6-0.7
		c-0.7-0.2-1.4-0.4-2.1-0.5c-0.8-0.1-1.5-0.4-2.1-0.6c-0.7-0.3-1.2-0.7-1.6-1.1c-0.4-0.5-0.7-1.2-0.7-2.1c0-0.7,0.2-1.3,0.5-1.8
		c0.3-0.5,0.7-0.9,1.2-1.2c0.5-0.3,1-0.5,1.6-0.7c0.6-0.1,1.2-0.2,1.8-0.2c0.8,0,1.5,0.1,2.1,0.2c0.6,0.1,1.2,0.4,1.7,0.7
		c0.5,0.3,0.9,0.8,1.2,1.3c0.3,0.6,0.5,1.2,0.5,2.1h-2.2c0-0.4-0.1-0.8-0.3-1.1c-0.2-0.3-0.4-0.5-0.7-0.7c-0.3-0.2-0.6-0.3-1-0.4
		s-0.7-0.1-1.1-0.1c-0.3,0-0.7,0-1,0.1c-0.3,0.1-0.7,0.1-0.9,0.3c-0.3,0.1-0.5,0.3-0.7,0.5c-0.2,0.2-0.3,0.5-0.3,0.9
		c0,0.4,0.1,0.7,0.4,1c0.3,0.3,0.6,0.5,1,0.6c0.4,0.2,0.9,0.3,1.4,0.4c0.5,0.1,1.1,0.2,1.6,0.4c0.6,0.1,1.1,0.3,1.6,0.4
		c0.5,0.2,1,0.4,1.4,0.7c0.4,0.3,0.7,0.7,1,1.1c0.3,0.4,0.4,1,0.4,1.6c0,0.8-0.2,1.5-0.5,2.1c-0.3,0.5-0.8,1-1.3,1.3
		c-0.6,0.3-1.2,0.6-1.9,0.7c-0.7,0.1-1.4,0.2-2.1,0.2c-0.8,0-1.5-0.1-2.2-0.2c-0.7-0.2-1.3-0.4-1.8-0.8c-0.5-0.4-0.9-0.8-1.3-1.4
		c-0.3-0.6-0.5-1.3-0.5-2.1h2.2C216.2,350.2,216.4,350.7,216.6,351z"/>
	<path class="st1" d="M237.6,353.2c-1,0.8-2.3,1.2-3.8,1.2c-1.1,0-2-0.2-2.8-0.5s-1.5-0.8-2-1.5c-0.5-0.6-1-1.4-1.2-2.3
		c-0.3-0.9-0.4-1.8-0.5-2.9c0-1,0.2-2,0.5-2.8c0.3-0.9,0.8-1.6,1.3-2.2c0.6-0.6,1.2-1.1,2-1.5c0.8-0.4,1.6-0.5,2.6-0.5
		c1.2,0,2.2,0.2,3,0.8c0.8,0.5,1.4,1.1,1.9,1.9s0.8,1.6,1,2.5c0.2,0.9,0.3,1.8,0.2,2.6h-10.2c0,0.6,0.1,1.2,0.2,1.7
		c0.2,0.5,0.4,1,0.8,1.4s0.8,0.7,1.3,1c0.5,0.2,1.2,0.4,1.9,0.4c0.9,0,1.7-0.2,2.3-0.7c0.6-0.4,1-1.1,1.2-2h2.2
		C239.3,351.2,238.7,352.4,237.6,353.2z M237.1,344.4c-0.2-0.5-0.5-0.9-0.8-1.2s-0.7-0.6-1.2-0.8c-0.5-0.2-1-0.3-1.5-0.3
		c-0.6,0-1.1,0.1-1.6,0.3c-0.5,0.2-0.9,0.5-1.2,0.8s-0.6,0.8-0.8,1.2s-0.3,1-0.3,1.5h7.8C237.4,345.4,237.3,344.9,237.1,344.4z"/>
	<path class="st1" d="M253.3,335.3l5.9,15.8l5.9-15.8h3.4V354h-2.4v-15.6h-0.1l-5.9,15.6h-2.1l-5.9-15.6h-0.1V354h-2.4v-18.8H253.3z
		"/>
	<path class="st1" d="M282,353.2c-1,0.8-2.3,1.2-3.8,1.2c-1.1,0-2-0.2-2.8-0.5c-0.8-0.4-1.5-0.8-2-1.5c-0.5-0.6-1-1.4-1.2-2.3
		s-0.4-1.8-0.5-2.9c0-1,0.2-2,0.5-2.8c0.3-0.9,0.8-1.6,1.3-2.2c0.6-0.6,1.2-1.1,2-1.5s1.6-0.5,2.6-0.5c1.2,0,2.2,0.2,3,0.8
		c0.8,0.5,1.4,1.1,1.9,1.9c0.5,0.8,0.8,1.6,1,2.5c0.2,0.9,0.3,1.8,0.2,2.6H274c0,0.6,0.1,1.2,0.2,1.7c0.2,0.5,0.4,1,0.8,1.4
		s0.8,0.7,1.3,1c0.5,0.2,1.2,0.4,1.9,0.4c0.9,0,1.7-0.2,2.3-0.7c0.6-0.4,1-1.1,1.2-2h2.2C283.6,351.2,283,352.4,282,353.2z
		 M281.4,344.4c-0.2-0.5-0.5-0.9-0.8-1.2s-0.7-0.6-1.2-0.8c-0.5-0.2-1-0.3-1.5-0.3c-0.6,0-1.1,0.1-1.6,0.3c-0.5,0.2-0.9,0.5-1.2,0.8
		c-0.3,0.4-0.6,0.8-0.8,1.2c-0.2,0.5-0.3,1-0.3,1.5h7.8C281.7,345.4,281.6,344.9,281.4,344.4z"/>
</g>
</svg>
